<?xml version="1.0" encoding="utf-8"?>
<!-- Generator: Adobe Illustrator 18.0.0, SVG Export Plug-In . SVG Version: 6.00 Build 0)  -->
<!DOCTYPE svg PUBLIC "-//W3C//DTD SVG 1.1//EN" "http://www.w3.org/Graphics/SVG/1.1/DTD/svg11.dtd">
<svg version="1.1" xmlns="http://www.w3.org/2000/svg" xmlns:xlink="http://www.w3.org/1999/xlink" x="0px" y="0px" width="48px"
	 height="48px" viewBox="0 0 48 48" enable-background="new 0 0 48 48" xml:space="preserve">
<g id="Header">
	<g>
		<rect x="-838" y="-2360" fill="none" width="1400" height="3600"/>
	</g>
</g>
<g id="Label">
</g>
<g id="Icon">
	<g>
		<rect x="0" fill="none" width="48" height="48"/>
		<path d="M10,35c1.7,0,3-1.3,3-3c0-1.7-1.3-3-3-3s-3,1.3-3,3C7,33.7,8.3,35,10,35z M18,26c1.1,0,2-0.9,2-2s-0.9-2-2-2s-2,0.9-2,2
			S16.9,26,18,26z M18,18c1.1,0,2-0.9,2-2s-0.9-2-2-2s-2,0.9-2,2S16.9,18,18,18z M6,42h36v-4H6V42z M10,19c1.7,0,3-1.3,3-3
			s-1.3-3-3-3s-3,1.3-3,3S8.3,19,10,19z M10,27c1.7,0,3-1.3,3-3s-1.3-3-3-3s-3,1.3-3,3S8.3,27,10,27z M18,34c1.1,0,2-0.9,2-2
			c0-1.1-0.9-2-2-2s-2,0.9-2,2C16,33.1,16.9,34,18,34z M34,33c0.6,0,1-0.4,1-1c0-0.6-0.4-1-1-1s-1,0.4-1,1C33,32.6,33.4,33,34,33z
			 M6,6v4h36V6H6z M34,17c0.6,0,1-0.4,1-1s-0.4-1-1-1s-1,0.4-1,1S33.4,17,34,17z M34,25c0.6,0,1-0.4,1-1s-0.4-1-1-1s-1,0.4-1,1
			S33.4,25,34,25z M26,18c1.1,0,2-0.9,2-2s-0.9-2-2-2s-2,0.9-2,2S24.9,18,26,18z M26,26c1.1,0,2-0.9,2-2s-0.9-2-2-2s-2,0.9-2,2
			S24.9,26,26,26z M26,34c1.1,0,2-0.9,2-2c0-1.1-0.9-2-2-2s-2,0.9-2,2C24,33.1,24.9,34,26,34z"/>
	</g>
</g>
<g id="Grid" display="none">
	<g display="inline">
		<line fill="none" stroke="#00E5FF" stroke-width="0.1" stroke-miterlimit="10" x1="42" y1="-2360" x2="42" y2="1192"/>
	</g>
</g>
</svg>
