<?xml version="1.0" encoding="utf-8"?>
<!-- Generator: Adobe Illustrator 18.0.0, SVG Export Plug-In . SVG Version: 6.00 Build 0)  -->
<!DOCTYPE svg PUBLIC "-//W3C//DTD SVG 1.1//EN" "http://www.w3.org/Graphics/SVG/1.1/DTD/svg11.dtd">
<svg version="1.1" xmlns="http://www.w3.org/2000/svg" xmlns:xlink="http://www.w3.org/1999/xlink" x="0px" y="0px" width="48px"
	 height="48px" viewBox="0 0 48 48" enable-background="new 0 0 48 48" xml:space="preserve">
<g id="Header">
	<g>
		<rect x="-838" y="-2232" fill="none" width="1400" height="3600"/>
	</g>
</g>
<g id="Label">
</g>
<g id="Icon">
	<g>
		<rect x="0" fill="none" width="48" height="48"/>
		<path d="M20,18c-1.1,0-2,0.9-2,2s0.9,2,2,2s2-0.9,2-2S21.1,18,20,18z M20,26c-1.1,0-2,0.9-2,2s0.9,2,2,2s2-0.9,2-2S21.1,26,20,26z
			 M14,19c-0.6,0-1,0.4-1,1s0.4,1,1,1s1-0.4,1-1S14.6,19,14,19z M20,33c-0.6,0-1,0.4-1,1s0.4,1,1,1s1-0.4,1-1S20.6,33,20,33z M14,27
			c-0.6,0-1,0.4-1,1s0.4,1,1,1s1-0.4,1-1S14.6,27,14,27z M20,15c0.6,0,1-0.4,1-1s-0.4-1-1-1s-1,0.4-1,1S19.4,15,20,15z M28,18
			c-1.1,0-2,0.9-2,2s0.9,2,2,2s2-0.9,2-2S29.1,18,28,18z M28,15c0.6,0,1-0.4,1-1s-0.4-1-1-1s-1,0.4-1,1S27.4,15,28,15z M34,27
			c-0.6,0-1,0.4-1,1s0.4,1,1,1s1-0.4,1-1S34.6,27,34,27z M34,19c-0.6,0-1,0.4-1,1s0.4,1,1,1s1-0.4,1-1S34.6,19,34,19z M24,4
			C13,4,4,13,4,24s9,20,20,20s20-9,20-20S35,4,24,4z M24,40c-8.8,0-16-7.2-16-16S15.2,8,24,8s16,7.2,16,16S32.8,40,24,40z M28,33
			c-0.6,0-1,0.4-1,1s0.4,1,1,1s1-0.4,1-1S28.6,33,28,33z M28,26c-1.1,0-2,0.9-2,2s0.9,2,2,2s2-0.9,2-2S29.1,26,28,26z"/>
	</g>
</g>
<g id="Grid" display="none">
	<g display="inline">
		<line fill="none" stroke="#00E5FF" stroke-width="0.1" stroke-miterlimit="10" x1="42" y1="-2232" x2="42" y2="1320"/>
	</g>
</g>
</svg>
