<?xml version="1.0" encoding="utf-8"?>
<!-- Generator: Adobe Illustrator 18.0.0, SVG Export Plug-In . SVG Version: 6.00 Build 0)  -->
<!DOCTYPE svg PUBLIC "-//W3C//DTD SVG 1.1//EN" "http://www.w3.org/Graphics/SVG/1.1/DTD/svg11.dtd">
<svg version="1.1" xmlns="http://www.w3.org/2000/svg" xmlns:xlink="http://www.w3.org/1999/xlink" x="0px" y="0px" width="48px"
	 height="48px" viewBox="0 0 48 48" enable-background="new 0 0 48 48" xml:space="preserve">
<g id="Header">
	<g>
		<rect x="-838" y="-2488" fill="none" width="1400" height="3600"/>
	</g>
</g>
<g id="Label">
</g>
<g id="Icon">
	<g>
		<rect x="0" fill="none" width="48" height="48"/>
		<path d="M28,14c1.1,0,2-0.9,2-2s-0.9-2-2-2s-2,0.9-2,2S26.9,14,28,14z M27.6,23c0.1,0,0.3,0,0.4,0c1.7,0,3-1.3,3-3s-1.3-3-3-3
			s-3,1.3-3,3c0,0.1,0,0.3,0,0.4C25.2,21.7,26.3,22.8,27.6,23z M28,7c0.6,0,1-0.4,1-1s-0.4-1-1-1s-1,0.4-1,1S27.4,7,28,7z M20,7
			c0.6,0,1-0.4,1-1s-0.4-1-1-1s-1,0.4-1,1S19.4,7,20,7z M42,21c0.6,0,1-0.4,1-1s-0.4-1-1-1s-1,0.4-1,1S41.4,21,42,21z M20,14
			c1.1,0,2-0.9,2-2s-0.9-2-2-2s-2,0.9-2,2S18.9,14,20,14z M36,30c1.1,0,2-0.9,2-2s-0.9-2-2-2s-2,0.9-2,2S34.9,30,36,30z M36,22
			c1.1,0,2-0.9,2-2s-0.9-2-2-2s-2,0.9-2,2S34.9,22,36,22z M36,14c1.1,0,2-0.9,2-2s-0.9-2-2-2s-2,0.9-2,2S34.9,14,36,14z M28,41
			c-0.6,0-1,0.4-1,1s0.4,1,1,1s1-0.4,1-1S28.6,41,28,41z M5,10.5l7.6,7.6C12.4,18.1,12.2,18,12,18c-1.1,0-2,0.9-2,2s0.9,2,2,2
			s2-0.9,2-2c0-0.2-0.1-0.4-0.1-0.6l5.6,5.6c-1.4,0.2-2.5,1.5-2.5,3c0,1.7,1.3,3,3,3c1.5,0,2.7-1.1,2.9-2.5l5.6,5.6
			C28.4,34.1,28.2,34,28,34c-1.1,0-2,0.9-2,2s0.9,2,2,2s2-0.9,2-2c0-0.2-0.1-0.4-0.1-0.6l7.6,7.6l2.6-2.5L7.5,8L5,10.5z M20,34
			c-1.1,0-2,0.9-2,2s0.9,2,2,2s2-0.9,2-2S21.1,34,20,34z M42,27c-0.6,0-1,0.4-1,1s0.4,1,1,1s1-0.4,1-1S42.6,27,42,27z M12,26
			c-1.1,0-2,0.9-2,2s0.9,2,2,2s2-0.9,2-2S13.1,26,12,26z M6,19c-0.6,0-1,0.4-1,1s0.4,1,1,1s1-0.4,1-1S6.6,19,6,19z M20,41
			c-0.6,0-1,0.4-1,1s0.4,1,1,1s1-0.4,1-1S20.6,41,20,41z M12,34c-1.1,0-2,0.9-2,2s0.9,2,2,2s2-0.9,2-2S13.1,34,12,34z M6,27
			c-0.6,0-1,0.4-1,1s0.4,1,1,1s1-0.4,1-1S6.6,27,6,27z"/>
	</g>
</g>
<g id="Grid" display="none">
	<g display="inline">
		<line fill="none" stroke="#00E5FF" stroke-width="0.1" stroke-miterlimit="10" x1="42" y1="-2488" x2="42" y2="1064"/>
	</g>
</g>
</svg>
