<?xml version="1.0" encoding="utf-8"?>
<!-- Generator: Adobe Illustrator 17.1.0, SVG Export Plug-In . SVG Version: 6.00 Build 0)  -->
<!DOCTYPE svg PUBLIC "-//W3C//DTD SVG 1.1//EN" "http://www.w3.org/Graphics/SVG/1.1/DTD/svg11.dtd">
<svg version="1.1" xmlns="http://www.w3.org/2000/svg" xmlns:xlink="http://www.w3.org/1999/xlink" x="0px" y="0px" width="48px"
	 height="48px" viewBox="0 0 48 48" enable-background="new 0 0 48 48" xml:space="preserve">
<g id="Header">
	<g>
		<rect x="-838" y="-568" fill="none" width="1400" height="3600"/>
	</g>
</g>
<g id="Label">
</g>
<g id="Icon">
	<g>
		<rect x="0" fill="none" width="48" height="48"/>
		<g>
			<path d="M18.8,21l9.5-16.5C26.9,4.2,25.5,4,24,4c-4.8,0-9.2,1.7-12.6,4.5l7.3,12.7L18.8,21z M43.1,18c-1.8-5.8-6.3-10.5-12-12.7
				L23.8,18H43.1z M43.6,20h-15l0.6,1l9.5,16.5C42,33.9,44,29.2,44,24C44,22.6,43.9,21.3,43.6,20z M17.1,24L9.3,10.5
				C6,14.1,4,18.8,4,24c0,1.4,0.1,2.7,0.4,4h15L17.1,24z M4.9,30c1.8,5.8,6.3,10.5,12,12.7L24.2,30H4.9z M27.5,30l-7.8,13.5
				c1.4,0.3,2.8,0.5,4.3,0.5c4.8,0,9.2-1.7,12.6-4.5l-7.3-12.7L27.5,30z"/>
		</g>
	</g>
</g>
<g id="Grid" display="none">
	<g display="inline">
		<line fill="none" stroke="#00E5FF" stroke-width="0.1" stroke-miterlimit="10" x1="42" y1="-568" x2="42" y2="2984"/>
	</g>
</g>
</svg>
