<?xml version="1.0" encoding="utf-8"?>
<!-- Generator: Adobe Illustrator 18.0.0, SVG Export Plug-In . SVG Version: 6.00 Build 0)  -->
<!DOCTYPE svg PUBLIC "-//W3C//DTD SVG 1.1//EN" "http://www.w3.org/Graphics/SVG/1.1/DTD/svg11.dtd">
<svg version="1.1" xmlns="http://www.w3.org/2000/svg" xmlns:xlink="http://www.w3.org/1999/xlink" x="0px" y="0px" width="48px"
	 height="48px" viewBox="0 0 48 48" enable-background="new 0 0 48 48" xml:space="preserve">
<g id="Header">
	<g>
		<rect x="-838" y="-1464" fill="none" width="1400" height="3600"/>
	</g>
</g>
<g id="Label">
</g>
<g id="Icon">
	<g>
		<rect x="0" y="0" fill="none" width="48" height="48"/>
		<g>
			<polygon points="32,16 28,16 28,22 22,22 22,26 28,26 28,32 32,32 32,26 38,26 38,22 32,22 			"/>
			<path d="M4,24c0-5.6,3.3-10.4,8-12.6V7C5,9.5,0,16.2,0,24s5,14.5,12,17v-4.3C7.3,34.4,4,29.6,4,24z"/>
			<path d="M30,6c-9.9,0-18,8.1-18,18s8.1,18,18,18s18-8.1,18-18S39.9,6,30,6z M30,38c-7.7,0-14-6.3-14-14c0-7.7,6.3-14,14-14
				s14,6.3,14,14C44,31.7,37.7,38,30,38z"/>
		</g>
	</g>
</g>
<g id="Grid" display="none">
	<g display="inline">
		<line fill="none" stroke="#00E5FF" stroke-width="0.1" stroke-miterlimit="10" x1="42" y1="-1464" x2="42" y2="2088"/>
	</g>
</g>
</svg>
