<?xml version="1.0" encoding="utf-8"?>
<!-- Generator: Adobe Illustrator 17.1.0, SVG Export Plug-In . SVG Version: 6.00 Build 0)  -->
<!DOCTYPE svg PUBLIC "-//W3C//DTD SVG 1.1//EN" "http://www.w3.org/Graphics/SVG/1.1/DTD/svg11.dtd">
<svg version="1.1" xmlns="http://www.w3.org/2000/svg" xmlns:xlink="http://www.w3.org/1999/xlink" x="0px" y="0px" width="48px"
	 height="48px" viewBox="0 0 48 48" enable-background="new 0 0 48 48" xml:space="preserve">
<g id="Header">
	<g>
		<rect x="-838" y="-824" fill="none" width="1400" height="3600"/>
	</g>
</g>
<g id="Label">
</g>
<g id="Icon">
	<g>
		<rect x="0" fill="none" width="48" height="48"/>
		<path d="M28,10c0-2.2-1.8-4-4-4h-2V4c0-1.1-0.9-2-2-2h-8c-1.1,0-2,0.9-2,2v2H8c-2.2,0-4,1.8-4,4v30c0,2.2,1.8,4,4,4h16
			c2.2,0,4-1.8,4-4h16V10H28z M24,36h-4v-4h4V36z M24,18h-4v-4h4V18z M32,36h-4v-4h4V36z M32,18h-4v-4h4V18z M40,36h-4v-4h4V36z
			 M40,18h-4v-4h4V18z"/>
	</g>
</g>
<g id="Grid" display="none">
	<g display="inline">
		<line fill="none" stroke="#00E5FF" stroke-width="0.1" stroke-miterlimit="10" x1="42" y1="-824" x2="42" y2="2728"/>
	</g>
</g>
</svg>
