<?xml version="1.0" encoding="utf-8"?>
<!-- Generator: Adobe Illustrator 18.0.0, SVG Export Plug-In . SVG Version: 6.00 Build 0)  -->
<!DOCTYPE svg PUBLIC "-//W3C//DTD SVG 1.1//EN" "http://www.w3.org/Graphics/SVG/1.1/DTD/svg11.dtd">
<svg version="1.1" xmlns="http://www.w3.org/2000/svg" xmlns:xlink="http://www.w3.org/1999/xlink" x="0px" y="0px" width="48px"
	 height="48px" viewBox="0 0 48 48" enable-background="new 0 0 48 48" xml:space="preserve">
<g id="Header">
	<g>
		<rect x="-838" y="-2104" fill="none" width="1400" height="3600"/>
	</g>
</g>
<g id="Label">
</g>
<g id="Icon">
	<g>
		<rect y="0" fill="none" width="48" height="48"/>
		<rect y="0" fill="none" width="48" height="48"/>
		<path d="M30.1,32.6l5.7-6.1c0.8-0.8,1.4-1.6,2.1-2.4c0.6-0.8,1.2-1.6,1.6-2.3c0.5-0.8,0.8-1.6,1.1-2.3c0.3-0.8,0.4-1.6,0.4-2.4
			c0-1.1-0.2-2-0.5-2.9s-0.9-1.6-1.6-2.2c-0.7-0.6-1.5-1.1-2.5-1.4c-1-0.3-2.1-0.5-3.4-0.5c-1.4,0-2.6,0.2-3.7,0.6
			c-1.1,0.4-2,1-2.7,1.8c-0.7,0.7-1.3,1.6-1.7,2.6c-0.4,0.9-0.5,1.9-0.6,3h4.3c0-0.6,0.1-1.2,0.3-1.7c0.2-0.6,0.5-1.1,0.8-1.5
			c0.4-0.4,0.8-0.7,1.4-1c0.5-0.2,1.2-0.4,1.9-0.4c0.6,0,1.2,0.1,1.6,0.3c0.5,0.2,0.9,0.5,1.2,0.9c0.3,0.4,0.6,0.8,0.7,1.3
			c0.2,0.5,0.3,1,0.3,1.6c0,0.4-0.1,0.9-0.2,1.3c-0.1,0.4-0.3,0.9-0.6,1.4c-0.3,0.5-0.6,1.1-1.1,1.7c-0.5,0.6-1,1.3-1.8,2.1
			l-8.3,9.1V36H42v-3.4H30.1z M4,22v4h16v-4H4z"/>
	</g>
</g>
<g id="Grid" display="none">
	<g display="inline">
		<line fill="none" stroke="#00E5FF" stroke-width="0.1" stroke-miterlimit="10" x1="42" y1="-2104" x2="42" y2="1448"/>
	</g>
</g>
</svg>
