<?xml version="1.0" encoding="utf-8"?>
<!-- Generator: Adobe Illustrator 18.0.0, SVG Export Plug-In . SVG Version: 6.00 Build 0)  -->
<!DOCTYPE svg PUBLIC "-//W3C//DTD SVG 1.1//EN" "http://www.w3.org/Graphics/SVG/1.1/DTD/svg11.dtd">
<svg version="1.1" xmlns="http://www.w3.org/2000/svg" xmlns:xlink="http://www.w3.org/1999/xlink" x="0px" y="0px" width="48px"
	 height="48px" viewBox="0 0 48 48" enable-background="new 0 0 48 48" xml:space="preserve">
<g id="Header">
	<g>
		<rect x="-838" y="-2488" fill="none" width="1400" height="3600"/>
	</g>
</g>
<g id="Label">
</g>
<g id="Icon">
	<g>
		<g>
			<rect y="0" fill="none" width="48" height="48"/>
			<rect y="0" fill="none" width="48" height="48"/>
		</g>
		<g>
			<rect y="0" fill="none" width="48" height="48"/>
			<rect y="0" fill="none" width="48" height="48"/>
		</g>
		<g>
			<path d="M32.3,25c0,2-0.2,3.7-0.6,5.1c-0.4,1.4-1,2.5-1.7,3.4c-0.7,0.9-1.6,1.5-2.6,1.9S25.3,36,24,36c-1.2,0-2.4-0.2-3.4-0.6
				c-1-0.4-1.9-1-2.6-1.9c-0.7-0.9-1.3-2-1.7-3.4c-0.4-1.4-0.6-3.1-0.6-5.1v-4.1c0-2,0.2-3.7,0.6-5.1c0.4-1.4,1-2.5,1.7-3.4
				c0.7-0.9,1.6-1.5,2.6-1.9c1-0.4,2.1-0.6,3.4-0.6c1.3,0,2.4,0.2,3.4,0.6s1.9,1,2.6,1.9c0.7,0.9,1.3,2,1.7,3.4
				c0.4,1.4,0.6,3.1,0.6,5.1V25z M28.1,20.3c0-1.3-0.1-2.4-0.3-3.2c-0.2-0.9-0.4-1.6-0.8-2.1c-0.3-0.5-0.8-0.9-1.3-1.2
				c-0.5-0.2-1.1-0.4-1.7-0.4c-0.6,0-1.2,0.1-1.7,0.4c-0.5,0.2-0.9,0.6-1.3,1.2c-0.3,0.5-0.6,1.2-0.8,2.1c-0.2,0.9-0.3,2-0.3,3.2
				v5.3c0,1.3,0.1,2.4,0.3,3.2c0.2,0.9,0.5,1.6,0.8,2.2c0.3,0.6,0.8,1,1.3,1.2c0.5,0.3,1.1,0.4,1.7,0.4c0.7,0,1.2-0.1,1.7-0.4
				s0.9-0.7,1.3-1.2c0.3-0.6,0.6-1.3,0.8-2.2s0.3-2,0.3-3.2V20.3z"/>
		</g>
	</g>
</g>
<g id="Grid" display="none">
	<g display="inline">
		<line fill="none" stroke="#00E5FF" stroke-width="0.1" stroke-miterlimit="10" x1="42" y1="-2488" x2="42" y2="1064"/>
	</g>
</g>
</svg>
