<?xml version="1.0" encoding="utf-8"?>
<!-- Generator: Adobe Illustrator 18.0.0, SVG Export Plug-In . SVG Version: 6.00 Build 0)  -->
<!DOCTYPE svg PUBLIC "-//W3C//DTD SVG 1.1//EN" "http://www.w3.org/Graphics/SVG/1.1/DTD/svg11.dtd">
<svg version="1.1" xmlns="http://www.w3.org/2000/svg" xmlns:xlink="http://www.w3.org/1999/xlink" x="0px" y="0px" width="48px"
	 height="48px" viewBox="0 0 48 48" enable-background="new 0 0 48 48" xml:space="preserve">
<g id="Header">
	<g>
		<rect x="-838" y="-2104" fill="none" width="1400" height="3600"/>
	</g>
</g>
<g id="Label">
</g>
<g id="Icon">
	<g>
		<rect x="0" y="0" fill="none" width="48" height="48"/>
		<path d="M37.4,24.8c-0.6-0.3-1.1-0.6-1.7-0.8c0.6-0.2,1.2-0.5,1.7-0.8c3.8-2.2,6-6.2,6-10.4c-3.6-2.1-8.1-2.2-12,0
			c-0.6,0.3-1.1,0.7-1.6,1.1c0.1-0.6,0.2-1.2,0.2-1.9c0-4.4-2.4-8.3-6-10.4c-3.6,2.1-6,5.9-6,10.4c0,0.6,0.1,1.3,0.2,1.9
			c-0.5-0.4-1-0.8-1.6-1.1c-3.8-2.2-8.4-2.1-12,0c0,4.1,2.1,8.2,6,10.4c0.6,0.3,1.1,0.6,1.7,0.8c-0.6,0.2-1.2,0.5-1.7,0.8
			c-3.8,2.2-6,6.2-6,10.4c3.6,2.1,8.1,2.2,12,0c0.6-0.3,1.1-0.7,1.6-1.1C18.1,34.7,18,35.4,18,36c0,4.4,2.4,8.3,6,10.4
			c3.6-2.1,6-5.9,6-10.4c0-0.6-0.1-1.3-0.2-1.9c0.5,0.4,1,0.8,1.6,1.1c3.8,2.2,8.4,2.1,12,0C43.4,31,41.2,27,37.4,24.8z M24,32
			c-4.4,0-8-3.6-8-8s3.6-8,8-8c4.4,0,8,3.6,8,8S28.4,32,24,32z"/>
	</g>
</g>
<g id="Grid" display="none">
	<g display="inline">
		<line fill="none" stroke="#00E5FF" stroke-width="0.1" stroke-miterlimit="10" x1="42" y1="-2104" x2="42" y2="1448"/>
	</g>
</g>
</svg>
