<?xml version="1.0" encoding="utf-8"?>
<!-- Generator: Adobe Illustrator 18.0.0, SVG Export Plug-In . SVG Version: 6.00 Build 0)  -->
<!DOCTYPE svg PUBLIC "-//W3C//DTD SVG 1.1//EN" "http://www.w3.org/Graphics/SVG/1.1/DTD/svg11.dtd">
<svg version="1.1" xmlns="http://www.w3.org/2000/svg" xmlns:xlink="http://www.w3.org/1999/xlink" x="0px" y="0px" width="48px"
	 height="48px" viewBox="0 0 48 48" enable-background="new 0 0 48 48" xml:space="preserve">
<g id="Header">
	<g>
		<rect x="-838" y="-1976" fill="none" width="1400" height="3600"/>
	</g>
</g>
<g id="Label">
</g>
<g id="Icon">
	<g>
		<rect x="0" y="0" fill="none" width="48" height="48"/>
		<path d="M22,8.1v-4c-4,0.4-7.7,2-10.6,4.4l2.9,2.9C16.4,9.7,19.1,8.5,22,8.1z M36.6,8.5c-3-2.4-6.6-4-10.6-4.4v4
			c2.9,0.4,5.6,1.5,7.8,3.2L36.6,8.5z M39.9,22h4c-0.4-4-2-7.7-4.4-10.6l-2.9,2.9C38.3,16.4,39.5,19.1,39.9,22z M11.4,14.2l-2.9-2.9
			c-2.4,3-4,6.6-4.4,10.6h4C8.5,19.1,9.7,16.4,11.4,14.2z M8.1,26h-4c0.4,4,2,7.7,4.4,10.6l2.9-2.9C9.7,31.6,8.5,28.9,8.1,26z
			 M30,24c0-3.3-2.7-6-6-6s-6,2.7-6,6s2.7,6,6,6S30,27.3,30,24z M36.6,33.8l2.9,2.9c2.4-3,4-6.6,4.4-10.6h-4
			C39.5,28.9,38.3,31.6,36.6,33.8z M26,39.9v4c4-0.4,7.7-2,10.6-4.4l-2.9-2.9C31.6,38.3,28.9,39.5,26,39.9z M11.4,39.5
			c3,2.4,6.6,4,10.6,4.4v-4c-2.9-0.4-5.6-1.5-7.8-3.2L11.4,39.5z"/>
	</g>
</g>
<g id="Grid" display="none">
	<g display="inline">
		<line fill="none" stroke="#00E5FF" stroke-width="0.1" stroke-miterlimit="10" x1="42" y1="-1976" x2="42" y2="1576"/>
	</g>
</g>
</svg>
