<?xml version="1.0" encoding="utf-8"?>
<!-- Generator: Adobe Illustrator 18.0.0, SVG Export Plug-In . SVG Version: 6.00 Build 0)  -->
<!DOCTYPE svg PUBLIC "-//W3C//DTD SVG 1.1//EN" "http://www.w3.org/Graphics/SVG/1.1/DTD/svg11.dtd">
<svg version="1.1" xmlns="http://www.w3.org/2000/svg" xmlns:xlink="http://www.w3.org/1999/xlink" x="0px" y="0px" width="48px"
	 height="48px" viewBox="0 0 48 48" enable-background="new 0 0 48 48" xml:space="preserve">
<g id="Header">
	<g>
		<rect x="-838" y="-1336" fill="none" width="1400" height="3600"/>
	</g>
</g>
<g id="Label">
</g>
<g id="Icon">
	<g>
		<rect x="0" y="0" fill="none" width="48" height="48"/>
		<path d="M38.7,20.1C37.3,13.2,31.3,8,24,8c-5.8,0-10.8,3.3-13.3,8.1C4.7,16.7,0,21.8,0,28c0,6.6,5.4,12,12,12h26
			c5.5,0,10-4.5,10-10C48,24.7,43.9,20.4,38.7,20.1z M38,36H12c-4.4,0-8-3.6-8-8s3.6-8,8-8c4.4,0,8,3.6,8,8h4
			c0-5.5-3.7-10.2-8.8-11.6c2-2.7,5.2-4.4,8.8-4.4c6.1,0,11,4.9,11,11v1h3c3.3,0,6,2.7,6,6S41.3,36,38,36z"/>
	</g>
</g>
<g id="Grid" display="none">
	<g display="inline">
		<line fill="none" stroke="#00E5FF" stroke-width="0.1" stroke-miterlimit="10" x1="42" y1="-1336" x2="42" y2="2216"/>
	</g>
</g>
</svg>
