<?xml version="1.0" encoding="utf-8"?>
<!-- Generator: Adobe Illustrator 18.0.0, SVG Export Plug-In . SVG Version: 6.00 Build 0)  -->
<!DOCTYPE svg PUBLIC "-//W3C//DTD SVG 1.1//EN" "http://www.w3.org/Graphics/SVG/1.1/DTD/svg11.dtd">
<svg version="1.1" xmlns="http://www.w3.org/2000/svg" xmlns:xlink="http://www.w3.org/1999/xlink" x="0px" y="0px" width="48px"
	 height="48px" viewBox="0 0 48 48" enable-background="new 0 0 48 48" xml:space="preserve">
<g id="Header">
	<g>
		<rect x="-838" y="-1848" fill="none" width="1400" height="3600"/>
	</g>
</g>
<g id="Label">
</g>
<g id="Icon">
	<g>
		<rect x="0" y="0" fill="none" width="48" height="48"/>
		<path fill="#231F20" d="M26,32.9L38,14L24,0L10,14l12,18.9v0.2c-1.2-0.7-2.6-1.1-4-1.1c-4.4,0-8,3.6-8,8s3.6,8,8,8
			c3.7,0,6.8-2.5,7.7-5.9l5.9,5.9l2.8-2.8L26,36.7V32.9z M22,40c0,2.2-1.8,4-4,4s-4-1.8-4-4s1.8-4,4-4c1.1,0,2.1,0.4,2.8,1.2
			l1.2,1.2V40z"/>
	</g>
</g>
<g id="Grid" display="none">
	<g display="inline">
		<line fill="none" stroke="#00E5FF" stroke-width="0.1" stroke-miterlimit="10" x1="42" y1="-1848" x2="42" y2="1704"/>
	</g>
</g>
</svg>
