<?xml version="1.0" encoding="utf-8"?>
<!-- Generator: Adobe Illustrator 18.0.0, SVG Export Plug-In . SVG Version: 6.00 Build 0)  -->
<!DOCTYPE svg PUBLIC "-//W3C//DTD SVG 1.1//EN" "http://www.w3.org/Graphics/SVG/1.1/DTD/svg11.dtd">
<svg version="1.1" xmlns="http://www.w3.org/2000/svg" xmlns:xlink="http://www.w3.org/1999/xlink" x="0px" y="0px" width="48px"
	 height="48px" viewBox="0 0 48 48" enable-background="new 0 0 48 48" xml:space="preserve">
<g id="Header">
	<g>
		<rect x="-838" y="-2232" fill="none" width="1400" height="3600"/>
	</g>
</g>
<g id="Label">
</g>
<g id="Icon">
	<g>
		<rect x="0" y="0" fill="none" width="48" height="48"/>
		<path d="M14,22H2v4h12V22z M18.3,15.5l-4.2-4.2l-2.8,2.8l4.2,4.2L18.3,15.5z M26,2h-4v12h4V2z M36.7,14.1l-2.8-2.8l-4.2,4.2
			l2.8,2.8L36.7,14.1z M34,22v4h12v-4H34z M24,18c-3.3,0-6,2.7-6,6s2.7,6,6,6s6-2.7,6-6S27.3,18,24,18z M29.7,32.5l4.2,4.2l2.8-2.8
			l-4.2-4.2L29.7,32.5z M11.3,33.9l2.8,2.8l4.2-4.2l-2.8-2.8L11.3,33.9z M22,46h4V34h-4V46z"/>
	</g>
</g>
<g id="Grid" display="none">
	<g display="inline">
		<line fill="none" stroke="#00E5FF" stroke-width="0.1" stroke-miterlimit="10" x1="42" y1="-2232" x2="42" y2="1320"/>
	</g>
</g>
</svg>
