<?xml version="1.0" encoding="utf-8"?>
<!-- Generator: Adobe Illustrator 18.0.0, SVG Export Plug-In . SVG Version: 6.00 Build 0)  -->
<!DOCTYPE svg PUBLIC "-//W3C//DTD SVG 1.1//EN" "http://www.w3.org/Graphics/SVG/1.1/DTD/svg11.dtd">
<svg version="1.1" xmlns="http://www.w3.org/2000/svg" xmlns:xlink="http://www.w3.org/1999/xlink" x="0px" y="0px" width="48px"
	 height="48px" viewBox="0 0 48 48" enable-background="new 0 0 48 48" xml:space="preserve">
<g id="Header">
	<g>
		<rect x="-838" y="-2616" fill="none" width="1400" height="3600"/>
	</g>
</g>
<g id="Label">
</g>
<g id="Icon">
	<g>
		<rect x="0" y="0" fill="none" width="48" height="48"/>
		<path d="M20,24c-2.2,0-4,1.8-4,4c0,2.2,1.8,4,4,4s4-1.8,4-4C24,25.8,22.2,24,20,24z M12,16c-2.2,0-4,1.8-4,4c0,2.2,1.8,4,4,4
			s4-1.8,4-4C16,17.8,14.2,16,12,16z M12,32c-2.2,0-4,1.8-4,4c0,2.2,1.8,4,4,4s4-1.8,4-4C16,33.8,14.2,32,12,32z M36,16
			c2.2,0,4-1.8,4-4c0-2.2-1.8-4-4-4s-4,1.8-4,4C32,14.2,33.8,16,36,16z M28,32c-2.2,0-4,1.8-4,4c0,2.2,1.8,4,4,4s4-1.8,4-4
			C32,33.8,30.2,32,28,32z M36,24c-2.2,0-4,1.8-4,4c0,2.2,1.8,4,4,4s4-1.8,4-4C40,25.8,38.2,24,36,24z M28,16c-2.2,0-4,1.8-4,4
			c0,2.2,1.8,4,4,4s4-1.8,4-4C32,17.8,30.2,16,28,16z M20,8c-2.2,0-4,1.8-4,4c0,2.2,1.8,4,4,4s4-1.8,4-4C24,9.8,22.2,8,20,8z"/>
	</g>
</g>
<g id="Grid" display="none">
	<g display="inline">
		<line fill="none" stroke="#00E5FF" stroke-width="0.1" stroke-miterlimit="10" x1="42" y1="-2616" x2="42" y2="936"/>
	</g>
</g>
</svg>
