<?xml version="1.0" encoding="utf-8"?>
<!-- Generator: Adobe Illustrator 18.0.0, SVG Export Plug-In . SVG Version: 6.00 Build 0)  -->
<!DOCTYPE svg PUBLIC "-//W3C//DTD SVG 1.1//EN" "http://www.w3.org/Graphics/SVG/1.1/DTD/svg11.dtd">
<svg version="1.1" xmlns="http://www.w3.org/2000/svg" xmlns:xlink="http://www.w3.org/1999/xlink" x="0px" y="0px" width="48px"
	 height="48px" viewBox="0 0 48 48" enable-background="new 0 0 48 48" xml:space="preserve">
<g id="Header">
	<g>
		<rect x="-838" y="-2744" fill="none" width="1400" height="3600"/>
	</g>
</g>
<g id="Label">
</g>
<g id="Icon">
	<g>
		<g>
			<rect fill="none" width="48" height="48"/>
		</g>
		<g>
			<g>
				<path d="M40,4H8C5.8,4,4,5.8,4,8v32c0,2.2,1.8,4,4,4h32c2.2,0,4-1.8,4-4V8C44,5.8,42.2,4,40,4z M16,40l-8,0v-8h8V40z M16,28H8
					v-8h8V28z M16,16H8V8h8V16z M28,40l-8,0v-8h8V40z M28,28h-8v-8h8V28z M28,16h-8V8h8V16z M40,40l-8,0v-8h8V40z M40,28h-8v-8h8V28
					z M40,16h-8V8h8V16z"/>
			</g>
		</g>
	</g>
</g>
<g id="Grid" display="none">
	<g display="inline">
		<line fill="none" stroke="#00E5FF" stroke-width="0.1" stroke-miterlimit="10" x1="42" y1="-2744" x2="42" y2="808"/>
	</g>
</g>
</svg>
