<?xml version="1.0" encoding="utf-8"?>
<!-- Generator: Adobe Illustrator 18.0.0, SVG Export Plug-In . SVG Version: 6.00 Build 0)  -->
<!DOCTYPE svg PUBLIC "-//W3C//DTD SVG 1.1//EN" "http://www.w3.org/Graphics/SVG/1.1/DTD/svg11.dtd">
<svg version="1.1" xmlns="http://www.w3.org/2000/svg" xmlns:xlink="http://www.w3.org/1999/xlink" x="0px" y="0px" width="48px"
	 height="48px" viewBox="0 0 48 48" enable-background="new 0 0 48 48" xml:space="preserve">
<g id="Header">
	<g>
		<rect x="-838" y="-2488" fill="none" width="1400" height="3600"/>
	</g>
</g>
<g id="Label">
</g>
<g id="Icon">
	<g>
		<g>
			<defs>
				<rect id="SVGID_6_" x="0" y="0" width="48" height="48"/>
			</defs>
			<clipPath id="SVGID_2_">
				<use xlink:href="#SVGID_6_"  overflow="visible"/>
			</clipPath>
		</g>
		<g>
			<rect x="22" y="18" width="4" height="4"/>
			<rect x="18" y="22" width="4" height="4"/>
			<rect x="26" y="22" width="4" height="4"/>
			<rect x="30" y="18" width="4" height="4"/>
			<rect x="14" y="18" width="4" height="4"/>
			<path d="M38,6H10c-2.2,0-4,1.8-4,4v28c0,2.2,1.8,4,4,4h28c2.2,0,4-1.8,4-4V10C42,7.8,40.2,6,38,6z M18,36h-4v-4h4V36z M26,36h-4
				v-4h4V36z M34,36h-4v-4h4V36z M38,22h-4v4h4v4h-4v-4h-4v4h-4v-4h-4v4h-4v-4h-4v4h-4v-4h4v-4h-4V10h28V22z"/>
		</g>
	</g>
</g>
<g id="Grid" display="none">
	<g display="inline">
		<line fill="none" stroke="#00E5FF" stroke-width="0.1" stroke-miterlimit="10" x1="42" y1="-2488" x2="42" y2="1064"/>
	</g>
</g>
</svg>
