<?xml version="1.0" encoding="utf-8"?>
<!-- Generator: Adobe Illustrator 18.0.0, SVG Export Plug-In . SVG Version: 6.00 Build 0)  -->
<!DOCTYPE svg PUBLIC "-//W3C//DTD SVG 1.1//EN" "http://www.w3.org/Graphics/SVG/1.1/DTD/svg11.dtd">
<svg version="1.1" xmlns="http://www.w3.org/2000/svg" xmlns:xlink="http://www.w3.org/1999/xlink" x="0px" y="0px" width="48px"
	 height="48px" viewBox="0 0 48 48" enable-background="new 0 0 48 48" xml:space="preserve">
<g id="Header">
	<g>
		<rect x="-838" y="-2616" fill="none" width="1400" height="3600"/>
	</g>
</g>
<g id="Label">
</g>
<g id="Icon">
	<g>
		<g>
			<rect x="0" y="0" fill="none" width="48" height="48"/>
		</g>
		<g>
			<path d="M16,8v2.9l4,4V8h8v8h-6.9l4,4H28v2.9l4,4V20h8v8h-6.9l4,4H40v2.9l4,4V8c0-2.2-1.8-4-4-4H9.1l4,4H16z M32,8h8v8h-8V8z
				 M2.5,2.5L0,5.1l4,4V40c0,2.2,1.8,4,4,4h30.9l4,4l2.5-2.5L2.5,2.5z M20,25.1l2.9,2.9H20V25.1z M8,13.1l2.9,2.9H8V13.1z M16,40
				l-8,0v-8h8V40z M16,28H8v-8h6.9l1.1,1.1V28z M28,40l-8,0v-8h6.9l1.1,1.1V40z M32,40v-2.9l2.9,2.9L32,40z"/>
		</g>
	</g>
</g>
<g id="Grid" display="none">
	<g display="inline">
		<line fill="none" stroke="#00E5FF" stroke-width="0.1" stroke-miterlimit="10" x1="42" y1="-2616" x2="42" y2="936"/>
	</g>
</g>
</svg>
