<?xml version="1.0" encoding="utf-8"?>
<!-- Generator: Adobe Illustrator 18.0.0, SVG Export Plug-In . SVG Version: 6.00 Build 0)  -->
<!DOCTYPE svg PUBLIC "-//W3C//DTD SVG 1.1//EN" "http://www.w3.org/Graphics/SVG/1.1/DTD/svg11.dtd">
<svg version="1.1" xmlns="http://www.w3.org/2000/svg" xmlns:xlink="http://www.w3.org/1999/xlink" x="0px" y="0px" width="48px"
	 height="48px" viewBox="0 0 48 48" enable-background="new 0 0 48 48" xml:space="preserve">
<g id="Header">
	<g>
		<rect x="-838" y="-3128" fill="none" width="1400" height="3600"/>
	</g>
</g>
<g id="Label">
</g>
<g id="Icon">
	<g>
		<rect fill="none" width="48" height="48"/>
		<path d="M19,10h3v4.9l4,4V10h7c1.7,0,3,1.3,3,3v6c0,1.7-1.3,3-3,3h-3.9l15,15c2.4-3.8,3.9-8.2,3.9-13C48,10.7,37.3,0,24,0
			c-4.8,0-9.3,1.4-13,3.9l8,8V10z M19,29h-4v2h4V29z M33,13h-4v6h4V13z M1,4.1l4.6,4.6C2.1,12.8,0,18.2,0,24c0,13.3,10.7,24,24,24
			c5.8,0,11.2-2.1,15.4-5.6l4.6,4.6l2.5-2.5L3.5,1.5L1,4.1z M26,31h1.9l5.1,5.1V38h-3v-4h-4V31z M12,15.1l3,3V22h-3V15.1z M12,26h7
			c1.7,0,3,1.3,3,3v2c0,1.2-0.8,2.3-1.8,2.8L22,38h-3l-1.7-4H15v4h-3V26z"/>
	</g>
</g>
<g id="Grid" display="none">
	<g display="inline">
		<line fill="none" stroke="#00E5FF" stroke-width="0.1" stroke-miterlimit="10" x1="42" y1="-3128" x2="42" y2="424"/>
	</g>
</g>
</svg>
