<?xml version="1.0" encoding="utf-8"?>
<!-- Generator: Adobe Illustrator 18.0.0, SVG Export Plug-In . SVG Version: 6.00 Build 0)  -->
<!DOCTYPE svg PUBLIC "-//W3C//DTD SVG 1.1//EN" "http://www.w3.org/Graphics/SVG/1.1/DTD/svg11.dtd">
<svg version="1.1" xmlns="http://www.w3.org/2000/svg" xmlns:xlink="http://www.w3.org/1999/xlink" x="0px" y="0px" width="48px"
	 height="48px" viewBox="0 0 48 48" enable-background="new 0 0 48 48" xml:space="preserve">
<g id="Header">
	<g>
		<rect x="-838" y="-3256" fill="none" width="1400" height="3600"/>
	</g>
</g>
<g id="Label">
</g>
<g id="Icon">
	<g>
		<path d="M24,0C10.7,0,0,10.7,0,24c0,13.3,10.7,24,24,24c13.3,0,24-10.7,24-24C48,10.7,37.3,0,24,0z M22,31c0,1.2-0.7,2.3-1.8,2.8
			L22,38h-3l-1.7-4H15v4h-3V26h7c1.7,0,3,1.3,3,3V31z M22,22h-3v-5h-4v5h-3V10h3v4h4v-4h3V22z M26,10h7c1.7,0,3,1.3,3,3v6
			c0,1.7-1.3,3-3,3h-7V10z M37,34h-4v4h-3v-4h-4v-3h4v-4h3v4h4V34z M15,31h4v-2h-4V31z M33,13h-4v6h4V13z"/>
	</g>
</g>
<g id="Grid" display="none">
	<g display="inline">
		<line fill="none" stroke="#00E5FF" stroke-width="0.1" stroke-miterlimit="10" x1="42" y1="-3256" x2="42" y2="296"/>
	</g>
</g>
</svg>
