<?xml version="1.0" encoding="utf-8"?>
<!-- Generator: Adobe Illustrator 18.0.0, SVG Export Plug-In . SVG Version: 6.00 Build 0)  -->
<!DOCTYPE svg PUBLIC "-//W3C//DTD SVG 1.1//EN" "http://www.w3.org/Graphics/SVG/1.1/DTD/svg11.dtd">
<svg version="1.1" xmlns="http://www.w3.org/2000/svg" xmlns:xlink="http://www.w3.org/1999/xlink" x="0px" y="0px" width="48px"
	 height="48px" viewBox="0 0 48 48" enable-background="new 0 0 48 48" xml:space="preserve">
<g id="Header">
	<g>
		<rect x="-838" y="-2872" fill="none" width="1400" height="3600"/>
	</g>
</g>
<g id="Label">
</g>
<g id="Icon">
	<g>
		<rect fill="none" width="48" height="48"/>
		<g>
			<rect fill="none" width="48" height="48"/>
		</g>
		<g>
			<path d="M36,34L6.5,4.5L4,7.1l8,8V22H8v-8H4v20h4v-8h4v8h4V19.1l2,2V34h8c1.3,0,2.5-0.7,3.2-1.7L41.9,45l2.5-2.5L36,34z M26,30
				h-4v-4.9l4,4V30z M36,26h2l1.6,6.5l1.5,1.5H44l-2.4-8.3C43,25,44,23.6,44,22v-4c0-2.2-1.8-4-4-4h-8v10.9l4,4V26z M36,18h4v4h-4
				V18z M30,22.9V18c0-2.2-1.8-4-4-4h-4.9L30,22.9z"/>
		</g>
	</g>
</g>
<g id="Grid" display="none">
	<g display="inline">
		<line fill="none" stroke="#00E5FF" stroke-width="0.1" stroke-miterlimit="10" x1="42" y1="-2872" x2="42" y2="680"/>
	</g>
</g>
</svg>
