<?xml version="1.0" encoding="utf-8"?>
<!-- Generator: Adobe Illustrator 18.0.0, SVG Export Plug-In . SVG Version: 6.00 Build 0)  -->
<!DOCTYPE svg PUBLIC "-//W3C//DTD SVG 1.1//EN" "http://www.w3.org/Graphics/SVG/1.1/DTD/svg11.dtd">
<svg version="1.1" xmlns="http://www.w3.org/2000/svg" xmlns:xlink="http://www.w3.org/1999/xlink" x="0px" y="0px" width="48px"
	 height="48px" viewBox="0 0 48 48" enable-background="new 0 0 48 48" xml:space="preserve">
<g id="Header">
	<g>
		<rect x="-838" y="-3000" fill="none" width="1400" height="3600"/>
	</g>
</g>
<g id="Label">
</g>
<g id="Icon">
	<g>
		<rect x="0" y="0" fill="none" width="48" height="48"/>
		<path d="M35.5,24l8-8c0.8-0.8,0.8-2,0-2.8l-8.7-8.7c-0.8-0.8-2-0.8-2.8,0l-8,8l-8-8C15.6,4.2,15.1,4,14.6,4s-1,0.2-1.4,0.6
			l-8.7,8.7c-0.8,0.8-0.8,2,0,2.8l8,8l-8,8c-0.8,0.8-0.8,2,0,2.8l8.7,8.7c0.8,0.8,2,0.8,2.8,0l8-8l8,8c0.4,0.4,0.9,0.6,1.4,0.6
			c0.5,0,1-0.2,1.4-0.6l8.7-8.7c0.8-0.8,0.8-2,0-2.8L35.5,24z M24,18c1.1,0,2,0.9,2,2s-0.9,2-2,2c-1.1,0-2-0.9-2-2S22.9,18,24,18z
			 M14.6,21.9l-7.2-7.2l7.3-7.3l7.2,7.3L14.6,21.9z M20,26c-1.1,0-2-0.9-2-2s0.9-2,2-2c1.1,0,2,0.9,2,2S21.1,26,20,26z M24,30
			c-1.1,0-2-0.9-2-2s0.9-2,2-2c1.1,0,2,0.9,2,2S25.1,30,24,30z M28,22c1.1,0,2,0.9,2,2s-0.9,2-2,2c-1.1,0-2-0.9-2-2S26.9,22,28,22z
			 M33.3,40.7l-7.3-7.2l7.3-7.3l7.2,7.2L33.3,40.7z"/>
	</g>
</g>
<g id="Grid" display="none">
	<g display="inline">
		<line fill="none" stroke="#00E5FF" stroke-width="0.1" stroke-miterlimit="10" x1="42" y1="-3000" x2="42" y2="552"/>
	</g>
</g>
</svg>
