<?xml version="1.0" encoding="utf-8"?>
<!-- Generator: Adobe Illustrator 18.0.0, SVG Export Plug-In . SVG Version: 6.00 Build 0)  -->
<!DOCTYPE svg PUBLIC "-//W3C//DTD SVG 1.1//EN" "http://www.w3.org/Graphics/SVG/1.1/DTD/svg11.dtd">
<svg version="1.1" xmlns="http://www.w3.org/2000/svg" xmlns:xlink="http://www.w3.org/1999/xlink" x="0px" y="0px" width="48px"
	 height="48px" viewBox="0 0 48 48" enable-background="new 0 0 48 48" xml:space="preserve">
<g id="Header">
	<g>
		<rect x="-838" y="-824" fill="none" width="1400" height="3600"/>
	</g>
</g>
<g id="Label">
</g>
<g id="Icon">
	<g>
		<path d="M39.9,42.2c-2.2-5.9-3.3-12.1-3.3-18.2s1.1-12.4,3.3-18.2C40,5.5,40,5.3,40,5.1C40,4.5,39.5,4,38.7,4H9.3
			C8.5,4,8,4.5,8,5.1c0,0.2,0,0.4,0.1,0.6c2.2,5.9,3.3,12.1,3.3,18.2s-1.1,12.4-3.3,18.2C8,42.5,8,42.7,8,42.9C8,43.5,8.5,44,9.3,44
			h29.5c0.8,0,1.3-0.5,1.3-1.1C40,42.7,40,42.5,39.9,42.2z M13.1,40c1.5-5.2,2.3-10.6,2.3-16c0-5.4-0.8-10.8-2.3-16h21.8
			c-1.5,5.2-2.3,10.6-2.3,16c0,5.4,0.8,10.8,2.3,16H13.1z"/>
		<rect y="0" fill="none" width="48" height="48"/>
	</g>
</g>
<g id="Grid" display="none">
	<g display="inline">
		<line fill="none" stroke="#00E5FF" stroke-width="0.1" stroke-miterlimit="10" x1="42" y1="-824" x2="42" y2="2728"/>
	</g>
</g>
</svg>
