<?xml version="1.0" encoding="utf-8"?>
<!-- Generator: Adobe Illustrator 17.1.0, SVG Export Plug-In . SVG Version: 6.00 Build 0)  -->
<!DOCTYPE svg PUBLIC "-//W3C//DTD SVG 1.1//EN" "http://www.w3.org/Graphics/SVG/1.1/DTD/svg11.dtd">
<svg version="1.1" xmlns="http://www.w3.org/2000/svg" xmlns:xlink="http://www.w3.org/1999/xlink" x="0px" y="0px" width="48px"
	 height="48px" viewBox="0 0 48 48" enable-background="new 0 0 48 48" xml:space="preserve">
<g id="Header">
	<g>
		<rect x="-838" y="-2360" fill="none" width="1400" height="3600"/>
	</g>
</g>
<g id="Label">
</g>
<g id="Icon">
	<g>
		<path d="M24,6C14.1,6,6,14.1,6,24s8.1,18,18,18c1.7,0,3-1.3,3-3c0-0.8-0.3-1.5-0.8-2c-0.5-0.5-0.8-1.2-0.8-2c0-1.7,1.3-3,3-3H32
			c5.5,0,10-4.5,10-10C42,13.2,33.9,6,24,6z M13,24c-1.7,0-3-1.3-3-3c0-1.7,1.3-3,3-3c1.7,0,3,1.3,3,3C16,22.7,14.7,24,13,24z
			 M19,16c-1.7,0-3-1.3-3-3s1.3-3,3-3c1.7,0,3,1.3,3,3S20.7,16,19,16z M29,16c-1.7,0-3-1.3-3-3s1.3-3,3-3c1.7,0,3,1.3,3,3
			S30.7,16,29,16z M35,24c-1.7,0-3-1.3-3-3c0-1.7,1.3-3,3-3c1.7,0,3,1.3,3,3C38,22.7,36.7,24,35,24z"/>
		<rect x="0" fill="none" width="48" height="48"/>
	</g>
</g>
<g id="Grid" display="none">
	<g display="inline">
		<line fill="none" stroke="#00E5FF" stroke-width="0.1" stroke-miterlimit="10" x1="42" y1="-2360" x2="42" y2="1192"/>
	</g>
</g>
</svg>
