<?xml version="1.0" encoding="utf-8"?>
<!-- Generator: Adobe Illustrator 18.0.0, SVG Export Plug-In . SVG Version: 6.00 Build 0)  -->
<!DOCTYPE svg PUBLIC "-//W3C//DTD SVG 1.1//EN" "http://www.w3.org/Graphics/SVG/1.1/DTD/svg11.dtd">
<svg version="1.1" xmlns="http://www.w3.org/2000/svg" xmlns:xlink="http://www.w3.org/1999/xlink" x="0px" y="0px" width="48px"
	 height="48px" viewBox="0 0 48 48" enable-background="new 0 0 48 48" xml:space="preserve">
<g id="Header">
	<g>
		<rect x="-838" y="-2744" fill="none" width="1400" height="3600"/>
	</g>
</g>
<g id="Label">
</g>
<g id="Icon">
	<g>
		<g>
			<rect x="0" fill="none" width="48" height="48"/>
		</g>
		<path d="M36,4H12C9.8,4,8,5.8,8,8v32c0,2.2,1.8,4,4,4h24c2.2,0,4-1.8,4-4V8C40,5.8,38.2,4,36,4z M12,8h10v16l-5-3l-5,3V8z M12,38
			l6-7.7l4.3,5.2l6-7.7L36,38H12z"/>
	</g>
</g>
<g id="Grid" display="none">
	<g display="inline">
		<line fill="none" stroke="#00E5FF" stroke-width="0.1" stroke-miterlimit="10" x1="42" y1="-2744" x2="42" y2="808"/>
	</g>
</g>
</svg>
