<?xml version="1.0" encoding="utf-8"?>
<!-- Generator: Adobe Illustrator 18.0.0, SVG Export Plug-In . SVG Version: 6.00 Build 0)  -->
<!DOCTYPE svg PUBLIC "-//W3C//DTD SVG 1.1//EN" "http://www.w3.org/Graphics/SVG/1.1/DTD/svg11.dtd">
<svg version="1.1" xmlns="http://www.w3.org/2000/svg" xmlns:xlink="http://www.w3.org/1999/xlink" x="0px" y="0px" width="48px"
	 height="48px" viewBox="0 0 48 48" enable-background="new 0 0 48 48" xml:space="preserve">
<g id="Header">
	<g>
		<rect x="-838" y="-3000" fill="none" width="1400" height="3600"/>
	</g>
</g>
<g id="Label">
</g>
<g id="Icon">
	<g>
		<g>
			<g>
				<g>
					<rect fill="none" width="48" height="48"/>
				</g>
			</g>
		</g>
		<path fill="#231F20" d="M44.1,15.2C40.7,7.4,33,2,24,2C15,2,7.3,7.4,3.9,15.2C2.6,15.7,1.3,16.3,0,17v14c1.3,0.7,2.6,1.3,3.9,1.8
			C7.3,40.6,15,46,24,46c9,0,16.7-5.4,20.1-13.2c1.3-0.6,2.6-1.2,3.9-1.8V17C46.7,16.3,45.4,15.7,44.1,15.2z M24,5
			c6.6,0,12.5,3.4,15.9,8.6C34.7,11.9,29.4,11,24,11c-5.4,0-10.7,0.9-15.9,2.6C11.5,8.4,17.4,5,24,5z M24,43
			c-6.6,0-12.5-3.4-15.9-8.6C13.3,36.1,18.6,37,24,37c5.4,0,10.7-0.9,15.9-2.6C36.5,39.6,30.6,43,24,43z M45,29.2l-0.6,0.3
			c-2.2,1-4.4,1.8-6.7,2.5L30,23.1L24,30l-8-10L7.2,30.9c-1.2-0.5-2.5-1-3.7-1.5L3,29.2V18.8l0.6-0.3c12.8-6,28-6,40.8,0l0.6,0.3
			V29.2z"/>
	</g>
</g>
<g id="Grid" display="none">
	<g display="inline">
		<line fill="none" stroke="#00E5FF" stroke-width="0.1" stroke-miterlimit="10" x1="42" y1="-3000" x2="42" y2="552"/>
	</g>
</g>
</svg>
