<?xml version="1.0" encoding="utf-8"?>
<!-- Generator: Adobe Illustrator 18.0.0, SVG Export Plug-In . SVG Version: 6.00 Build 0)  -->
<!DOCTYPE svg PUBLIC "-//W3C//DTD SVG 1.1//EN" "http://www.w3.org/Graphics/SVG/1.1/DTD/svg11.dtd">
<svg version="1.1" xmlns="http://www.w3.org/2000/svg" xmlns:xlink="http://www.w3.org/1999/xlink" x="0px" y="0px" width="48px"
	 height="48px" viewBox="0 0 48 48" enable-background="new 0 0 48 48" xml:space="preserve">
<g id="Header">
	<g>
		<rect x="-838" y="-440" fill="none" width="1400" height="3600"/>
	</g>
</g>
<g id="Label">
</g>
<g id="Icon">
	<g>
		<rect fill="none" width="48" height="48"/>
		<g>
			<path fill="none" d="M42,27.1L42,27.1L42,27.1C41.9,27.1,41.9,27.1,42,27.1z"/>
			<path fill="none" d="M6,27.1L6,27.1L6,27.1C6,27.1,6,27.1,6,27.1z"/>
		</g>
		<path d="M46,14c0-6.6-9.8-12-22-12C11.8,2,2,7.4,2,14v20.8h0.1C2.8,41.1,12.3,46,24,46c12.2,0,22-5.4,22-12c0-0.3,0-0.5-0.1-0.7
			L46,14z M24,42c-11,0-18-4.7-18-8c0-4.9,10.7-8,18-8c11,0,18,4.7,18,8C42,38.9,31.3,42,24,42z M41.9,27.1L41.9,27.1L41.9,27.1
			C41.9,27.1,41.9,27.1,41.9,27.1z M42,27.1L29,10l-7,9l-5-6L6,27.1l0,0c0,0,0,0,0,0V14c0-4.9,10.7-8,18-8c11,0,18,4.7,18,8L42,27.1
			z"/>
	</g>
</g>
<g id="Grid" display="none">
	<g display="inline">
		<line fill="none" stroke="#00E5FF" stroke-width="0.1" stroke-miterlimit="10" x1="42" y1="-440" x2="42" y2="3112"/>
	</g>
</g>
</svg>
