<?xml version="1.0" encoding="utf-8"?>
<!-- Generator: Adobe Illustrator 18.0.0, SVG Export Plug-In . SVG Version: 6.00 Build 0)  -->
<!DOCTYPE svg PUBLIC "-//W3C//DTD SVG 1.1//EN" "http://www.w3.org/Graphics/SVG/1.1/DTD/svg11.dtd">
<svg version="1.1" xmlns="http://www.w3.org/2000/svg" xmlns:xlink="http://www.w3.org/1999/xlink" x="0px" y="0px" width="48px"
	 height="48px" viewBox="0 0 48 48" enable-background="new 0 0 48 48" xml:space="preserve">
<g id="Header">
	<g>
		<rect x="-838" y="-696" fill="none" width="1400" height="3600"/>
	</g>
</g>
<g id="Label">
</g>
<g id="Icon">
	<g>
		<path d="M40,13.1v21.8c-5.2-1.5-10.6-2.3-16-2.3c-5.4,0-10.8,0.8-16,2.3V13.1c5.2,1.5,10.6,2.3,16,2.3
			C29.4,15.4,34.8,14.6,40,13.1 M42.9,8c-0.2,0-0.4,0-0.6,0.1c-5.9,2.2-12.1,3.3-18.2,3.3S11.6,10.3,5.8,8.1C5.5,8,5.3,8,5.1,8
			C4.5,8,4,8.5,4,9.3v29.5C4,39.5,4.5,40,5.1,40c0.2,0,0.4,0,0.6-0.1c5.9-2.2,12.1-3.3,18.2-3.3s12.4,1.1,18.2,3.3
			c0.2,0.1,0.4,0.1,0.6,0.1c0.7,0,1.1-0.5,1.1-1.3V9.3C44,8.5,43.5,8,42.9,8L42.9,8z"/>
		<g>
			<g>
				<rect y="0" fill="none" width="48" height="48"/>
			</g>
		</g>
	</g>
</g>
<g id="Grid" display="none">
	<g display="inline">
		<line fill="none" stroke="#00E5FF" stroke-width="0.1" stroke-miterlimit="10" x1="42" y1="-696" x2="42" y2="2856"/>
	</g>
</g>
</svg>
