<?xml version="1.0" encoding="utf-8"?>
<!-- Generator: Adobe Illustrator 17.1.0, SVG Export Plug-In . SVG Version: 6.00 Build 0)  -->
<!DOCTYPE svg PUBLIC "-//W3C//DTD SVG 1.1//EN" "http://www.w3.org/Graphics/SVG/1.1/DTD/svg11.dtd">
<svg version="1.1" xmlns="http://www.w3.org/2000/svg" xmlns:xlink="http://www.w3.org/1999/xlink" x="0px" y="0px" width="48px"
	 height="48px" viewBox="0 0 48 48" enable-background="new 0 0 48 48" xml:space="preserve">
<g id="Header">
	<g>
		<rect x="-838" y="-3384" fill="none" width="1400" height="3600"/>
	</g>
</g>
<g id="Label">
</g>
<g id="Icon">
	<g>
		<rect y="0" fill="none" width="48" height="48"/>
		<path d="M40,8h-6.3L30,4H18l-3.7,4H8c-2.2,0-4,1.8-4,4v24c0,2.2,1.8,4,4,4h32c2.2,0,4-1.8,4-4V12C44,9.8,42.2,8,40,8z M30,31v-5
			H18v5l-7-7l7-7v5h12v-5l7,7L30,31z"/>
	</g>
</g>
<g id="Grid" display="none">
	<g display="inline">
		<line fill="none" stroke="#00E5FF" stroke-width="0.1" stroke-miterlimit="10" x1="42" y1="-3384" x2="42" y2="168"/>
	</g>
</g>
</svg>
