<?xml version="1.0" encoding="utf-8"?>
<!-- Generator: Adobe Illustrator 18.0.0, SVG Export Plug-In . SVG Version: 6.00 Build 0)  -->
<!DOCTYPE svg PUBLIC "-//W3C//DTD SVG 1.1//EN" "http://www.w3.org/Graphics/SVG/1.1/DTD/svg11.dtd">
<svg version="1.1" xmlns="http://www.w3.org/2000/svg" xmlns:xlink="http://www.w3.org/1999/xlink" x="0px" y="0px" width="48px"
	 height="48px" viewBox="0 0 48 48" enable-background="new 0 0 48 48" xml:space="preserve">
<g id="Header">
	<g>
		<rect x="-838" y="-1080" fill="none" width="1400" height="3600"/>
	</g>
</g>
<g id="Label">
</g>
<g id="Icon">
	<g>
		<g>
			<rect y="0" fill="none" width="48" height="48"/>
		</g>
		<path d="M30,2H18v4h12V2z M22,28h4V16h-4V28z M38.1,14.8l2.8-2.8c-0.9-1-1.8-2-2.8-2.8l-2.8,2.8C32.1,9.5,28.2,8,24,8
			C14,8,6,16.1,6,26c0,9.9,8,18,18,18s18-8.1,18-18C42,21.8,40.5,17.9,38.1,14.8z M24,40c-7.7,0-14-6.3-14-14c0-7.7,6.3-14,14-14
			c7.7,0,14,6.3,14,14C38,33.7,31.7,40,24,40z"/>
	</g>
</g>
<g id="Grid" display="none">
	<g display="inline">
		<line fill="none" stroke="#00E5FF" stroke-width="0.1" stroke-miterlimit="10" x1="42" y1="-1080" x2="42" y2="2472"/>
	</g>
</g>
</svg>
