<?xml version="1.0" encoding="utf-8"?>
<!-- Generator: Adobe Illustrator 18.0.0, SVG Export Plug-In . SVG Version: 6.00 Build 0)  -->
<!DOCTYPE svg PUBLIC "-//W3C//DTD SVG 1.1//EN" "http://www.w3.org/Graphics/SVG/1.1/DTD/svg11.dtd">
<svg version="1.1" xmlns="http://www.w3.org/2000/svg" xmlns:xlink="http://www.w3.org/1999/xlink" x="0px" y="0px" width="48px"
	 height="48px" viewBox="0 0 48 48" enable-background="new 0 0 48 48" xml:space="preserve">
<g id="Header">
	<g>
		<rect x="-838" y="-1208" fill="none" width="1400" height="3600"/>
	</g>
</g>
<g id="Label">
</g>
<g id="Icon">
	<g>
		<rect x="0" y="0" fill="none" width="48" height="48"/>
		<rect x="0" y="0" fill="none" width="48" height="48"/>
		<path d="M0,15.4v3.4l6-2V36h4V12H9.5L0,15.4z M47.6,28.7c-0.3-0.6-0.7-1.1-1.3-1.5c-0.6-0.4-1.2-0.8-2-1.1s-1.7-0.5-2.7-0.8
			c-0.7-0.1-1.3-0.3-1.7-0.5c-0.5-0.2-0.8-0.3-1.1-0.5c-0.3-0.2-0.5-0.4-0.6-0.6c-0.1-0.2-0.2-0.5-0.2-0.8s0.1-0.6,0.2-0.8
			c0.1-0.3,0.3-0.5,0.5-0.7c0.2-0.2,0.5-0.4,0.9-0.5c0.4-0.1,0.8-0.2,1.3-0.2c0.5,0,0.9,0.1,1.3,0.2c0.4,0.1,0.7,0.3,1,0.6
			c0.3,0.2,0.4,0.5,0.6,0.8c0.1,0.3,0.2,0.6,0.2,1h3.9c0-0.8-0.2-1.5-0.5-2.2s-0.8-1.3-1.4-1.8s-1.3-0.9-2.2-1.2
			C43,18.1,42,18,40.9,18c-1,0-2,0.1-2.8,0.4c-0.8,0.3-1.5,0.7-2.1,1.1c-0.6,0.5-1,1-1.3,1.7c-0.3,0.6-0.5,1.3-0.5,2
			c0,0.7,0.2,1.4,0.5,1.9c0.3,0.6,0.7,1,1.3,1.5c0.5,0.4,1.2,0.8,2,1.1c0.8,0.3,1.6,0.5,2.5,0.7c0.8,0.2,1.4,0.3,1.9,0.5
			c0.5,0.2,0.9,0.4,1.1,0.6s0.4,0.4,0.5,0.7c0.1,0.2,0.1,0.5,0.1,0.8c0,0.6-0.3,1.1-0.8,1.5c-0.5,0.4-1.3,0.6-2.3,0.6
			c-0.4,0-0.9,0-1.3-0.2c-0.4-0.1-0.8-0.3-1.1-0.5s-0.6-0.5-0.8-0.9c-0.2-0.4-0.3-0.8-0.4-1.3h-3.8c0,0.7,0.2,1.4,0.5,2.1
			c0.3,0.7,0.8,1.3,1.4,1.9c0.6,0.5,1.4,1,2.3,1.3s2,0.5,3.2,0.5c1.1,0,2-0.1,2.9-0.4c0.9-0.3,1.6-0.6,2.2-1.1
			c0.6-0.5,1.1-1,1.4-1.7s0.5-1.3,0.5-2.1C48,30,47.9,29.3,47.6,28.7z M27.6,14.1c-0.7-0.8-1.5-1.4-2.5-1.8c-1-0.4-2-0.5-3.2-0.5
			c-1.2,0-2.2,0.2-3.2,0.5c-1,0.4-1.8,0.9-2.5,1.8c-0.7,0.8-1.2,1.9-1.6,3.2c-0.4,1.3-0.6,2.9-0.6,4.8v3.8c0,1.9,0.2,3.5,0.6,4.8
			c0.4,1.3,0.9,2.4,1.6,3.2c0.7,0.8,1.5,1.4,2.5,1.8s2,0.6,3.2,0.6c1.2,0,2.2-0.2,3.2-0.6c1-0.4,1.8-1,2.4-1.8
			c0.7-0.8,1.2-1.9,1.6-3.2c0.4-1.3,0.6-2.9,0.6-4.8V22c0-1.9-0.2-3.5-0.6-4.8C28.8,16,28.3,14.9,27.6,14.1z M25.8,26.4
			c0,1.2-0.1,2.2-0.2,3.1c-0.2,0.8-0.4,1.5-0.7,2c-0.3,0.5-0.7,0.9-1.2,1.1c-0.5,0.2-1,0.4-1.6,0.4c-0.6,0-1.2-0.1-1.6-0.4
			c-0.5-0.2-0.9-0.6-1.2-1.1s-0.6-1.2-0.8-2c-0.2-0.8-0.3-1.9-0.3-3.1v-5c0-1.2,0.1-2.2,0.3-3c0.2-0.8,0.4-1.5,0.7-2
			c0.3-0.5,0.7-0.9,1.2-1.1c0.5-0.2,1-0.3,1.6-0.3c0.6,0,1.1,0.1,1.6,0.3c0.5,0.2,0.9,0.6,1.2,1.1c0.3,0.5,0.6,1.2,0.7,2
			c0.2,0.8,0.3,1.8,0.3,3V26.4z"/>
	</g>
</g>
<g id="Grid" display="none">
	<g display="inline">
		<line fill="none" stroke="#00E5FF" stroke-width="0.1" stroke-miterlimit="10" x1="42" y1="-1208" x2="42" y2="2344"/>
	</g>
</g>
</svg>
