<?xml version="1.0" encoding="utf-8"?>
<!-- Generator: Adobe Illustrator 18.0.0, SVG Export Plug-In . SVG Version: 6.00 Build 0)  -->
<!DOCTYPE svg PUBLIC "-//W3C//DTD SVG 1.1//EN" "http://www.w3.org/Graphics/SVG/1.1/DTD/svg11.dtd">
<svg version="1.1" xmlns="http://www.w3.org/2000/svg" xmlns:xlink="http://www.w3.org/1999/xlink" x="0px" y="0px" width="48px"
	 height="48px" viewBox="0 0 48 48" enable-background="new 0 0 48 48" xml:space="preserve">
<g id="Header">
	<g>
		<rect x="-838" y="-1592" fill="none" width="1400" height="3600"/>
	</g>
</g>
<g id="Label">
</g>
<g id="Icon">
	<g>
		<rect x="0" y="0" fill="none" width="48" height="48"/>
		<rect x="0" y="0" fill="none" width="48" height="48"/>
		<rect x="0" y="0" fill="none" width="48" height="48"/>
		<rect x="0" y="0" fill="none" width="48" height="48"/>
		<rect x="0" y="0" fill="none" width="48" height="48"/>
		<path d="M38.1,9.1l-2.8,2.8C32.1,9.5,28.2,8,24,8c-3.7,0-7.1,1.1-9.9,3l2.9,2.9c2.1-1.2,4.4-1.9,7-1.9c7.7,0,14,6.3,14,14
			c0,2.5-0.7,4.9-1.9,7l2.9,2.9c1.9-2.8,3-6.2,3-9.9c0-4.2-1.5-8.1-3.9-11.2l2.8-2.8L38.1,9.1z M30,2H18v4h12V2z M22,18.9l4,4V16h-4
			V18.9z M6,8l-2.5,2.5L9,16.1c-1.9,2.9-3,6.3-3,9.9c0,9.9,8,18,18,18c3.7,0,7.1-1.1,10-3l5,5l2.5-2.5L26.1,28L6,8z M24,40
			c-7.7,0-14-6.3-14-14c0-2.6,0.7-5,1.9-7L31,38.1C29,39.3,26.6,40,24,40z"/>
	</g>
</g>
<g id="Grid" display="none">
	<g display="inline">
		<line fill="none" stroke="#00E5FF" stroke-width="0.1" stroke-miterlimit="10" x1="42" y1="-1592" x2="42" y2="1960"/>
	</g>
</g>
</svg>
