<?xml version="1.0" encoding="utf-8"?>
<!-- Generator: Adobe Illustrator 18.0.0, SVG Export Plug-In . SVG Version: 6.00 Build 0)  -->
<!DOCTYPE svg PUBLIC "-//W3C//DTD SVG 1.1//EN" "http://www.w3.org/Graphics/SVG/1.1/DTD/svg11.dtd">
<svg version="1.1" xmlns="http://www.w3.org/2000/svg" xmlns:xlink="http://www.w3.org/1999/xlink" x="0px" y="0px" width="48px"
	 height="48px" viewBox="0 0 48 48" enable-background="new 0 0 48 48" xml:space="preserve">
<g id="Header">
	<g>
		<rect x="-838" y="-1336" fill="none" width="1400" height="3600"/>
	</g>
</g>
<g id="Label">
</g>
<g id="Icon">
	<g>
		<rect y="0" fill="none" width="48" height="48"/>
		<rect y="0" fill="none" width="48" height="48"/>
		<path d="M23.2,25.9c-0.3-0.5-0.7-0.9-1.2-1.3c-0.5-0.4-1.1-0.7-1.9-1c0.6-0.3,1.1-0.6,1.6-1c0.5-0.4,0.8-0.8,1.1-1.3
			c0.3-0.5,0.5-0.9,0.7-1.4c0.2-0.5,0.2-1,0.2-1.5c0-1.1-0.2-2.1-0.6-2.9c-0.4-0.8-0.9-1.5-1.6-2.1c-0.7-0.6-1.5-1-2.4-1.3
			c-0.9-0.3-2-0.4-3.1-0.4c-1.1,0-2.1,0.2-3,0.5s-1.7,0.8-2.4,1.4c-0.7,0.6-1.2,1.3-1.6,2.1c-0.4,0.8-0.6,1.7-0.6,2.6h4
			c0-0.5,0.1-1,0.3-1.4c0.2-0.4,0.4-0.8,0.8-1c0.3-0.3,0.7-0.5,1.2-0.7c0.4-0.2,0.9-0.2,1.5-0.2c1.2,0,2.1,0.3,2.7,0.9
			c0.6,0.6,0.9,1.5,0.9,2.6c0,0.5-0.1,1-0.2,1.5c-0.2,0.4-0.4,0.8-0.8,1.1c-0.3,0.3-0.8,0.6-1.3,0.7c-0.5,0.2-1.1,0.3-1.8,0.3h-2.3
			v3.1h2.3c0.7,0,1.3,0.1,1.8,0.2c0.5,0.2,1,0.4,1.4,0.7c0.4,0.3,0.7,0.7,0.9,1.2c0.2,0.5,0.3,1.1,0.3,1.7c0,1.2-0.4,2.2-1.1,2.8
			c-0.7,0.7-1.7,1-2.9,1c-0.6,0-1.1-0.1-1.6-0.3c-0.5-0.2-0.9-0.4-1.2-0.7c-0.3-0.3-0.6-0.7-0.8-1.1c-0.2-0.4-0.3-0.9-0.3-1.4h-4
			c0,1.1,0.2,2.1,0.6,2.9c0.4,0.8,1,1.5,1.7,2.1c0.7,0.6,1.5,1,2.5,1.3s1.9,0.4,3,0.4c1.1,0,2.2-0.2,3.2-0.5c1-0.3,1.8-0.8,2.5-1.4
			c0.7-0.6,1.3-1.3,1.7-2.2c0.4-0.9,0.6-1.9,0.6-3c0-0.6-0.1-1.2-0.2-1.7C23.8,27,23.5,26.4,23.2,25.9z M41.7,28.7
			c-0.3-0.6-0.7-1.1-1.3-1.5s-1.2-0.8-2-1.1c-0.8-0.3-1.7-0.5-2.7-0.8c-0.7-0.1-1.3-0.3-1.7-0.5c-0.5-0.2-0.8-0.3-1.1-0.5
			c-0.3-0.2-0.5-0.4-0.6-0.6c-0.1-0.2-0.2-0.5-0.2-0.8s0.1-0.6,0.2-0.8c0.1-0.3,0.3-0.5,0.5-0.7c0.2-0.2,0.5-0.4,0.9-0.5
			c0.4-0.1,0.8-0.2,1.3-0.2c0.5,0,0.9,0.1,1.3,0.2c0.4,0.1,0.7,0.3,1,0.6c0.3,0.2,0.4,0.5,0.6,0.8c0.1,0.3,0.2,0.6,0.2,1h3.9
			c0-0.8-0.2-1.5-0.5-2.2c-0.3-0.7-0.8-1.3-1.4-1.8s-1.3-0.9-2.2-1.2c-0.9-0.3-1.8-0.4-2.9-0.4c-1,0-2,0.1-2.8,0.4
			c-0.8,0.3-1.5,0.7-2.1,1.1s-1,1-1.3,1.7c-0.3,0.6-0.5,1.3-0.5,2c0,0.7,0.2,1.4,0.5,1.9c0.3,0.6,0.7,1,1.3,1.5
			c0.5,0.4,1.2,0.8,2,1.1c0.8,0.3,1.6,0.5,2.5,0.7c0.8,0.2,1.4,0.3,1.9,0.5c0.5,0.2,0.9,0.4,1.1,0.6s0.4,0.4,0.5,0.7
			c0.1,0.2,0.1,0.5,0.1,0.8c0,0.6-0.3,1.1-0.8,1.5c-0.5,0.4-1.3,0.6-2.3,0.6c-0.4,0-0.9,0-1.3-0.2c-0.4-0.1-0.8-0.3-1.1-0.5
			c-0.3-0.2-0.6-0.5-0.8-0.9c-0.2-0.4-0.3-0.8-0.4-1.3h-3.8c0,0.7,0.2,1.4,0.5,2.1c0.3,0.7,0.8,1.3,1.4,1.9c0.6,0.5,1.4,1,2.3,1.3
			c0.9,0.3,2,0.5,3.2,0.5c1.1,0,2-0.1,2.9-0.4c0.9-0.3,1.6-0.6,2.2-1.1c0.6-0.5,1.1-1,1.4-1.7c0.3-0.6,0.5-1.3,0.5-2.1
			C42.2,30,42,29.3,41.7,28.7z"/>
	</g>
</g>
<g id="Grid" display="none">
	<g display="inline">
		<line fill="none" stroke="#00E5FF" stroke-width="0.1" stroke-miterlimit="10" x1="42" y1="-1336" x2="42" y2="2216"/>
	</g>
</g>
</svg>
