<?xml version="1.0" encoding="utf-8"?>
<!-- Generator: Adobe Illustrator 17.1.0, SVG Export Plug-In . SVG Version: 6.00 Build 0)  -->
<!DOCTYPE svg PUBLIC "-//W3C//DTD SVG 1.1//EN" "http://www.w3.org/Graphics/SVG/1.1/DTD/svg11.dtd">
<svg version="1.1" xmlns="http://www.w3.org/2000/svg" xmlns:xlink="http://www.w3.org/1999/xlink" x="0px" y="0px" width="48px"
	 height="48px" viewBox="0 0 48 48" enable-background="new 0 0 48 48" xml:space="preserve">
<g id="Header">
	<g>
		<rect x="-838" y="-824" fill="none" width="1400" height="3600"/>
	</g>
</g>
<g id="Label">
</g>
<g id="Icon">
	<g>
		<rect x="0" y="0" fill="none" width="48" height="48"/>
		<path d="M13.7,25.3h4.6L16,18L13.7,25.3z M44,14l-2.4,12.6l-3-12.6h-3.2l-3,12.6L30,14h-1.5c-2.9-3.7-7.4-6-12.5-6
			C7.2,8,0,15.2,0,24c0,8.8,7.2,16,16,16c6.3,0,11.7-3.6,14.3-8.9l0.2,0.9H34l3-12.2L40,32h3.5l4.1-18H44z M20.6,32l-1.4-4h-6.4
			l-1.4,4H7.6L14,14h4l6.4,18H20.6z"/>
	</g>
</g>
<g id="Grid" display="none">
	<g display="inline">
		<line fill="none" stroke="#00E5FF" stroke-width="0.1" stroke-miterlimit="10" x1="42" y1="-824" x2="42" y2="2728"/>
	</g>
</g>
</svg>
