<?xml version="1.0" encoding="utf-8"?>
<!-- Generator: Adobe Illustrator 17.1.0, SVG Export Plug-In . SVG Version: 6.00 Build 0)  -->
<!DOCTYPE svg PUBLIC "-//W3C//DTD SVG 1.1//EN" "http://www.w3.org/Graphics/SVG/1.1/DTD/svg11.dtd">
<svg version="1.1" xmlns="http://www.w3.org/2000/svg" xmlns:xlink="http://www.w3.org/1999/xlink" x="0px" y="0px" width="48px"
	 height="48px" viewBox="0 0 48 48" enable-background="new 0 0 48 48" xml:space="preserve">
<g id="Header">
	<g>
		<rect x="-838" y="-1336" fill="none" width="1400" height="3600"/>
	</g>
</g>
<g id="Label">
</g>
<g id="Icon">
	<g>
		<rect x="0" fill="none" width="48" height="48"/>
		<path d="M13.5,9.7L9.9,6.1L7.1,8.9l3.6,3.6L13.5,9.7z M8,21H2v4h6V21z M26,1.1h-4V7h4V1.1z M40.9,8.9l-2.8-2.8l-3.6,3.6l2.8,2.8
			L40.9,8.9z M34.5,36.3l3.6,3.6l2.8-2.8l-3.6-3.6L34.5,36.3z M40,21v4h6v-4H40z M24,11c-6.6,0-12,5.4-12,12s5.4,12,12,12
			s12-5.4,12-12S30.6,11,24,11z M22,44.9c0.6,0,4,0,4,0V39h-4V44.9z M7.1,37.1l2.8,2.8l3.6-3.6l-2.8-2.8L7.1,37.1z"/>
	</g>
</g>
<g id="Grid" display="none">
	<g display="inline">
		<line fill="none" stroke="#00E5FF" stroke-width="0.1" stroke-miterlimit="10" x1="42" y1="-1336" x2="42" y2="2216"/>
	</g>
</g>
</svg>
