<?xml version="1.0" encoding="utf-8"?>
<!-- Generator: Adobe Illustrator 17.1.0, SVG Export Plug-In . SVG Version: 6.00 Build 0)  -->
<!DOCTYPE svg PUBLIC "-//W3C//DTD SVG 1.1//EN" "http://www.w3.org/Graphics/SVG/1.1/DTD/svg11.dtd">
<svg version="1.1" xmlns="http://www.w3.org/2000/svg" xmlns:xlink="http://www.w3.org/1999/xlink" x="0px" y="0px" width="48px"
	 height="48px" viewBox="0 0 48 48" enable-background="new 0 0 48 48" xml:space="preserve">
<g id="Header">
	<g>
		<rect x="-838" y="-1208" fill="none" width="1400" height="3600"/>
	</g>
</g>
<g id="Label">
</g>
<g id="Icon">
	<g>
		<rect x="0" fill="none" width="48" height="48"/>
		<path d="M10,29h28V17H10V29z M22,1.1V7h4V1.1H22z M38.1,6.1l-3.6,3.6l2.8,2.8l3.6-3.6L38.1,6.1z M26,44.9V39h-4v5.9
			C22.6,44.9,26,44.9,26,44.9z M40.9,37.1l-3.6-3.6l-2.8,2.8l3.6,3.6L40.9,37.1z M7.1,8.9l3.6,3.6l2.8-2.8L9.9,6.1L7.1,8.9z
			 M9.9,39.9l3.6-3.6l-2.8-2.8l-3.6,3.6L9.9,39.9z"/>
	</g>
</g>
<g id="Grid" display="none">
	<g display="inline">
		<line fill="none" stroke="#00E5FF" stroke-width="0.1" stroke-miterlimit="10" x1="42" y1="-1208" x2="42" y2="2344"/>
	</g>
</g>
</svg>
