<?xml version="1.0" encoding="utf-8"?>
<!-- Generator: Adobe Illustrator 16.0.4, SVG Export Plug-In . SVG Version: 6.00 Build 0)  -->
<!DOCTYPE svg PUBLIC "-//W3C//DTD SVG 1.1//EN" "http://www.w3.org/Graphics/SVG/1.1/DTD/svg11.dtd">
<svg version="1.1" id="Layer_1" xmlns="http://www.w3.org/2000/svg" xmlns:xlink="http://www.w3.org/1999/xlink" x="0px" y="0px"
	 width="24px" height="24px" viewBox="0 0 24 24" enable-background="new 0 0 24 24" xml:space="preserve">
<g>
	<g>
		<g display="none" opacity="0.5">
			<defs>
				<rect id="SVGID_1_" opacity="0.5" width="24" height="24"/>
			</defs>
			<clipPath id="SVGID_2_" display="inline">
				<use xlink:href="#SVGID_1_"  overflow="visible"/>
			</clipPath>
			<g display="inline" clip-path="url(#SVGID_2_)">
				<g>
					<defs>
						<rect id="SVGID_3_" width="24" height="24"/>
					</defs>
					<clipPath id="SVGID_4_">
						<use xlink:href="#SVGID_3_"  overflow="visible"/>
					</clipPath>
					<path clip-path="url(#SVGID_4_)" fill="#010101" d="M15.502,14h-0.794l-0.274-0.273c0.976-1.138,1.565-2.61,1.565-4.227
						C15.999,5.91,13.09,3,9.5,3S3,5.91,3,9.5S5.91,16,9.5,16c1.615,0,3.088-0.592,4.225-1.566l0.276,0.274V15.5l4.998,4.991
						L20.49,19L15.502,14z M9.5,14C7.015,14,5,11.985,5,9.5S7.015,5,9.5,5S14,7.015,14,9.5S11.985,14,9.5,14"/>
				</g>
			</g>
		</g>
		<g>
			<g>
				<g opacity="0.5">
					<defs>
						<rect id="SVGID_5_" opacity="0.5" width="24" height="24"/>
					</defs>
					<clipPath id="SVGID_6_">
						<use xlink:href="#SVGID_5_"  overflow="visible"/>
					</clipPath>
					<g clip-path="url(#SVGID_6_)">
						<g>
							<defs>
								<rect id="SVGID_7_" width="24" height="24"/>
							</defs>
							<clipPath id="SVGID_8_">
								<use xlink:href="#SVGID_7_"  overflow="visible"/>
							</clipPath>
							<path clip-path="url(#SVGID_8_)" fill="#010101" d="M3,18h18v-2H3V18z M3,13h18v-2H3V13z M3,8h18V6H3V8z"/>
						</g>
					</g>
				</g>
			</g>
		</g>
	</g>
</g>
</svg>
