<?xml version="1.0" encoding="UTF-8" standalone="no"?>
<svg width="168px" height="152px" viewBox="0 0 168 152" version="1.1" xmlns="http://www.w3.org/2000/svg" xmlns:xlink="http://www.w3.org/1999/xlink" xmlns:sketch="http://www.bohemiancoding.com/sketch/ns">
    <!-- Generator: Sketch 3.3.1 (12002) - http://www.bohemiancoding.com/sketch -->
    <title>Shape</title>
    <desc>Created with Sketch.</desc>
    <defs></defs>
    <g id="Page-1" stroke="none" stroke-width="1" fill="none" fill-rule="evenodd" sketch:type="MSPage">
        <g id="03-Styles" sketch:type="MSArtboardGroup" transform="translate(-636.000000, -1338.000000)" stroke="#F5C7C1" fill="#F5C6C1">
            <g id="Rectangle-142-+-ICONS-+-Shape" sketch:type="MSLayerGroup" transform="translate(0.000000, 1269.000000)">
                <g id="ICONS-+-Shape" transform="translate(637.000000, 70.000000)" sketch:type="MSShapeGroup">
                    <path d="M107.464654,1.53846154 L123.610481,17.2615385 L123.994722,17.6923077 L124.617194,17.6923077 L149.592889,17.6923077 C157.784917,17.6923077 164.455349,24.5923077 164.455349,33.0769231 L164.455349,133.076923 C164.455349,141.561538 157.792602,148.461538 149.592889,148.461538 L16.399426,148.461538 C8.19971298,148.461538 1.53696588,141.561538 1.53696588,133.076923 L1.53696588,33.0769231 C1.53696588,24.5923077 8.19971298,17.6923077 16.399426,17.6923077 L41.3751215,17.6923077 L41.9975927,17.6923077 L42.4433128,17.2615385 L58.6429332,1.53846154 L107.587612,1.53846154 L107.464654,1.53846154 Z M107.971853,0 L58.020462,0 L41.3674367,16.1538462 L16.3917411,16.1538462 C7.20068515,16.1538462 0,23.8769231 0,33.0769231 L0,133.076923 C0,142.284615 7.20068515,150 16.399426,150 L149.600574,150 C158.79163,150 166,142.276923 166,133.076923 L166,33.0769231 C166,23.8769231 158.799315,16.1538462 149.600574,16.1538462 L124.624878,16.1538462 L107.971853,0 L107.971853,0 Z" id="Shape"></path>
                </g>
            </g>
        </g>
    </g>
</svg>