<?xml version="1.0" encoding="UTF-8" standalone="no"?>
<svg width="156px" height="172px" viewBox="0 0 156 172" version="1.1" xmlns="http://www.w3.org/2000/svg" xmlns:xlink="http://www.w3.org/1999/xlink" xmlns:sketch="http://www.bohemiancoding.com/sketch/ns">
    <!-- Generator: Sketch 3.3.1 (12002) - http://www.bohemiancoding.com/sketch -->
    <title>customize</title>
    <desc>Created with Sketch.</desc>
    <defs></defs>
    <g id="Page-1" stroke="none" stroke-width="1" fill="none" fill-rule="evenodd" sketch:type="MSPage">
        <g id="customize" sketch:type="MSLayerGroup" fill="#FFCCBA">
            <path d="M118.32493,123.582464 L74.7730652,169.029045 L76.9390974,171.104691 L122.478266,123.582463 L80.7206306,80.2131323 L78.5595349,82.2939171 L118.32493,123.582464 Z" id="Shape" sketch:type="MSShapeGroup"></path>
            <path d="M42.3698536,122.04082 L4.26303897,83.0078388 L2.11640405,85.1035388 L40.2232186,124.13652 L42.3698536,122.04082 L42.3698536,122.04082 Z" id="Shape" sketch:type="MSShapeGroup"></path>
            <path d="M3.5,61.5428316 L3.5,6.15157666 L0.5,6.15157666 L0.5,61.5428316 L3.5,61.5428316 L3.5,61.5428316 Z" id="Shape" sketch:type="MSShapeGroup"></path>
            <path d="M44.4021636,46.1474074 L78.4506086,9.21990413 L76.2450532,7.18630511 L42.1966082,44.1138084 L44.4021636,46.1474074 L44.4021636,46.1474074 Z" id="Shape" sketch:type="MSShapeGroup"></path>
            <path d="M101.382027,3.5 L155.496048,3.5 L155.496048,0.5 L101.382027,0.5 L101.382027,3.5 L101.382027,3.5 Z" id="Shape" sketch:type="MSShapeGroup"></path>
            <path d="M114.328658,46.1784579 L150.601811,83.3332113 L152.748445,81.2375113 L116.475292,44.0827579 L114.328658,46.1784579 L114.328658,46.1784579 Z" id="Shape" sketch:type="MSShapeGroup"></path>
            <path d="M151.5,157.964646 L154.5,157.964646 L154.5,106.676447 L151.5,106.676447 L151.5,157.964646 Z" id="Shape" sketch:type="MSShapeGroup"></path>
        </g>
    </g>
</svg>