<?xml version="1.0" encoding="UTF-8" standalone="no"?>
<svg width="182px" height="171px" viewBox="0 0 182 171" version="1.1" xmlns="http://www.w3.org/2000/svg" xmlns:xlink="http://www.w3.org/1999/xlink" xmlns:sketch="http://www.bohemiancoding.com/sketch/ns">
    <!-- Generator: Sketch 3.3.1 (12002) - http://www.bohemiancoding.com/sketch -->
    <title>customize copy</title>
    <desc>Created with Sketch.</desc>
    <defs></defs>
    <g id="Page-1" stroke="none" stroke-width="1" fill="none" fill-rule="evenodd" sketch:type="MSPage">
        <g id="customize-copy" sketch:type="MSLayerGroup" fill="#FFCCBA">
            <path d="M92.3321375,95.1035921 L134.332137,138.103593 L136.478266,136.007374 L94.478266,93.0073736 L92.3321375,95.1035921 L92.3321375,95.1035921 Z" id="Shape" sketch:type="MSShapeGroup" transform="translate(114.405202, 115.555483) rotate(30.000000) translate(-114.405202, -115.555483) "></path>
            <path d="M90.4981021,184.734312 L136.163856,137.08309 L133.997891,135.007374 L88.3321375,182.658596 L90.4981021,184.734312 L90.4981021,184.734312 Z" id="Shape" sketch:type="MSShapeGroup" transform="translate(112.247997, 159.870843) rotate(30.000000) translate(-112.247997, -159.870843) "></path>
            <path d="M56.3698536,135.04082 L18.263039,96.0078388 L16.116404,98.1035388 L54.2232186,137.13652 L56.3698536,135.04082 L56.3698536,135.04082 Z" id="Shape" sketch:type="MSShapeGroup" transform="translate(36.243129, 116.572179) rotate(30.000000) translate(-36.243129, -116.572179) "></path>
            <path d="M17.5,74.5428316 L17.5,19.1515767 L14.5,19.1515767 L14.5,74.5428316 L17.5,74.5428316 L17.5,74.5428316 Z" id="Shape" sketch:type="MSShapeGroup" transform="translate(16.000000, 46.847204) rotate(30.000000) translate(-16.000000, -46.847204) "></path>
            <path d="M58.4021636,59.1474074 L92.4506086,22.2199041 L90.2450532,20.1863051 L56.1966082,57.1138084 L58.4021636,59.1474074 L58.4021636,59.1474074 Z" id="Shape" sketch:type="MSShapeGroup" transform="translate(74.323608, 39.666856) rotate(30.000000) translate(-74.323608, -39.666856) "></path>
            <path d="M115.382027,16.5 L169.496048,16.5 L169.496048,13.5 L115.382027,13.5 L115.382027,16.5 L115.382027,16.5 Z" id="Shape" sketch:type="MSShapeGroup" transform="translate(142.439037, 15.000000) rotate(30.000000) translate(-142.439037, -15.000000) "></path>
            <path d="M128.328658,59.1784579 L164.601811,96.3332113 L166.748445,94.2375113 L130.475292,57.0827579 L128.328658,59.1784579 L128.328658,59.1784579 Z" id="Shape" sketch:type="MSShapeGroup" transform="translate(147.538552, 76.707985) rotate(30.000000) translate(-147.538552, -76.707985) "></path>
            <path d="M165.5,170.964646 L168.5,170.964646 L168.5,119.676447 L165.5,119.676447 L165.5,170.964646 L165.5,170.964646 Z" id="Shape" sketch:type="MSShapeGroup" transform="translate(167.000000, 145.320546) rotate(30.000000) translate(-167.000000, -145.320546) "></path>
        </g>
    </g>
</svg>