<?xml version="1.0" encoding="utf-8"?>
<!-- Generator: Adobe Illustrator 18.0.0, SVG Export Plug-In . SVG Version: 6.00 Build 0)  -->
<!DOCTYPE svg PUBLIC "-//W3C//DTD SVG 1.1//EN" "http://www.w3.org/Graphics/SVG/1.1/DTD/svg11.dtd">
<svg version="1.1" xmlns="http://www.w3.org/2000/svg" xmlns:xlink="http://www.w3.org/1999/xlink" x="0px" y="0px" width="48px"
	 height="48px" viewBox="0 0 48 48" enable-background="new 0 0 48 48" xml:space="preserve">
<g id="Header">
	<g>
		<rect x="-838" y="-440" fill="none" width="1400" height="3600"/>
	</g>
</g>
<g id="Labels">
</g>
<g id="Icon">
	<g>
		<g>
			<path d="M23.99,4C12.94,4,4,12.95,4,24s8.94,20,19.99,20C35.04,44,44,35.05,44,24S35.04,4,23.99,4z M24,40c-8.84,0-16-7.16-16-16
				S15.16,8,24,8c8.84,0,16,7.16,16,16S32.84,40,24,40z"/>
		</g>
		<rect fill="none" width="48" height="48"/>
		<polygon points="25,14 22,14 22,26 32.49,32.3 34,29.84 25,24.5 		"/>
	</g>
</g>
<g id="Grid" display="none">
	<g display="inline">
		<line fill="none" stroke="#00E5FF" stroke-width="0.1" stroke-miterlimit="10" x1="42" y1="-440" x2="42" y2="3112"/>
	</g>
</g>
</svg>
