<?xml version="1.0" encoding="utf-8"?>
<!-- Generator: Adobe Illustrator 17.1.0, SVG Export Plug-In . SVG Version: 6.00 Build 0)  -->
<!DOCTYPE svg PUBLIC "-//W3C//DTD SVG 1.1//EN" "http://www.w3.org/Graphics/SVG/1.1/DTD/svg11.dtd">
<svg version="1.1" xmlns="http://www.w3.org/2000/svg" xmlns:xlink="http://www.w3.org/1999/xlink" x="0px" y="0px" width="48px"
	 height="48px" viewBox="0 0 48 48" enable-background="new 0 0 48 48" xml:space="preserve">
<g id="Header">
	<g>
		<rect x="-838" y="-824" fill="none" width="1400" height="3600"/>
	</g>
</g>
<g id="Labels">
</g>
<g id="Icon">
	<g>
		<g>
			<rect fill="none" width="48" height="48"/>
		</g>
		<g>
			<rect fill="none" width="48" height="48"/>
			<rect fill="none" width="48" height="48"/>
		</g>
		<path d="M26,18V7c0-1.7-1.3-3-3-3c-1.7,0-3,1.3-3,3v7.4L35.7,30l6.3,2v-4L26,18z M6,10.5l10,10L4,28v4l16-5v11l-4,3v3l7-2l7,2v-3
			l-4-3v-7.5L37.5,42l2.5-2.5L8.5,8L6,10.5z"/>
	</g>
</g>
<g id="Grid" display="none">
	<g display="inline">
		<line fill="none" stroke="#00E5FF" stroke-width="0.1" stroke-miterlimit="10" x1="42" y1="-824" x2="42" y2="2728"/>
	</g>
</g>
</svg>
