<?xml version="1.0" encoding="utf-8"?>
<!-- Generator: Adobe Illustrator 18.0.0, SVG Export Plug-In . SVG Version: 6.00 Build 0)  -->
<!DOCTYPE svg PUBLIC "-//W3C//DTD SVG 1.1//EN" "http://www.w3.org/Graphics/SVG/1.1/DTD/svg11.dtd">
<svg version="1.1" xmlns="http://www.w3.org/2000/svg" xmlns:xlink="http://www.w3.org/1999/xlink" x="0px" y="0px" width="48px"
	 height="48px" viewBox="0 0 48 48" enable-background="new 0 0 48 48" xml:space="preserve">
<g id="Header">
	<g>
		<rect x="-848.5" y="-568" fill="none" width="1400" height="4103"/>
	</g>
</g>
<g id="Labels">
</g>
<g id="Icon">
	<g>
		<g>
			<g>
				<g>
					<rect fill="none" width="48" height="48"/>
				</g>
			</g>
		</g>
		<path d="M21.7,25.3h4.6L24,18L21.7,25.3z M40,17.37V8h-9.37L24,1.37L17.37,8H8v9.37L1.37,24L8,30.63V40h9.37L24,46.63L30.63,40H40
			v-9.37L46.63,24L40,17.37z M28.6,32l-1.4-4h-6.4l-1.4,4h-3.8L22,14h4l6.4,18H28.6z"/>
	</g>
</g>
<g id="Grid" display="none">
	<g display="inline">
		<line fill="none" stroke="#00E5FF" stroke-width="0.1" stroke-miterlimit="10" x1="42" y1="-568" x2="42" y2="2984"/>
	</g>
</g>
</svg>
