<?xml version="1.0" encoding="utf-8"?>
<!-- Generator: Adobe Illustrator 18.0.0, SVG Export Plug-In . SVG Version: 6.00 Build 0)  -->
<!DOCTYPE svg PUBLIC "-//W3C//DTD SVG 1.1//EN" "http://www.w3.org/Graphics/SVG/1.1/DTD/svg11.dtd">
<svg version="1.1" xmlns="http://www.w3.org/2000/svg" xmlns:xlink="http://www.w3.org/1999/xlink" x="0px" y="0px" width="18px"
	 height="18px" viewBox="0 0 18 18" enable-background="new 0 0 18 18" xml:space="preserve">
<g id="Header">
	<g>
		<rect x="-520" y="-3128" fill="none" width="1400" height="3600"/>
	</g>
</g>
<g id="Labels">
</g>
<g id="Icon">
	<g>
		<rect fill="none" width="18" height="18"/>
		<path d="M12,3h-1.5V1.5h-3V3H6C5.4,3,5,3.4,5,4v11c0,0.6,0.4,1,1,1h6c0.6,0,1-0.4,1-1V4C13,3.4,12.6,3,12,3z M9.8,13.8H8.2v-1.6
			h1.6V13.8z M10.9,8.9c0,0-0.3,0.4-0.6,0.6C10,9.9,9.7,10.6,9.7,11H8.2c0-0.7,0.5-1.4,0.9-1.8l0.8-0.8c0.2-0.2,0.4-0.5,0.4-0.9
			c0-0.7-0.6-1.2-1.2-1.2c-0.7,0-1.2,0.6-1.2,1.2H6.5C6.5,6.1,7.6,5,9,5c1.4,0,2.5,1.1,2.5,2.5C11.5,8,11.3,8.5,10.9,8.9z"/>
	</g>
</g>
<g id="Grid" display="none">
	<g display="inline">
		<line fill="none" stroke="#00E5FF" stroke-width="0.1" stroke-miterlimit="10" x1="0" y1="-3128" x2="0" y2="424"/>
	</g>
</g>
</svg>
