<?xml version="1.0" encoding="utf-8"?>
<!-- Generator: Adobe Illustrator 17.1.0, SVG Export Plug-In . SVG Version: 6.00 Build 0)  -->
<!DOCTYPE svg PUBLIC "-//W3C//DTD SVG 1.1//EN" "http://www.w3.org/Graphics/SVG/1.1/DTD/svg11.dtd">
<svg version="1.1" xmlns="http://www.w3.org/2000/svg" xmlns:xlink="http://www.w3.org/1999/xlink" x="0px" y="0px" width="48px"
	 height="48px" viewBox="0 0 48 48" enable-background="new 0 0 48 48" xml:space="preserve">
<g id="Header">
	<g>
		<rect x="-838" y="-3384" fill="none" width="1400" height="3600"/>
	</g>
</g>
<g id="Labels">
</g>
<g id="Icon">
	<g>
		<g>
			<rect fill="none" width="48" height="48"/>
		</g>
		<path d="M28.5,24l4.6,4.6c0.6-1.4,0.9-3,0.9-4.7c0-1.6-0.3-3.2-0.9-4.6L28.5,24z M39.1,13.4L36.5,16c1.3,2.4,2,5.1,2,8
			s-0.7,5.6-2,8l2.4,2.4c1.9-3.1,3.1-6.7,3.1-10.6C42,20,40.9,16.5,39.1,13.4z M31.4,15.4L20,4h-2v15.2L8.8,10L6,12.8L17.2,24
			L6,35.2L8.8,38l9.2-9.2V44h2l11.4-11.4L22.8,24L31.4,15.4z M22,11.7l3.8,3.8L22,19.2V11.7z M25.8,32.6L22,36.3v-7.5L25.8,32.6z"/>
	</g>
</g>
<g id="Grid" display="none">
	<g display="inline">
		<line fill="none" stroke="#00E5FF" stroke-width="0.1" stroke-miterlimit="10" x1="42" y1="-3384" x2="42" y2="168"/>
	</g>
</g>
</svg>
