<?xml version="1.0" encoding="utf-8"?>
<!-- Generator: Adobe Illustrator 18.0.0, SVG Export Plug-In . SVG Version: 6.00 Build 0)  -->
<!DOCTYPE svg PUBLIC "-//W3C//DTD SVG 1.1//EN" "http://www.w3.org/Graphics/SVG/1.1/DTD/svg11.dtd">
<svg version="1.1" xmlns="http://www.w3.org/2000/svg" xmlns:xlink="http://www.w3.org/1999/xlink" x="0px" y="0px" width="48px"
	 height="48px" viewBox="0 0 48 48" enable-background="new 0 0 48 48" xml:space="preserve">
<g id="Header">
	<g>
		<rect x="-838" y="-3128" fill="none" width="1400" height="3600"/>
	</g>
</g>
<g id="Labels">
</g>
<g id="Icon">
	<g>
		<rect fill="none" width="48" height="48"/>
		<path d="M31.3,8H28V4h-8v4h-3.3C15.2,8,14,9.2,14,10.7v30.7c0,1.5,1.2,2.7,2.7,2.7h14.7c1.5,0,2.7-1.2,2.7-2.7V10.7
			C34,9.2,32.8,8,31.3,8z M25.9,35.9h-3.8v-3.8h3.8V35.9z M28.6,25.4c0,0-0.8,0.8-1.3,1.4c-1,1-1.7,2.3-1.7,3.2h-3.2
			c0-1.7,0.9-3,1.9-4l1.9-1.9c0.5-0.5,0.9-1.3,0.9-2.1c0-1.7-1.3-3-3-3c-1.7,0-3,1.3-3,3h-3c0-3.3,2.7-6,6-6c3.3,0,6,2.7,6,6
			C30,23.3,29.5,24.5,28.6,25.4z"/>
	</g>
</g>
<g id="Grid" display="none">
	<g display="inline">
		<line fill="none" stroke="#00E5FF" stroke-width="0.1" stroke-miterlimit="10" x1="42" y1="-3128" x2="42" y2="424"/>
	</g>
</g>
</svg>
