<?xml version="1.0" encoding="utf-8"?>
<!-- Generator: Adobe Illustrator 18.0.0, SVG Export Plug-In . SVG Version: 6.00 Build 0)  -->
<!DOCTYPE svg PUBLIC "-//W3C//DTD SVG 1.1//EN" "http://www.w3.org/Graphics/SVG/1.1/DTD/svg11.dtd">
<svg version="1.1" xmlns="http://www.w3.org/2000/svg" xmlns:xlink="http://www.w3.org/1999/xlink" x="0px" y="0px" width="18px"
	 height="18px" viewBox="0 0 18 18" enable-background="new 0 0 18 18" xml:space="preserve">
<g id="Header">
	<g>
		<rect x="-520" y="-2232" fill="none" width="1400" height="3600"/>
	</g>
</g>
<g id="Labels">
</g>
<g id="Icon">
	<g>
		<rect fill="none" width="18" height="18"/>
		<g>
			<path fill-opacity="0.3" d="M12,3h-1.5V1.5h-3V3H6C5.4,3,5,3.4,5,4v6.5h1.5l3-6v4h2l-1,2H13V4C13,3.4,12.6,3,12,3z"/>
			<path d="M8.5,14.5v-4H5V15c0,0.6,0.4,1,1,1h6c0.6,0,1-0.4,1-1v-4.5h-2.5L8.5,14.5z"/>
		</g>
	</g>
</g>
<g id="Grid" display="none">
	<g display="inline">
		<line fill="none" stroke="#00E5FF" stroke-width="0.1" stroke-miterlimit="10" x1="0" y1="-2232" x2="0" y2="1320"/>
	</g>
</g>
</svg>
