<?xml version="1.0" encoding="utf-8"?>
<!-- Generator: Adobe Illustrator 18.0.0, SVG Export Plug-In . SVG Version: 6.00 Build 0)  -->
<!DOCTYPE svg PUBLIC "-//W3C//DTD SVG 1.1//EN" "http://www.w3.org/Graphics/SVG/1.1/DTD/svg11.dtd">
<svg version="1.1" xmlns="http://www.w3.org/2000/svg" xmlns:xlink="http://www.w3.org/1999/xlink" x="0px" y="0px" width="48px"
	 height="48px" viewBox="0 0 48 48" enable-background="new 0 0 48 48" xml:space="preserve">
<g id="Header">
	<g>
		<rect x="-838" y="-3256" fill="none" width="1400" height="3600"/>
	</g>
</g>
<g id="Labels">
</g>
<g id="Icon">
	<g>
		<g>
			<rect y="-0.17" fill="none" width="48" height="48"/>
		</g>
		<path d="M26,11.83l3.76,3.76l-3.2,3.2l2.83,2.83l6.03-6.03L24,4.17h-2v10.06l4,4V11.83z M10.83,8.17L8,11l13.17,13.17L10,35.34
			l2.83,2.83L22,29v15.17h2l8.59-8.59l4.59,4.59L40,37.34L10.83,8.17z M26,36.51V29l3.76,3.76L26,36.51z"/>
	</g>
</g>
<g id="Grid" display="none">
	<g display="inline">
		<line fill="none" stroke="#00E5FF" stroke-width="0.1" stroke-miterlimit="10" x1="42" y1="-3256" x2="42" y2="296"/>
	</g>
</g>
</svg>
