<?xml version="1.0" encoding="utf-8"?>
<!-- Generator: Adobe Illustrator 18.0.0, SVG Export Plug-In . SVG Version: 6.00 Build 0)  -->
<!DOCTYPE svg PUBLIC "-//W3C//DTD SVG 1.1//EN" "http://www.w3.org/Graphics/SVG/1.1/DTD/svg11.dtd">
<svg version="1.1" xmlns="http://www.w3.org/2000/svg" xmlns:xlink="http://www.w3.org/1999/xlink" x="0px" y="0px" width="48px"
	 height="48px" viewBox="0 0 48 48" enable-background="new 0 0 48 48" xml:space="preserve">
<g id="Header">
	<g>
		<rect x="-838" y="-568" fill="none" width="1400" height="3600"/>
	</g>
</g>
<g id="Labels">
</g>
<g id="Icon">
	<g>
		<rect y="-0.17" fill="none" width="48" height="48"/>
		<path d="M14,10.17h20v4h4v-8c0-2.21-1.79-3.98-4-3.98L14,2.17c-2.21,0-4,1.79-4,4v8h4V10.17z M30.83,33.34L40,24.17L30.83,15
			L28,17.83l6.34,6.34L28,30.52L30.83,33.34z M20,30.52l-6.34-6.34L20,17.83L17.17,15L8,24.17l9.17,9.17L20,30.52z M34,38.17H14v-4
			h-4v8c0,2.21,1.79,4,4,4h20c2.21,0,4-1.79,4-4v-8h-4V38.17z"/>
	</g>
</g>
<g id="Grid">
	<g>
	</g>
</g>
</svg>
