<?xml version="1.0" encoding="utf-8"?>
<!-- Generator: Adobe Illustrator 18.0.0, SVG Export Plug-In . SVG Version: 6.00 Build 0)  -->
<!DOCTYPE svg PUBLIC "-//W3C//DTD SVG 1.1//EN" "http://www.w3.org/Graphics/SVG/1.1/DTD/svg11.dtd">
<svg version="1.1" xmlns="http://www.w3.org/2000/svg" xmlns:xlink="http://www.w3.org/1999/xlink" x="0px" y="0px" width="48px"
	 height="48px" viewBox="0 0 48 48" enable-background="new 0 0 48 48" xml:space="preserve">
<g id="Header">
	<g>
		<rect x="-848.5" y="-1080" fill="none" width="1400" height="4103"/>
	</g>
</g>
<g id="Labels">
</g>
<g id="Icon">
	<g>
		<rect fill="none" width="48" height="48"/>
		<path d="M26,4.1v6.06c6.78,0.97,12,6.79,12,13.84c0,1.79-0.35,3.5-0.96,5.07l5.2,3.07C43.35,29.65,44,26.91,44,24
			C44,13.63,36.11,5.11,26,4.1z M24,38c-7.73,0-14-6.27-14-14c0-7.05,5.22-12.87,12-13.84V4.1C11.88,5.1,4,13.63,4,24
			c0,11.05,8.94,20,19.99,20c6.62,0,12.47-3.23,16.11-8.18l-5.19-3.06C32.35,35.95,28.42,38,24,38z"/>
	</g>
</g>
<g id="Grid" display="none">
	<g display="inline">
		<line fill="none" stroke="#00E5FF" stroke-width="0.1" stroke-miterlimit="10" x1="42" y1="-1080" x2="42" y2="2472"/>
	</g>
</g>
</svg>
