<?xml version="1.0" encoding="utf-8"?>
<!-- Generator: Adobe Illustrator 18.0.0, SVG Export Plug-In . SVG Version: 6.00 Build 0)  -->
<!DOCTYPE svg PUBLIC "-//W3C//DTD SVG 1.1//EN" "http://www.w3.org/Graphics/SVG/1.1/DTD/svg11.dtd">
<svg version="1.1" xmlns="http://www.w3.org/2000/svg" xmlns:xlink="http://www.w3.org/1999/xlink" x="0px" y="0px" width="18px"
	 height="18px" viewBox="0 0 18 18" enable-background="new 0 0 18 18" xml:space="preserve">
<g id="Header">
	<g>
		<rect x="-520" y="-952" fill="none" width="1400" height="3600"/>
	</g>
</g>
<g id="Labels">
</g>
<g id="Icon">
	<g>
		<g>
			<rect fill="none" width="18" height="18"/>
		</g>
		<path d="M13,7H5v2h8V7z M10,10H5v2h5V10z M15,2h-1V1h-2v1H6V1H4v1H3C2.45,2,2,2.45,2,3v12c0,0.55,0.45,1,1,1h12c0.55,0,1-0.45,1-1
			V3C16,2.45,15.55,2,15,2z M14,14H4V6h10V14z"/>
	</g>
</g>
<g id="Grid">
	<g>
		<line fill="none" stroke="#00E5FF" stroke-width="0.1" stroke-miterlimit="10" x1="0" y1="-952" x2="0" y2="2600"/>
	</g>
</g>
</svg>
