<?xml version="1.0" encoding="utf-8"?>
<!-- Generator: Adobe Illustrator 18.0.0, SVG Export Plug-In . SVG Version: 6.00 Build 0)  -->
<!DOCTYPE svg PUBLIC "-//W3C//DTD SVG 1.1//EN" "http://www.w3.org/Graphics/SVG/1.1/DTD/svg11.dtd">
<svg version="1.1" xmlns="http://www.w3.org/2000/svg" xmlns:xlink="http://www.w3.org/1999/xlink" x="0px" y="0px" width="48px"
	 height="48px" viewBox="0 0 48 48" enable-background="new 0 0 48 48" xml:space="preserve">
<g id="Header">
	<g>
		<rect x="-838" y="-952" fill="none" width="1400" height="3600"/>
	</g>
</g>
<g id="Labels">
</g>
<g id="Icon">
	<g>
		<g>
			<path d="M34,20H14v4h20V20z M26,28H14v4h12V28z M32,2v4H16V2h-4v4h-2c-2.21,0-3.98,1.79-3.98,4L6,38c0,2.21,1.79,4,4,4h28
				c2.21,0,4-1.79,4-4V10c0-2.21-1.79-4-4-4h-2V2H32z M38,38H10V16h28V38z"/>
		</g>
		<rect fill="none" width="48" height="48"/>
	</g>
</g>
<g id="Grid">
	<g>
		<line fill="none" stroke="#00E5FF" stroke-width="0.1" stroke-miterlimit="10" x1="42" y1="-952" x2="42" y2="2600"/>
	</g>
</g>
</svg>
