<?xml version="1.0" encoding="utf-8"?>
<!-- Generator: Adobe Illustrator 18.0.0, SVG Export Plug-In . SVG Version: 6.00 Build 0)  -->
<!DOCTYPE svg PUBLIC "-//W3C//DTD SVG 1.1//EN" "http://www.w3.org/Graphics/SVG/1.1/DTD/svg11.dtd">
<svg version="1.1" xmlns="http://www.w3.org/2000/svg" xmlns:xlink="http://www.w3.org/1999/xlink" x="0px" y="0px" width="48px"
	 height="48px" viewBox="0 0 48 48" enable-background="new 0 0 48 48" xml:space="preserve">
<g id="Header">
	<g>
		<rect x="-848.5" y="-1336" fill="none" width="1400" height="4103"/>
	</g>
</g>
<g id="Labels">
</g>
<g id="Icon">
	<g>
		<g>
			<rect fill="none" width="48" height="48"/>
		</g>
		<path d="M41.88,22C40.96,13.66,34.34,7.04,26,6.12V2h-4v4.12C13.66,7.04,7.04,13.66,6.12,22H2v4h4.12
			C7.04,34.34,13.66,40.96,22,41.88V46h4v-4.12c8.34-0.92,14.96-7.54,15.88-15.88H46v-4H41.88z M24,38c-7.73,0-14-6.27-14-14
			c0-7.73,6.27-14,14-14c7.73,0,14,6.27,14,14C38,31.73,31.73,38,24,38z"/>
	</g>
</g>
<g id="Grid" display="none">
	<g display="inline">
		<line fill="none" stroke="#00E5FF" stroke-width="0.1" stroke-miterlimit="10" x1="42" y1="-1336" x2="42" y2="2216"/>
	</g>
</g>
</svg>
