<?xml version="1.0" encoding="utf-8"?>
<!-- Generator: Adobe Illustrator 18.0.0, SVG Export Plug-In . SVG Version: 6.00 Build 0)  -->
<!DOCTYPE svg PUBLIC "-//W3C//DTD SVG 1.1//EN" "http://www.w3.org/Graphics/SVG/1.1/DTD/svg11.dtd">
<svg version="1.1" xmlns="http://www.w3.org/2000/svg" xmlns:xlink="http://www.w3.org/1999/xlink" x="0px" y="0px" width="48px"
	 height="48px" viewBox="0 0 48 48" enable-background="new 0 0 48 48" xml:space="preserve">
<g id="Header">
	<g>
		<rect x="-848.5" y="-1464" fill="none" width="1400" height="4103"/>
	</g>
</g>
<g id="Labels">
</g>
<g id="Icon">
	<g>
		<g>
			<rect fill="none" width="48" height="48"/>
		</g>
		<path d="M41.88,22C40.96,13.66,34.34,7.04,26,6.12V2h-4v4.12c-2.26,0.25-4.38,0.93-6.31,1.94l3,3C20.33,10.38,22.12,10,24,10
			c7.73,0,14,6.27,14,14c0,1.88-0.38,3.67-1.05,5.31l3,3c1.01-1.93,1.68-4.05,1.93-6.31H46v-4H41.88z M6,8.55l4.07,4.07
			C7.93,15.24,6.51,18.46,6.12,22H2v4h4.12C7.04,34.34,13.66,40.96,22,41.88V46h4v-4.12c3.54-0.39,6.76-1.82,9.38-3.96L39.45,42
			L42,39.46L8.55,6L6,8.55z M32.53,35.08C30.17,36.9,27.22,38,24,38c-7.73,0-14-6.27-14-14c0-3.22,1.1-6.17,2.92-8.53L32.53,35.08z"
			/>
	</g>
</g>
<g id="Grid" display="none">
	<g display="inline">
		<line fill="none" stroke="#00E5FF" stroke-width="0.1" stroke-miterlimit="10" x1="42" y1="-1464" x2="42" y2="2088"/>
	</g>
</g>
</svg>
