<?xml version="1.0" encoding="utf-8"?>
<!-- Generator: Adobe Illustrator 18.0.0, SVG Export Plug-In . SVG Version: 6.00 Build 0)  -->
<!DOCTYPE svg PUBLIC "-//W3C//DTD SVG 1.1//EN" "http://www.w3.org/Graphics/SVG/1.1/DTD/svg11.dtd">
<svg version="1.1" xmlns="http://www.w3.org/2000/svg" xmlns:xlink="http://www.w3.org/1999/xlink" x="0px" y="0px" width="48px"
	 height="48px" viewBox="0 0 48 48" enable-background="new 0 0 48 48" xml:space="preserve">
<g id="Header">
	<g>
		<rect x="-838" y="-440" fill="none" width="1400" height="3600"/>
	</g>
</g>
<g id="Labels">
</g>
<g id="Icon">
	<g>
		<g>
			<rect y="-0.17" fill="none" width="48" height="48"/>
		</g>
		<path d="M41.88,22.17C40.96,13.83,34.34,7.21,26,6.29V2.17h-4v4.12C13.66,7.21,7.04,13.83,6.12,22.17H2v4h4.12
			C7.04,34.51,13.66,41.13,22,42.05v4.12h4v-4.12c8.34-0.92,14.96-7.54,15.88-15.88H46v-4H41.88z M24,38.17c-7.73,0-14-6.27-14-14
			c0-7.73,6.27-14,14-14c7.73,0,14,6.27,14,14C38,31.9,31.73,38.17,24,38.17z"/>
	</g>
</g>
<g id="Grid">
	<g>
	</g>
</g>
</svg>
