<?xml version="1.0" encoding="utf-8"?>
<!-- Generator: Adobe Illustrator 18.0.0, SVG Export Plug-In . SVG Version: 6.00 Build 0)  -->
<!DOCTYPE svg PUBLIC "-//W3C//DTD SVG 1.1//EN" "http://www.w3.org/Graphics/SVG/1.1/DTD/svg11.dtd">
<svg version="1.1" xmlns="http://www.w3.org/2000/svg" xmlns:xlink="http://www.w3.org/1999/xlink" x="0px" y="0px" width="48px"
	 height="48px" viewBox="0 0 48 48" enable-background="new 0 0 48 48" xml:space="preserve">
<g id="Header">
	<g>
		<rect x="-838" y="-3384" fill="none" width="1400" height="3600"/>
	</g>
</g>
<g id="Labels">
</g>
<g id="Icon">
	<g>
		<g>
			<rect y="-0.17" fill="none" width="48" height="48"/>
		</g>
		<path d="M41.88,22.17C40.96,13.83,34.34,7.21,26,6.29V2.17h-4v4.12c-2.26,0.25-4.38,0.93-6.31,1.94l3,3
			c1.64-0.67,3.43-1.05,5.31-1.05c7.73,0,14,6.27,14,14c0,1.88-0.38,3.67-1.05,5.31l3,3c1.01-1.93,1.68-4.05,1.93-6.31H46v-4H41.88z
			 M6,8.72l4.07,4.07c-2.14,2.62-3.57,5.84-3.96,9.38H2v4h4.12C7.04,34.51,13.66,41.13,22,42.05v4.12h4v-4.12
			c3.54-0.39,6.76-1.82,9.38-3.96l4.08,4.08L42,39.63L8.55,6.17L6,8.72z M32.53,35.25c-2.36,1.82-5.32,2.92-8.53,2.92
			c-7.73,0-14-6.27-14-14c0-3.22,1.1-6.17,2.92-8.53L32.53,35.25z"/>
	</g>
</g>
<g id="Grid" display="none">
	<g display="inline">
		<line fill="none" stroke="#00E5FF" stroke-width="0.1" stroke-miterlimit="10" x1="42" y1="-3384" x2="42" y2="168"/>
	</g>
</g>
</svg>
