<?xml version="1.0" encoding="utf-8"?>
<!-- Generator: Adobe Illustrator 18.0.0, SVG Export Plug-In . SVG Version: 6.00 Build 0)  -->
<!DOCTYPE svg PUBLIC "-//W3C//DTD SVG 1.1//EN" "http://www.w3.org/Graphics/SVG/1.1/DTD/svg11.dtd">
<svg version="1.1" xmlns="http://www.w3.org/2000/svg" xmlns:xlink="http://www.w3.org/1999/xlink" x="0px" y="0px" width="48px"
	 height="48px" viewBox="0 0 48 48" enable-background="new 0 0 48 48" xml:space="preserve">
<g id="Header">
	<g>
		<rect x="-838" y="-1080" fill="none" width="1400" height="3600"/>
	</g>
</g>
<g id="Labels">
</g>
<g id="Icon">
	<g>
		<path d="M8,8h14V4H8C5.79,4,4,5.79,4,8v14h4V8z M20,26l-8,10h24l-6-8l-4.06,5.42L20,26z M34,17c0-1.66-1.34-3-3-3
			c-1.66,0-3,1.34-3,3s1.34,3,3,3C32.66,20,34,18.66,34,17z M40,4H26v4h14v14h4V8C44,5.79,42.21,4,40,4z M40,40H26v4h14
			c2.21,0,4-1.79,4-4V26h-4V40z M8,26H4v14c0,2.21,1.79,4,4,4h14v-4H8V26z"/>
		<rect fill="none" width="48" height="48"/>
	</g>
</g>
<g id="Grid">
	<g>
	</g>
</g>
</svg>
