<?xml version="1.0" encoding="utf-8"?>
<!-- Generator: Adobe Illustrator 18.0.0, SVG Export Plug-In . SVG Version: 6.00 Build 0)  -->
<!DOCTYPE svg PUBLIC "-//W3C//DTD SVG 1.1//EN" "http://www.w3.org/Graphics/SVG/1.1/DTD/svg11.dtd">
<svg version="1.1" xmlns="http://www.w3.org/2000/svg" xmlns:xlink="http://www.w3.org/1999/xlink" x="0px" y="0px" width="48px"
	 height="48px" viewBox="0 0 48 48" enable-background="new 0 0 48 48" xml:space="preserve">
<g id="Header">
	<g>
		<rect x="-838" y="-696" fill="none" width="1400" height="3600"/>
	</g>
</g>
<g id="Labels">
</g>
<g id="Icon">
	<g>
		<g>
			<defs>
				<rect id="SVGID_4_" y="-0.17" width="48" height="48"/>
			</defs>
			<clipPath id="SVGID_2_">
				<use xlink:href="#SVGID_4_"  overflow="visible"/>
			</clipPath>
		</g>
		<g>
			<path fill="none" d="M8,39.83h32v-32H8V39.83z"/>
			<path d="M40,4.17H8c-2.21,0-4,1.79-4,4v32c0,2.21,1.79,4,4,4h32c2.21,0,4-1.79,4-4v-32C44,5.96,42.21,4.17,40,4.17z M40,40.17H8
				v-32h32V40.17z M36,12.17H26c-2.21,0-4,1.79-4,4v4.55c-1.19,0.69-2,1.97-2,3.45c0,2.21,1.79,4,4,4s4-1.79,4-4
				c0-1.48-0.81-2.75-2-3.45v-4.55h6v16H16v-16h4v-4h-4h-4v24h24V12.17z"/>
		</g>
	</g>
</g>
<g id="Grid">
	<g>
	</g>
</g>
</svg>
