<?xml version="1.0" encoding="utf-8"?>
<!-- Generator: Adobe Illustrator 18.0.0, SVG Export Plug-In . SVG Version: 6.00 Build 0)  -->
<!DOCTYPE svg PUBLIC "-//W3C//DTD SVG 1.1//EN" "http://www.w3.org/Graphics/SVG/1.1/DTD/svg11.dtd">
<svg version="1.1" xmlns="http://www.w3.org/2000/svg" xmlns:xlink="http://www.w3.org/1999/xlink" x="0px" y="0px" width="48px"
	 height="48px" viewBox="0 0 48 48" enable-background="new 0 0 48 48" xml:space="preserve">
<g id="Header">
	<g>
		<rect x="-848.5" y="-1976" fill="none" width="1400" height="4103"/>
	</g>
</g>
<g id="Labels">
</g>
<g id="Icon">
	<g>
		<rect fill="none" width="48" height="48"/>
		<path d="M32.97,5.03C39.5,8.13,44.19,14.48,44.9,22h3C46.88,9.68,36.58,0,24,0c-0.45,0-0.88,0.04-1.33,0.07L30.3,7.7L32.97,5.03z
			 M20.46,3.49c-1.17-1.17-3.07-1.17-4.24,0L3.49,16.22c-1.17,1.17-1.17,3.07,0,4.24l24.04,24.04c1.17,1.17,3.07,1.17,4.24,0
			l12.73-12.73c1.17-1.17,1.17-3.07,0-4.24L20.46,3.49z M29.66,42.38L5.61,18.34L18.34,5.61l24.04,24.04L29.66,42.38z M15.03,42.97
			C8.5,39.87,3.81,33.52,3.1,26h-3C1.12,38.32,11.42,48,24,48c0.45,0,0.88-0.04,1.33-0.07L17.7,40.3L15.03,42.97z"/>
	</g>
</g>
<g id="Grid" display="none">
	<g display="inline">
		<line fill="none" stroke="#00E5FF" stroke-width="0.1" stroke-miterlimit="10" x1="42" y1="-1976" x2="42" y2="1576"/>
	</g>
</g>
</svg>
