<?xml version="1.0" encoding="utf-8"?>
<!-- Generator: Adobe Illustrator 18.0.0, SVG Export Plug-In . SVG Version: 6.00 Build 0)  -->
<!DOCTYPE svg PUBLIC "-//W3C//DTD SVG 1.1//EN" "http://www.w3.org/Graphics/SVG/1.1/DTD/svg11.dtd">
<svg version="1.1" xmlns="http://www.w3.org/2000/svg" xmlns:xlink="http://www.w3.org/1999/xlink" x="0px" y="0px" width="48px"
	 height="48px" viewBox="0 0 48 48" enable-background="new 0 0 48 48" xml:space="preserve">
<g id="Header">
	<g>
		<rect x="-838" y="-2488" fill="none" width="1400" height="3600"/>
	</g>
</g>
<g id="Labels">
</g>
<g id="Icon">
	<g>
		<g>
			<path fill-opacity="0.3" d="M24,43l23.3-29c-0.9-0.7-9.8-8-23.3-8S1.6,13.3,0.7,14L24,43L24,43L24,43L24,43L24,43z"/>
			<rect fill="none" width="48" height="48"/>
		</g>
		<path d="M9.6,25L24,43l0,0l0,0l0,0l0,0l14.4-18c-0.7-0.6-6.2-5-14.4-5C15.8,20,10.3,24.5,9.6,25z"/>
	</g>
</g>
<g id="Grid" display="none">
	<g display="inline">
		<line fill="none" stroke="#00E5FF" stroke-width="0.1" stroke-miterlimit="10" x1="42" y1="-2488" x2="42" y2="1064"/>
	</g>
</g>
</svg>
