<?xml version="1.0" encoding="utf-8"?>
<!-- Generator: Adobe Illustrator 18.0.0, SVG Export Plug-In . SVG Version: 6.00 Build 0)  -->
<!DOCTYPE svg PUBLIC "-//W3C//DTD SVG 1.1//EN" "http://www.w3.org/Graphics/SVG/1.1/DTD/svg11.dtd">
<svg version="1.1" xmlns="http://www.w3.org/2000/svg" xmlns:xlink="http://www.w3.org/1999/xlink" x="0px" y="0px" width="18px"
	 height="18px" viewBox="0 0 18 18" enable-background="new 0 0 18 18" xml:space="preserve">
<g id="Header">
	<g>
		<rect x="-520" y="-1976" fill="none" width="1400" height="3600"/>
	</g>
</g>
<g id="Labels">
</g>
<g id="Icon">
	<g>
		<rect fill="none" width="18" height="18"/>
		<path d="M17.8,5C17.5,4.8,14.1,2,9,2C7.8,2,6.7,2.2,5.7,2.4l7.9,7.9L17.8,5z M1.5,2l1.4,1.4C1.3,4.1,0.4,4.9,0.2,5L9,16l0,0l0,0
			l0,0l0,0l2.9-3.6l0.1,0.1l2.5,2.5l1-1L2.5,1.1L1.5,2z"/>
	</g>
</g>
<g id="Grid" display="none">
	<g display="inline">
		<line fill="none" stroke="#00E5FF" stroke-width="0.1" stroke-miterlimit="10" x1="0" y1="-1976" x2="0" y2="1576"/>
	</g>
</g>
</svg>
