<?xml version="1.0" encoding="utf-8"?>
<!-- Generator: Adobe Illustrator 18.0.0, SVG Export Plug-In . SVG Version: 6.00 Build 0)  -->
<!DOCTYPE svg PUBLIC "-//W3C//DTD SVG 1.1//EN" "http://www.w3.org/Graphics/SVG/1.1/DTD/svg11.dtd">
<svg version="1.1" xmlns="http://www.w3.org/2000/svg" xmlns:xlink="http://www.w3.org/1999/xlink" x="0px" y="0px" width="48px"
	 height="48px" viewBox="0 0 48 48" enable-background="new 0 0 48 48" xml:space="preserve">
<g id="Header">
	<g>
		<rect x="-838" y="-2232" fill="none" width="1400" height="3600"/>
	</g>
</g>
<g id="Labels">
</g>
<g id="Icon">
	<g>
		<g>
			<g>
				<rect fill="none" width="48" height="48"/>
			</g>
		</g>
		<path d="M20,32h8c1.1,0,2-0.9,2-2v-6c0-1.1-0.9-2-2-2v-2c0-2.2-1.8-4-4-4c-2.2,0-4,1.8-4,4v2c-1.1,0-2,0.9-2,2v6
			C18,31.1,18.9,32,20,32z M21.6,20c0-1.3,1.1-2.4,2.4-2.4c1.3,0,2.4,1.1,2.4,2.4v2h-4.8V20z M34,2H14c-2.2,0-4,1.8-4,4v36
			c0,2.2,1.8,4,4,4h20c2.2,0,4-1.8,4-4V6C38,3.8,36.2,2,34,2z M34,38H14V10h20V38z"/>
	</g>
</g>
<g id="Grid" display="none">
	<g display="inline">
		<line fill="none" stroke="#00E5FF" stroke-width="0.1" stroke-miterlimit="10" x1="42" y1="-2232" x2="42" y2="1320"/>
	</g>
</g>
</svg>
