<?xml version="1.0" encoding="utf-8"?>
<!-- Generator: Adobe Illustrator 17.1.0, SVG Export Plug-In . SVG Version: 6.00 Build 0)  -->
<!DOCTYPE svg PUBLIC "-//W3C//DTD SVG 1.1//EN" "http://www.w3.org/Graphics/SVG/1.1/DTD/svg11.dtd">
<svg version="1.1" xmlns="http://www.w3.org/2000/svg" xmlns:xlink="http://www.w3.org/1999/xlink" x="0px" y="0px" width="48px"
	 height="48px" viewBox="0 0 48 48" enable-background="new 0 0 48 48" xml:space="preserve">
<g id="Header">
	<g>
		<rect x="-838" y="-824" fill="none" width="1400" height="3600"/>
	</g>
</g>
<g id="Labels">
</g>
<g id="Icon">
	<g>
		<path d="M46.5,25.5l-5.1-5.1l-2.8,2.8l4.4,4.4L31.7,39L9,16.3L20.3,5l4.2,4.2l2.8-2.8l-4.9-4.9c-1.2-1.2-3.1-1.2-4.2,0L5.5,14.2
			c-1.2,1.2-1.2,3.1,0,4.2l24,24c1.2,1.2,3.1,1.2,4.2,0l12.7-12.7C47.7,28.6,47.7,26.7,46.5,25.5z M16.9,41C10.4,37.9,5.7,31.5,5,24
			H2c1,12.3,11.3,22,23.9,22c0.4,0,0.9,0,1.3-0.1l-7.6-7.6L16.9,41z M32,18h10c1.1,0,2-0.9,2-2V8c0-1.1-0.9-2-2-2V5c0-2.8-2.2-5-5-5
			c-2.8,0-5,2.2-5,5v1c-1.1,0-2,0.9-2,2v8C30,17.1,30.9,18,32,18z M33.6,5c0-1.9,1.5-3.4,3.4-3.4c1.9,0,3.4,1.5,3.4,3.4v1h-6.8V5z"
			/>
		<rect fill="none" width="48" height="48"/>
	</g>
</g>
<g id="Grid" display="none">
	<g display="inline">
		<line fill="none" stroke="#00E5FF" stroke-width="0.1" stroke-miterlimit="10" x1="42" y1="-824" x2="42" y2="2728"/>
	</g>
</g>
</svg>
