<?xml version="1.0" encoding="utf-8"?>
<!-- Generator: Adobe Illustrator 18.0.0, SVG Export Plug-In . SVG Version: 6.00 Build 0)  -->
<!DOCTYPE svg PUBLIC "-//W3C//DTD SVG 1.1//EN" "http://www.w3.org/Graphics/SVG/1.1/DTD/svg11.dtd">
<svg version="1.1" xmlns="http://www.w3.org/2000/svg" xmlns:xlink="http://www.w3.org/1999/xlink" x="0px" y="0px" width="48px"
	 height="48px" viewBox="0 0 48 48" enable-background="new 0 0 48 48" xml:space="preserve">
<g id="Header">
	<rect x="-838" y="-2232" fill="none" width="1400" height="3600"/>
</g>
<g id="Label">
</g>
<g id="Icon">
	<g>
		<rect fill="none" width="48" height="48"/>
		<g>
			<path d="M14.3,27.3l2,3.5c0.1,0.2,0.4,0.3,0.6,0.2l2.5-1c0.5,0.4,1.1,0.7,1.7,1l0.4,2.6c0,0.2,0.2,0.4,0.5,0.4h4
				c0.2,0,0.5-0.2,0.5-0.4l0.4-2.6c0.6-0.3,1.2-0.6,1.7-1l2.5,1c0.2,0.1,0.5,0,0.6-0.2l2-3.5c0.1-0.2,0.1-0.5-0.1-0.6L31.4,25
				c0-0.3,0.1-0.6,0.1-1s0-0.7-0.1-1l2.1-1.7c0.2-0.2,0.2-0.4,0.1-0.6l-2-3.5c-0.1-0.2-0.4-0.3-0.6-0.2l-2.5,1
				c-0.5-0.4-1.1-0.7-1.7-1l-0.4-2.6c0-0.2-0.2-0.4-0.5-0.4h-4c-0.2,0-0.5,0.2-0.5,0.4l-0.4,2.6c-0.6,0.3-1.2,0.6-1.7,1l-2.5-1
				c-0.2-0.1-0.5,0-0.6,0.2l-2,3.5c-0.1,0.2-0.1,0.5,0.1,0.6l2.1,1.7c0,0.3-0.1,0.6-0.1,1s0,0.7,0.1,1l-2.1,1.7
				C14.3,26.8,14.2,27.1,14.3,27.3z M24,20c2.2,0,4,1.8,4,4s-1.8,4-4,4s-4-1.8-4-4S21.8,20,24,20z M42,6H6c-2.2,0-4,1.8-4,4v28
				c0,2.2,1.8,4,4,4h36c2.2,0,4-1.8,4-4V10C46,7.8,44.2,6,42,6z M42,38H6V10h36V38z"/>
		</g>
	</g>
</g>
<g id="Grid" display="none">
	<g display="inline">
		<line fill="none" stroke="#00E5FF" stroke-width="0.1" stroke-miterlimit="10" x1="42" y1="-2232" x2="42" y2="1320"/>
	</g>
</g>
</svg>
