<?xml version="1.0" encoding="utf-8"?>
<!-- Generator: Adobe Illustrator 18.0.0, SVG Export Plug-In . SVG Version: 6.00 Build 0)  -->
<!DOCTYPE svg PUBLIC "-//W3C//DTD SVG 1.1//EN" "http://www.w3.org/Graphics/SVG/1.1/DTD/svg11.dtd">
<svg version="1.1" xmlns="http://www.w3.org/2000/svg" xmlns:xlink="http://www.w3.org/1999/xlink" x="0px" y="0px" width="48px"
	 height="48px" viewBox="0 0 48 48" enable-background="new 0 0 48 48" xml:space="preserve">
<g id="Header">
	<g>
		<rect x="-838" y="-3128" fill="none" width="1400" height="3600"/>
	</g>
</g>
<g id="Labels">
</g>
<g id="Icon">
	<g>
		<g>
			<rect fill="none" width="48" height="48"/>
		</g>
		<path d="M30,2.04H18v4h12V2.04z M22,28.04h4v-12h-4V28.04z M38.05,14.81l2.85-2.85c-0.86-1.03-1.8-1.97-2.83-2.83l-2.85,2.85
			c-3.08-2.46-6.98-3.95-11.24-3.95C14.04,8.04,6,16.1,6,26.04c0,9.94,8.04,18,17.99,18c9.95,0,18.01-8.06,18.01-18
			C42,21.79,40.52,17.89,38.05,14.81z M24,40.04c-7.73,0-14-6.27-14-14c0-7.73,6.27-14,14-14c7.73,0,14,6.27,14,14
			C38,33.77,31.73,40.04,24,40.04z"/>
	</g>
</g>
<g id="Grid" display="none">
	<g display="inline">
		<line fill="none" stroke="#00E5FF" stroke-width="0.1" stroke-miterlimit="10" x1="42" y1="-3128" x2="42" y2="424"/>
	</g>
</g>
</svg>
