<?xml version="1.0" encoding="utf-8"?>
<!-- Generator: Adobe Illustrator 17.1.0, SVG Export Plug-In . SVG Version: 6.00 Build 0)  -->
<!DOCTYPE svg PUBLIC "-//W3C//DTD SVG 1.1//EN" "http://www.w3.org/Graphics/SVG/1.1/DTD/svg11.dtd">
<svg version="1.1" xmlns="http://www.w3.org/2000/svg" xmlns:xlink="http://www.w3.org/1999/xlink" x="0px" y="0px" width="18px"
	 height="18px" viewBox="0 0 18 18" enable-background="new 0 0 18 18" xml:space="preserve">
<g id="Header">
	<g>
		<rect x="-520" y="-568" fill="none" width="1400" height="3600"/>
	</g>
</g>
<g id="Labels">
</g>
<g id="Icon">
	<g>
		<rect fill="none" width="18" height="18"/>
		<path d="M11,6.5v2h0.5V10h-2V5H11L9,2L7,5h1.5v5h-2V8.5c0.4-0.2,0.6-0.5,0.6-1c0-0.6-0.5-1.1-1.1-1.1c-0.6,0-1.1,0.5-1.1,1.1
			c0,0.4,0.2,0.8,0.6,1V10c0,0.6,0.4,1,1,1h2v2.1c-0.6,0.2-1,0.8-1,1.4C7.5,15.3,8.2,16,9,16c0.8,0,1.5-0.7,1.5-1.5
			c0-0.7-0.4-1.2-1-1.4V11h2c0.6,0,1-0.4,1-1V8.5H13v-2H11z"/>
	</g>
</g>
<g id="Grid" display="none">
	<g display="inline">
		<line fill="none" stroke="#00E5FF" stroke-width="0.1" stroke-miterlimit="10" x1="0" y1="-568" x2="0" y2="2984"/>
	</g>
</g>
</svg>
