<?xml version="1.0" encoding="utf-8"?>
<!-- Generator: Adobe Illustrator 17.1.0, SVG Export Plug-In . SVG Version: 6.00 Build 0)  -->
<!DOCTYPE svg PUBLIC "-//W3C//DTD SVG 1.1//EN" "http://www.w3.org/Graphics/SVG/1.1/DTD/svg11.dtd">
<svg version="1.1" xmlns="http://www.w3.org/2000/svg" xmlns:xlink="http://www.w3.org/1999/xlink" x="0px" y="0px" width="48px"
	 height="48px" viewBox="0 0 48 48" enable-background="new 0 0 48 48" xml:space="preserve">
<g id="Header">
	<g>
		<rect x="-838" y="-696" fill="none" width="1400" height="3600"/>
	</g>
</g>
<g id="Labels">
</g>
<g id="Icon">
	<g>
		<rect fill="none" width="48" height="48"/>
		<path d="M24,22c-2.2,0-4,1.8-4,4c0,2.2,1.8,4,4,4c2.2,0,4-1.8,4-4C28,23.8,26.2,22,24,22z M36,26c0-6.6-5.4-12-12-12
			c-6.6,0-12,5.4-12,12c0,4.4,2.4,8.3,6,10.4l2-3.5c-2.4-1.4-4-3.9-4-6.9c0-4.4,3.6-8,8-8s8,3.6,8,8c0,3-1.6,5.5-4,6.9l2,3.5
			C33.6,34.3,36,30.4,36,26z M24,6C13,6,4,15,4,26c0,7.4,4,13.8,10,17.3l2-3.5c-4.8-2.8-8-7.9-8-13.8c0-8.8,7.2-16,16-16
			s16,7.2,16,16c0,5.9-3.2,11.1-8,13.8l2,3.5c6-3.5,10-9.9,10-17.3C44,15,35,6,24,6z"/>
	</g>
</g>
<g id="Grid" display="none">
	<g display="inline">
		<line fill="none" stroke="#00E5FF" stroke-width="0.1" stroke-miterlimit="10" x1="42" y1="-696" x2="42" y2="2856"/>
	</g>
</g>
</svg>
