<svg xmlns="http://www.w3.org/2000/svg" xmlns:xlink="http://www.w3.org/1999/xlink" viewBox="0 0 80 80">    <defs>        <circle id="a" cx="40" cy="40" r="40"></circle>    </defs>    <use xlink:href="#a" overflow="visible" fill="#FF5252"></use>    <clipPath id="b">        <use xlink:href="#a" overflow="visible"></use>    </clipPath>    <g clip-path="url(#b)">        <path fill="#231F20" d="M33.56 20.08c3.04 3.04 3.04 7.96 0 11s-7.96 3.04-11 0-6.52-9.2-1.96-13.76 9.92-.28 12.96 2.76zm12.88 0c-3.04 3.04-3.04 7.96 0 11s7.96 3.04 11 0 6.52-9.2 1.96-13.76-9.92-.28-12.96 2.76z"></path>        <path fill="#231F20" d="M40 113.31c28.76 0 35.01-9.32 35.01-26.73s-11.52-24.5-12.94-32.2-.81-13.57-3.24-20.25c-4-11-7.41-13.97-17.21-13.97s-16.45 2.97-20.45 13.97c-2.43 6.68-1.82 12.56-3.24 20.25-1.42 7.7-12.94 14.78-12.94 32.2s6.26 26.73 35.01 26.73z"></path>        <path fill="#FFF" d="M40 59.82c14.5 0 21.61-5.67 21.61-14.78.1-3.69-1.42-7.17-2.78-10.9-4-11-7.41-13.97-17.21-13.97-9.81 0-16.45 2.97-20.45 13.97-1.36 3.73-2.88 7.21-2.78 10.9 0 9.11 7.11 14.78 21.61 14.78zm24.1 35.35c0 19.71-3.16 35.68-24.1 35.68s-24.1-15.98-24.1-35.68S21.6 65.5 40 65.5s24.1 9.96 24.1 29.67z"></path>        <path fill="#231F20" d="M45.61 35.3c2.43-.82 4.44 1.35 6.27 3.02 1.7 1.55 2.82 2.96 2.43 5.63-.43 2.96-6.17 3.45-9.01.01-2.83-3.45-2.53-7.7.31-8.66zm-11.22 0c-2.43-.82-4.44 1.35-6.27 3.02-1.7 1.55-2.82 2.96-2.43 5.63.43 2.96 6.17 3.45 9.01.01 2.83-3.45 2.53-7.7-.31-8.66z"></path>        <path fill="none" stroke="#42A5F5" stroke-miterlimit="10" d="M40 52.67v-5.3"></path>        <path d="M43.93 51.75c-1.13.49-2.58.51-3.93.51s-2.8-.02-3.93-.51c-1.58-.69-1.68 2.06 3.93 2.06s5.5-2.75 3.93-2.06z"></path>        <path fill="#231F20" d="M43.62 46.8c0 .99-2.07 1.8-3.62 1.8s-3.62-.8-3.62-1.8 2.07-1.02 3.62-1.02 3.62.03 3.62 1.02z"></path>        <circle fill="#FFF" cx="32.62" cy="41.69" r="1.29"></circle>        <circle fill="#FFF" cx="47.38" cy="41.69" r="1.29"></circle>    </g></svg>