<svg xmlns="http://www.w3.org/2000/svg" xmlns:xlink="http://www.w3.org/1999/xlink" viewBox="0 0 80 80">    <defs>        <circle id="a" cx="40" cy="40" r="40"></circle>    </defs>    <use xlink:href="#a" overflow="visible" fill="#00E676"></use>    <clipPath id="b">        <use xlink:href="#a" overflow="visible"></use>    </clipPath>    <g clip-path="url(#b)">        <path fill="#D23F31" d="M58.12 64.07c1.77-13.98 5.38-20.89 3.38-32.18S50.83 15.38 40 15.38 20.49 20.6 18.5 31.89s1.61 18.2 3.38 32.18-3.23 20.51-13.06 29.42h62.36c-9.83-8.91-14.82-15.44-13.06-29.42z"></path>        <path fill="#FFF" d="M40 24.46c-8.21 0-16.26 1.95-17.98 9.6-1.73 7.65 1.29 16.05 17.98 16.05s19.71-8.4 17.98-16.05c-1.72-7.65-9.77-9.6-17.98-9.6z"></path>        <path fill="#D23F31" d="M21.16 36.69c4.58-3.09 8.4-5.6 11.05-4.39 2.65 1.21 3.1 4.63.24 6.25s-7.91 3.78-10.39 6.71-6.39-4.86-.9-8.57zm37.68 0c-4.58-3.09-8.4-5.6-11.05-4.39-2.65 1.21-3.1 4.63-.24 6.25 2.86 1.62 7.91 3.78 10.39 6.71s6.39-4.86.9-8.57z"></path>        <circle fill="#FFF" cx="30.18" cy="35.43" r="1.29"></circle>        <circle fill="#FFF" cx="49.82" cy="35.43" r="1.29"></circle>        <path d="M43.06 38.62c0 1.2.57 2.04-3.06 2.04-3.64 0-3.06-.84-3.06-2.04 0-1.2 1.37-2.18 3.06-2.18s3.06.98 3.06 2.18zm1.16 3.48c4.08-1.5 1.26 1.86-4.22 1.86s-8.28-3.36-4.22-1.86c.55.2 2.38.53 4.22.53 1.84 0 3.67-.33 4.22-.53z"></path>    </g></svg>