<svg xmlns="http://www.w3.org/2000/svg" xmlns:xlink="http://www.w3.org/1999/xlink" viewBox="0 0 80 80">    <defs>        <circle id="a" cx="40" cy="-80" r="40"></circle>    </defs>    <use xlink:href="#a" overflow="visible" fill="#18FFFF"></use>    <clipPath id="b">        <use xlink:href="#a" overflow="visible"></use>    </clipPath>    <path clip-path="url(#b)" fill="#FF4081" d="M70.51-50.6c-7.23-10.35-11.91-14.26-9.57-27.54S55.27-105.68 40-105.68 16.72-91.42 19.06-78.14 16.72-60.95 9.49-50.6s-10.16 34.57 0 46.68S31.06 8.38 40 8.38s20.35-.2 30.51-12.3 7.23-36.33 0-46.68z"></path>    <defs>        <circle id="c" cx="40" cy="40" r="40"></circle>    </defs>    <use xlink:href="#c" overflow="visible" fill="#80DEEA"></use>    <clipPath id="d">        <use xlink:href="#c" overflow="visible"></use>    </clipPath>    <path clip-path="url(#d)" fill="#FFF59D" stroke="#FFF176" stroke-width="3" stroke-miterlimit="10" d="M61.67 21.76c0 3.52-2.85 6.38-6.38 6.38-3.52 0-6.38-2.85-6.38-6.38s2.85-7.38 6.38-7.38c3.52 0 6.38 3.85 6.38 7.38zm-43.34 0c0 3.52 2.85 6.38 6.38 6.38s6.38-2.85 6.38-6.38-2.85-7.38-6.38-7.38-6.38 3.85-6.38 7.38z"></path>    <g clip-path="url(#d)">        <path fill="#FFF176" d="M65.29 72.39c-2.25-4.5-1.96-19.5-3-29.88-.85-8.58-6.25-27.13-22.29-27.13S18.56 33.93 17.71 42.51c-1.04 10.38-.75 25.38-3 29.88S12.29 88.26 40 88.26s27.54-11.37 25.29-15.87z"></path>        <path d="M43.78 36.71c0 1.48-1.69 3.42-3.78 3.42s-3.78-1.93-3.78-3.42c0-1.48 1.69-2.69 3.78-2.69s3.78 1.21 3.78 2.69z"></path>        <circle cx="32.5" cy="31.11" r="1.29"></circle>        <circle cx="47.5" cy="31.11" r="1.29"></circle>        <path d="M43.32 47.46c3.27-.95 1.59 1.86-3.32 1.86s-6.59-2.81-3.32-1.86c1.37.4 5.27.4 6.64 0z"></path>        <path fill="none" stroke="#000" stroke-miterlimit="10" d="M40 38.07v10.34"></path>        <circle fill="#FFF59D" cx="40" cy="83.07" r="18.16"></circle>    </g>    <path clip-path="url(#d)" fill="none" stroke="#000" stroke-miterlimit="10" d="M40 39.07v6.22"></path></svg>