<svg xmlns="http://www.w3.org/2000/svg" width="48" height="48" viewBox="0 0 48 48">
    <path d="M0 0h48v48h-48z" fill="none"/>
    <path d="M38.12 48c2.01 0 3.55-1.48 3.83-3.41l2.01-14.05c.03-.18.04-.36.04-.54 0-1.66-1.01-3.08-2.44-3.68l-12.11-6.03c-.45-.18-.93-.29-1.45-.29h-2v-4h3.5c3.31 0 6-2.69 6-6s-2.69-6-6-6c-1.5 0-2.28.44-3.5 1.5v-1.5c0-2.21-1.79-4-4-4s-4 1.79-4 4v1.5c-1.22-1.06-2-1.5-3.5-1.5-3.31 0-6 2.69-6 6s2.69 6 6 6h3.5v16.63l-9.14-1.91c-.2-.04-.41-.07-.63-.07-.83 0-1.58.34-2.12.88l-2.11 2.13 13.17 13.17c.73.72 1.73 1.17 2.83 1.17h18.12zm-23.62-34.5c-1.93 0-3.5-1.57-3.5-3.5s1.57-3.5 3.5-3.5 3.5 1.57 3.5 3.5v3.5h-3.5zm15-7c1.93 0 3.5 1.57 3.5 3.5s-1.57 3.5-3.5 3.5h-3.5v-3.5c0-1.93 1.57-3.5 3.5-3.5z"/>
</svg>
