<svg xmlns="http://www.w3.org/2000/svg" width="48" height="48" viewBox="0 0 48 48">
    <path d="M0 0h48v48h-48z" fill="none"/>
    <path d="M4 24c0-5.22 3.34-9.65 8-11.3v-4.18c-6.9 1.78-12 8.03-12 15.48s5.1 13.7 12 15.48v-4.18c-4.66-1.65-8-6.08-8-11.3zm44 0l-8-8v6h-14v4h14v6l8-8zm-20 12c-6.63 0-12-5.37-12-12s5.37-12 12-12c3.31 0 6.31 1.34 8.48 3.51l2.83-2.83c-2.89-2.89-6.89-4.68-11.31-4.68-8.84 0-16 7.16-16 16s7.16 16 16 16c4.42 0 8.42-1.79 11.31-4.69l-2.83-2.83c-2.17 2.18-5.17 3.52-8.48 3.52z"/>
</svg>
