<?xml version="1.0" encoding="utf-8"?>
<!-- Generator: Adobe Illustrator 17.1.0, SVG Export Plug-In . SVG Version: 6.00 Build 0)  -->
<!DOCTYPE svg PUBLIC "-//W3C//DTD SVG 1.1//EN" "http://www.w3.org/Graphics/SVG/1.1/DTD/svg11.dtd">
<svg version="1.1" xmlns="http://www.w3.org/2000/svg" xmlns:xlink="http://www.w3.org/1999/xlink" x="0px" y="0px" width="36px"
	 height="36px" viewBox="0 0 36 36" enable-background="new 0 0 36 36" xml:space="preserve">
<g id="Header">
	<g>
		<rect x="-722" y="-2616" fill="none" width="1400" height="3600"/>
	</g>
</g>
<g id="Label">
</g>
<g id="Icon">
	<g>
		<rect fill="none" width="36" height="36"/>
		<g>
			<path d="M26.5,9.5C24.3,7.4,21.3,6,18,6C11.4,6,6,11.4,6,18c0,6.6,5.4,12,12,12c5.9,0,10.9-4.3,11.8-10h-3c-0.9,4-4.5,7-8.8,7
				c-5,0-9-4-9-9s4-9,9-9c2.5,0,4.7,1,6.3,2.7L20,16h10V6L26.5,9.5z"/>
		</g>
	</g>
</g>
<g id="Grid" display="none">
	<g display="inline">
	</g>
</g>
</svg>
