<svg width="195" height="183" viewBox="0 0 195 183" xmlns="http://www.w3.org/2000/svg"><title>Oval 43 + Oval 43 + Oval 43</title><g fill="none" fill-rule="evenodd"><path d="M130 182.5c35.622 0 64.5-28.878 64.5-64.5S165.622 53.5 130 53.5 65.5 82.378 65.5 118s28.878 64.5 64.5 64.5zm0-3c-33.966 0-61.5-27.534-61.5-61.5S96.034 56.5 130 56.5s61.5 27.534 61.5 61.5-27.534 61.5-61.5 61.5z" fill="#6200EE"/><path d="M65 182.5c35.622 0 64.5-28.878 64.5-64.5S100.622 53.5 65 53.5.5 82.378.5 118s28.878 64.5 64.5 64.5zm0-3c-33.966 0-61.5-27.534-61.5-61.5S31.034 56.5 65 56.5s61.5 27.534 61.5 61.5-27.534 61.5-61.5 61.5z" fill="#F0F5C1"/><path d="M95 129.5c35.622 0 64.5-28.878 64.5-64.5S130.622.5 95 .5 30.5 29.378 30.5 65s28.878 64.5 64.5 64.5zm0-3c-33.966 0-61.5-27.534-61.5-61.5S61.034 3.5 95 3.5s61.5 27.534 61.5 61.5-27.534 61.5-61.5 61.5z" fill="#FF897D"/></g></svg>