<svg width="182" height="171" viewBox="0 0 182 171" xmlns="http://www.w3.org/2000/svg"><title>customize copy</title><g fill="#FFCCBA" fill-rule="evenodd"><path d="M105.515 86.807l14.873 58.24 2.907-.743-14.873-58.24-2.907.743zM80.98 170.528l63.374-18.434-.838-2.88-63.374 18.434.838 2.88zM44.44 142.63L30.953 89.773l-2.907.742 13.485 52.856 2.907-.74zM3.45 71.582l27.697-47.97-2.598-1.5L.852 70.082l2.598 1.5zM50.795 48.577l47.95-14.956-.893-2.863-47.95 14.956.893 2.864zM118.257 2.77L165.12 29.83l1.5-2.6L119.758.173l-1.5 2.6zM139.667 51.922l12.836 50.314 2.907-.742-12.836-50.314-2.907.742zM152.88 166.78l2.597 1.5 25.644-44.418-2.597-1.5-25.644 44.417z"/></g></svg>