<svg width="156" height="172" viewBox="0 0 156 172" xmlns="http://www.w3.org/2000/svg"><title>customize</title><g fill="#FFCCBA" fill-rule="evenodd"><path d="M118.325 123.582L74.773 169.03l2.166 2.075 45.538-47.523-41.757-43.37-2.16 2.082 39.765 41.288zM42.37 122.04L4.263 83.01l-2.147 2.096 38.107 39.033 2.147-2.096zM3.5 61.543V6.153h-3v55.39h3zM44.402 46.147L78.452 9.22l-2.207-2.034-34.048 36.928 2.205 2.033zM101.382 3.5h54.114v-3h-54.114v3zM114.33 46.178L150.6 83.333l2.146-2.095-36.273-37.155-2.146 2.095zM151.5 157.965h3v-51.29h-3v51.29z"/></g></svg>