<svg width="168" height="152" viewBox="0 0 168 152" xmlns="http://www.w3.org/2000/svg"><title>Shape</title><path d="M108.465 2.538l16.145 15.724.385.43h25.598c8.192 0 14.862 6.9 14.862 15.385v100c0 8.485-6.662 15.385-14.862 15.385H17.4c-8.2 0-14.863-6.9-14.863-15.385v-100c0-8.485 6.663-15.385 14.862-15.385H42.997l.445-.43 16.2-15.724h48.945-.123zM108.972 1H59.02L42.367 17.154H17.392C8.202 17.154 1 24.877 1 34.077v100C1 143.285 8.2 151 17.4 151h133.2c9.192 0 16.4-7.723 16.4-16.923v-100c0-9.2-7.2-16.923-16.4-16.923h-24.975L108.972 1z" stroke="#F5C7C1" fill="#F5C6C1" fill-rule="evenodd"/></svg>