<?xml version="1.0" encoding="utf-8"?>
<!-- Generator: Adobe Illustrator 17.1.0, SVG Export Plug-In . SVG Version: 6.00 Build 0)  -->
<!DOCTYPE svg PUBLIC "-//W3C//DTD SVG 1.1//EN" "http://www.w3.org/Graphics/SVG/1.1/DTD/svg11.dtd">
<svg version="1.1" xmlns="http://www.w3.org/2000/svg" xmlns:xlink="http://www.w3.org/1999/xlink" x="0px" y="0px" width="18px"
	 height="18px" viewBox="0 0 18 18" enable-background="new 0 0 18 18" xml:space="preserve">
<g id="Header">
	<g>
		<rect x="-520" y="-824" fill="none" width="1400" height="3600"/>
	</g>
</g>
<g id="Label">
</g>
<g id="Icon">
	<g>
		<g>
			<rect fill="none" width="18" height="18"/>
			<path d="M9,7c1.7,0,3-1.3,3-3s-1.3-3-3-3C7.3,1,6,2.3,6,4S7.3,7,9,7z M9,2.5c0.8,0,1.5,0.7,1.5,1.5c0,0.8-0.7,1.5-1.5,1.5
				C8.2,5.5,7.5,4.8,7.5,4C7.5,3.2,8.2,2.5,9,2.5z M14,10c-1.7,0-3,1.3-3,3s1.3,3,3,3c1.7,0,3-1.3,3-3S15.7,10,14,10z M14,14.5
				c-0.8,0-1.5-0.7-1.5-1.5c0-0.8,0.7-1.5,1.5-1.5c0.8,0,1.5,0.7,1.5,1.5C15.5,13.8,14.8,14.5,14,14.5z M9,8C8.2,8,7.5,8.7,7.5,9.5
				S8.2,11,9,11s1.5-0.7,1.5-1.5S9.8,8,9,8z M4,10c-1.7,0-3,1.3-3,3s1.3,3,3,3c1.7,0,3-1.3,3-3S5.7,10,4,10z M4,14.5
				c-0.8,0-1.5-0.7-1.5-1.5c0-0.8,0.7-1.5,1.5-1.5c0.8,0,1.5,0.7,1.5,1.5C5.5,13.8,4.8,14.5,4,14.5z"/>
		</g>
		<g>
			<g>
				<rect fill="none" width="18" height="18"/>
			</g>
		</g>
	</g>
</g>
<g id="Grid" display="none">
	<g display="inline">
		<line fill="none" stroke="#00E5FF" stroke-width="0.1" stroke-miterlimit="10" x1="0" y1="-824" x2="0" y2="2728"/>
	</g>
</g>
</svg>
