<?xml version="1.0" encoding="utf-8"?>
<!-- Generator: Adobe Illustrator 17.1.0, SVG Export Plug-In . SVG Version: 6.00 Build 0)  -->
<!DOCTYPE svg PUBLIC "-//W3C//DTD SVG 1.1//EN" "http://www.w3.org/Graphics/SVG/1.1/DTD/svg11.dtd">
<svg version="1.1" xmlns="http://www.w3.org/2000/svg" xmlns:xlink="http://www.w3.org/1999/xlink" x="0px" y="0px" width="18px"
	 height="18px" viewBox="0 0 18 18" enable-background="new 0 0 18 18" xml:space="preserve">
<g id="Header">
	<g>
		<rect x="-520" y="-568" fill="none" width="1400" height="3600"/>
	</g>
</g>
<g id="Label">
</g>
<g id="Icon">
	<g>
		<path d="M12.5,1C10,1,8,3,8,5.5C8,8,10,10,12.5,10S17,8,17,5.5C17,3,15,1,12.5,1z M12.5,8C11.1,8,10,6.9,10,5.5S11.1,3,12.5,3
			C13.9,3,15,4.1,15,5.5S13.9,8,12.5,8z M8,15c-2.8,0-5-2.2-5-5c0-2.2,1.5-4.1,3.5-4.7c0-0.8,0.2-1.5,0.5-2.2C3.6,3.6,1,6.5,1,10
			c0,3.9,3.1,7,7,7c3.5,0,6.4-2.6,6.9-6c-0.7,0.3-1.4,0.5-2.2,0.5C12.1,13.5,10.2,15,8,15z"/>
		<g>
			<rect fill="none" width="18" height="18"/>
		</g>
	</g>
</g>
<g id="Grid" display="none">
	<g display="inline">
		<line fill="none" stroke="#00E5FF" stroke-width="0.1" stroke-miterlimit="10" x1="0" y1="-568" x2="0" y2="2984"/>
	</g>
</g>
</svg>
