<?xml version="1.0" encoding="utf-8"?>
<!-- Generator: Adobe Illustrator 17.1.0, SVG Export Plug-In . SVG Version: 6.00 Build 0)  -->
<!DOCTYPE svg PUBLIC "-//W3C//DTD SVG 1.1//EN" "http://www.w3.org/Graphics/SVG/1.1/DTD/svg11.dtd">
<svg version="1.1" xmlns="http://www.w3.org/2000/svg" xmlns:xlink="http://www.w3.org/1999/xlink" x="0px" y="0px" width="18px"
	 height="18px" viewBox="0 0 18 18" enable-background="new 0 0 18 18" xml:space="preserve">
<g id="Header">
	<g>
		<rect x="-520" y="-440" fill="none" width="1400" height="3600"/>
	</g>
</g>
<g id="Label">
</g>
<g id="Icon">
	<g>
		<path d="M9,5c0.8,0,1.5-0.7,1.5-1.5c0-0.3-0.1-0.5-0.2-0.8L9,0.5L7.7,2.7C7.6,3,7.5,3.2,7.5,3.5C7.5,4.3,8.2,5,9,5z M15,15v-3
			c0-0.6-0.4-1-1-1h-1V9c0-0.6-0.4-1-1-1h-2V6H8v2H6C5.4,8,5,8.4,5,9v2H4c-0.6,0-1,0.4-1,1v3H1v2h16v-2H15z"/>
		<g>
			<rect fill="none" width="18" height="18"/>
		</g>
	</g>
</g>
<g id="Grid" display="none">
	<g display="inline">
		<line fill="none" stroke="#00E5FF" stroke-width="0.1" stroke-miterlimit="10" x1="0" y1="-440" x2="0" y2="3112"/>
	</g>
</g>
</svg>
