<?xml version="1.0" encoding="utf-8"?>
<!-- Generator: Adobe Illustrator 17.1.0, SVG Export Plug-In . SVG Version: 6.00 Build 0)  -->
<!DOCTYPE svg PUBLIC "-//W3C//DTD SVG 1.1//EN" "http://www.w3.org/Graphics/SVG/1.1/DTD/svg11.dtd">
<svg version="1.1" xmlns="http://www.w3.org/2000/svg" xmlns:xlink="http://www.w3.org/1999/xlink" x="0px" y="0px" width="18px"
	 height="18px" viewBox="0 0 18 18" enable-background="new 0 0 18 18" xml:space="preserve">
<g id="Header">
	<g>
		<rect x="-520" y="-1080" fill="none" width="1400" height="3600"/>
	</g>
</g>
<g id="Label">
</g>
<g id="Icon">
	<g>
		<g>
			<g>
				<rect fill="none" width="18" height="18"/>
			</g>
		</g>
		<path d="M14,8h-1v1h1V8z M9,5V2H1v14h16V5H9z M4,14H3v-1h1V14z M4,11H3v-1h1V11z M4,8H3V7h1V8z M4,5H3V4h1V5z M7,14H6v-1h1V14z
			 M7,11H6v-1h1V11z M7,8H6V7h1V8z M7,5H6V4h1V5z M15,14H9V7h6V14z M11,8h-1v1h1V8z M14,12h-1v1h1V12z M11,12h-1v1h1V12z"/>
	</g>
</g>
<g id="Grid" display="none">
	<g display="inline">
		<line fill="none" stroke="#00E5FF" stroke-width="0.1" stroke-miterlimit="10" x1="0" y1="-1080" x2="0" y2="2472"/>
	</g>
</g>
</svg>
