<?xml version="1.0" encoding="utf-8"?>
<!-- Generator: Adobe Illustrator 17.1.0, SVG Export Plug-In . SVG Version: 6.00 Build 0)  -->
<!DOCTYPE svg PUBLIC "-//W3C//DTD SVG 1.1//EN" "http://www.w3.org/Graphics/SVG/1.1/DTD/svg11.dtd">
<svg version="1.1" xmlns="http://www.w3.org/2000/svg" xmlns:xlink="http://www.w3.org/1999/xlink" x="0px" y="0px" width="18px"
	 height="18px" viewBox="0 0 18 18" enable-background="new 0 0 18 18" xml:space="preserve">
<g id="Header">
	<g>
		<rect x="-520" y="-1208" fill="none" width="1400" height="3600"/>
	</g>
</g>
<g id="Label">
</g>
<g id="Icon">
	<g>
		<g>
			<rect fill="none" width="18" height="18"/>
		</g>
		<path d="M6,8c1.1,0,2-0.9,2-2S7.1,4,6,4S4,4.9,4,6S4.9,8,6,8z M12,8c1.1,0,2-0.9,2-2s-0.9-2-2-2s-2,0.9-2,2S10.9,8,12,8z M6,9.2
			c-1.7,0-5,0.8-5,2.5V13h10v-1.3C11,10,7.7,9.2,6,9.2z M12,9.2c-0.2,0-0.5,0-0.8,0.1c0.8,0.6,1.3,1.4,1.3,2.4V13H17v-1.3
			C17,10,13.7,9.2,12,9.2z"/>
	</g>
</g>
<g id="Grid" display="none">
	<g display="inline">
		<line fill="none" stroke="#00E5FF" stroke-width="0.1" stroke-miterlimit="10" x1="0" y1="-1208" x2="0" y2="2344"/>
	</g>
</g>
</svg>
