<?xml version="1.0" encoding="utf-8"?>
<!-- Generator: Adobe Illustrator 17.1.0, SVG Export Plug-In . SVG Version: 6.00 Build 0)  -->
<!DOCTYPE svg PUBLIC "-//W3C//DTD SVG 1.1//EN" "http://www.w3.org/Graphics/SVG/1.1/DTD/svg11.dtd">
<svg version="1.1" xmlns="http://www.w3.org/2000/svg" xmlns:xlink="http://www.w3.org/1999/xlink" x="0px" y="0px" width="18px"
	 height="18px" viewBox="0 0 18 18" enable-background="new 0 0 18 18" xml:space="preserve">
<g id="Header">
	<g>
		<rect x="-520" y="-1336" fill="none" width="1400" height="3600"/>
	</g>
</g>
<g id="Label">
</g>
<g id="Icon">
	<g>
		<path d="M9,8c1.1,0,2-0.9,2-2s-0.9-2-2-2S7,4.9,7,6S7.9,8,9,8z M13,8c1.1,0,2-0.9,2-2s-0.9-2-2-2c-0.4,0-0.7,0.1-1,0.3
			c0.3,0.5,0.5,1.1,0.5,1.7S12.3,7.2,12,7.7C12.3,7.9,12.6,8,13,8z M9,9.2c-1.7,0-5,0.8-5,2.5V13h10v-1.3C14,10,10.7,9.2,9,9.2z
			 M5,7H3V5H2v2H0v1h2v2h1V8h2V7z M14.2,9.3c0.8,0.6,1.3,1.4,1.3,2.4V13H18v-1.3C18,10.4,15.9,9.6,14.2,9.3z"/>
	</g>
</g>
<g id="Grid" display="none">
	<g display="inline">
		<line fill="none" stroke="#00E5FF" stroke-width="0.1" stroke-miterlimit="10" x1="0" y1="-1336" x2="0" y2="2216"/>
	</g>
</g>
</svg>
