<?xml version="1.0" encoding="utf-8"?>
<!-- Generator: Adobe Illustrator 17.1.0, SVG Export Plug-In . SVG Version: 6.00 Build 0)  -->
<!DOCTYPE svg PUBLIC "-//W3C//DTD SVG 1.1//EN" "http://www.w3.org/Graphics/SVG/1.1/DTD/svg11.dtd">
<svg version="1.1" xmlns="http://www.w3.org/2000/svg" xmlns:xlink="http://www.w3.org/1999/xlink" x="0px" y="0px" width="18px"
	 height="18px" viewBox="0 0 18 18" enable-background="new 0 0 18 18" xml:space="preserve">
<g id="Header">
	<g>
		<rect x="-520" y="-1592" fill="none" width="1400" height="3600"/>
	</g>
</g>
<g id="Label">
</g>
<g id="Icon">
	<g>
		<g>
			<rect fill="none" width="18" height="18"/>
		</g>
		<path d="M6,8c0.6,0,1-0.4,1-1S6.6,6,6,6S5,6.4,5,7S5.4,8,6,8z M12,8c0.6,0,1-0.4,1-1s-0.4-1-1-1s-1,0.4-1,1S11.4,8,12,8z M9,13.5
			c2.1,0,3.9-1.5,4.4-3.5H4.6C5.1,12,6.9,13.5,9,13.5z M9,1C4.6,1,1,4.6,1,9s3.6,8,8,8c4.4,0,8-3.6,8-8S13.4,1,9,1z M9,15.5
			c-3.6,0-6.5-2.9-6.5-6.5S5.4,2.5,9,2.5c3.6,0,6.5,2.9,6.5,6.5S12.6,15.5,9,15.5z"/>
	</g>
</g>
<g id="Grid" display="none">
	<g display="inline">
		<line fill="none" stroke="#00E5FF" stroke-width="0.1" stroke-miterlimit="10" x1="0" y1="-1592" x2="0" y2="1960"/>
	</g>
</g>
</svg>
