<?xml version="1.0" encoding="utf-8"?>
<!-- Generator: Adobe Illustrator 17.1.0, SVG Export Plug-In . SVG Version: 6.00 Build 0)  -->
<!DOCTYPE svg PUBLIC "-//W3C//DTD SVG 1.1//EN" "http://www.w3.org/Graphics/SVG/1.1/DTD/svg11.dtd">
<svg version="1.1" xmlns="http://www.w3.org/2000/svg" xmlns:xlink="http://www.w3.org/1999/xlink" x="0px" y="0px" width="48px"
	 height="48px" viewBox="0 0 48 48" enable-background="new 0 0 48 48" xml:space="preserve">
<g id="Header">
	<g>
		<rect x="-838" y="-568" fill="none" width="1400" height="3600"/>
	</g>
</g>
<g id="Label">
</g>
<g id="Icon">
	<g>
		<g>
			<path d="M40,4H8C5.8,4,4,5.8,4,8l0,32c0,2.2,1.8,4,4,4h32c2.2,0,4-1.8,4-4V8C44,5.8,42.2,4,40,4z M16,38h-6V20h6V38z M13,16.6
				c-2,0-3.6-1.6-3.6-3.6S11,9.4,13,9.4s3.6,1.6,3.6,3.6S15,16.6,13,16.6z M38,38h-6V27.4c0-1.7-1.3-3-3-3c-1.7,0-3,1.3-3,3V38h-6
				V20h6v2.4c1-1.7,3.2-2.8,5-2.8c3.9,0,7,3.1,7,7V38z"/>
		</g>
		<g>
			<rect fill="none" width="48" height="48"/>
		</g>
	</g>
</g>
<g id="Grid" display="none">
	<g display="inline">
		<line fill="none" stroke="#00E5FF" stroke-width="0.1" stroke-miterlimit="10" x1="42" y1="-568" x2="42" y2="2984"/>
	</g>
</g>
</svg>
