<?xml version="1.0" encoding="utf-8"?>
<!-- Generator: Adobe Illustrator 17.1.0, SVG Export Plug-In . SVG Version: 6.00 Build 0)  -->
<!DOCTYPE svg PUBLIC "-//W3C//DTD SVG 1.1//EN" "http://www.w3.org/Graphics/SVG/1.1/DTD/svg11.dtd">
<svg version="1.1" xmlns="http://www.w3.org/2000/svg" xmlns:xlink="http://www.w3.org/1999/xlink" x="0px" y="0px" width="48px"
	 height="48px" viewBox="0 0 48 48" enable-background="new 0 0 48 48" xml:space="preserve">
<g id="Header">
	<g>
		<rect x="-838" y="-952" fill="none" width="1400" height="3600"/>
	</g>
</g>
<g id="Label">
</g>
<g id="Icon">
	<g>
		<g>
			<path d="M40,4H8C5.8,4,4,5.8,4,8l0,32c0,2.2,1.8,4,4,4h32c2.2,0,4-1.8,4-4V8C44,5.8,42.2,4,40,4z M35.4,18.7
				c-0.1,9.2-6,15.6-14.8,16c-3.6,0.2-6.3-1-8.6-2.5c2.7,0.4,6-0.6,7.8-2.2c-2.6-0.3-4.2-1.6-4.9-3.8c0.8,0.1,1.6,0.1,2.3-0.1
				c-2.4-0.8-4.1-2.3-4.2-5.3c0.7,0.3,1.4,0.6,2.3,0.6c-1.8-1-3.1-4.7-1.6-7.2c2.6,2.9,5.8,5.3,11,5.6c-1.3-5.6,6.1-8.6,9.2-4.9
				c1.3-0.3,2.4-0.8,3.4-1.3c-0.4,1.3-1.2,2.2-2.2,2.9c1.1-0.1,2.1-0.4,2.9-0.8C37.5,16.9,36.4,17.9,35.4,18.7z"/>
		</g>
		<g>
			<rect fill="none" width="48" height="48"/>
		</g>
	</g>
</g>
<g id="Grid" display="none">
	<g display="inline">
		<line fill="none" stroke="#00E5FF" stroke-width="0.1" stroke-miterlimit="10" x1="42" y1="-952" x2="42" y2="2600"/>
	</g>
</g>
</svg>
