<?xml version="1.0" encoding="utf-8"?>
<!-- Generator: Adobe Illustrator 17.1.0, SVG Export Plug-In . SVG Version: 6.00 Build 0)  -->
<!DOCTYPE svg PUBLIC "-//W3C//DTD SVG 1.1//EN" "http://www.w3.org/Graphics/SVG/1.1/DTD/svg11.dtd">
<svg version="1.1" xmlns="http://www.w3.org/2000/svg" xmlns:xlink="http://www.w3.org/1999/xlink" x="0px" y="0px" width="48px"
	 height="48px" viewBox="0 0 48 48" enable-background="new 0 0 48 48" xml:space="preserve">
<g id="Header">
	<g>
		<rect x="-838" y="-696" fill="none" width="1400" height="3600"/>
	</g>
</g>
<g id="Label">
</g>
<g id="Icon">
	<g>
		<g>
			<path d="M40,4H8C5.8,4,4,5.8,4,8l0,32c0,2.2,1.8,4,4,4h32c2.2,0,4-1.8,4-4V8C44,5.8,42.2,4,40,4z M26,32.4
				c-1.6,0-3.1-0.7-4.2-1.8L19.9,37l-0.1,0.4l-0.1,0c-0.4,0.6-1.1,1-1.9,1c-1.2,0-2.2-1-2.2-2.2c0-0.1,0-0.2,0-0.3l0,0l0.1-0.4
				l3.7-11.1c0,0-0.4-1.2-0.4-2.9c0-3.4,1.8-4.5,3.3-4.5c1.5,0,2.8,0.5,2.8,2.6c0,2.7-1.8,4.1-1.8,6c0,1.5,1.2,2.7,2.7,2.7
				c4.7,0,6.3-3.5,6.3-6.8c0-4.4-3.8-7.9-8.4-7.9c-4.6,0-8.4,3.5-8.4,7.9c0,1.3,0.4,2.7,1.1,3.9c0.2,0.3,0.3,0.7,0.3,1
				c0,1.1-0.9,2-2,2c-0.7,0-1.4-0.4-1.7-1c-1.1-1.8-1.6-3.8-1.6-5.9c0-6.6,5.6-11.9,12.4-11.9c6.8,0,12.4,5.3,12.4,11.9
				C36.4,26.8,33.1,32.4,26,32.4z"/>
		</g>
		<g>
			<rect fill="none" width="48" height="48"/>
		</g>
	</g>
</g>
<g id="Grid" display="none">
	<g display="inline">
		<line fill="none" stroke="#00E5FF" stroke-width="0.1" stroke-miterlimit="10" x1="42" y1="-696" x2="42" y2="2856"/>
	</g>
</g>
</svg>
