<?xml version="1.0" encoding="utf-8"?>
<!-- Generator: Adobe Illustrator 17.1.0, SVG Export Plug-In . SVG Version: 6.00 Build 0)  -->
<!DOCTYPE svg PUBLIC "-//W3C//DTD SVG 1.1//EN" "http://www.w3.org/Graphics/SVG/1.1/DTD/svg11.dtd">
<svg version="1.1" xmlns="http://www.w3.org/2000/svg" xmlns:xlink="http://www.w3.org/1999/xlink" x="0px" y="0px" width="48px"
	 height="48px" viewBox="0 0 48 48" enable-background="new 0 0 48 48" xml:space="preserve">
<g id="Header">
	<g>
		<rect x="-838" y="-3384" fill="none" width="1400" height="3600"/>
	</g>
</g>
<g id="Label">
</g>
<g id="Icon">
	<g>
		<g>
			<rect fill="none" width="48" height="48"/>
		</g>
		<path d="M22.4,17.7c0-2-1.3-6-4.2-6c-1.3,0-2.6,0.9-2.6,3.3c0,2.4,1.3,5.9,3.9,5.9C19.7,20.9,22.4,20.9,22.4,17.7z M21.1,27.6
			c-0.2,0-0.4,0-0.6,0h0c-0.5,0-2.3,0.1-3.6,0.5c-1.3,0.5-2.8,1.4-2.8,3.4c0,2.2,2.1,4.5,5.9,4.5c3,0,4.9-2,4.9-3.9
			C24.8,30.5,23.9,29.6,21.1,27.6z M40,4H8C5.8,4,4,5.8,4,8l0,32c0,2.2,1.8,4,4,4h32c2.2,0,4-1.8,4-4V8C44,5.8,42.2,4,40,4z
			 M18.1,38.4c-5.6,0-8.1-3.1-8.1-6c0-0.9,0.3-3.2,3-4.8c1.5-0.9,3.7-1.6,6.3-1.8c-0.4-0.5-0.7-1.1-0.7-2c0-0.3,0-0.6,0.1-0.9h-0.8
			c-3.9,0-6.3-3.1-6.3-6.1c0-3.5,2.6-7.2,8.2-7.2h8.4l-0.7,0.7l-1.4,1.4L26,11.8h-1.4c0.8,0.8,1.8,2.2,1.8,4.3
			c0,2.8-1.5,4.2-3.1,5.5c-0.3,0.2-0.8,0.8-0.8,1.4c0,0.6,0.5,1,0.8,1.2c0.3,0.2,0.6,0.4,0.9,0.7c1.6,1.1,3.8,2.7,3.8,5.8
			C28,34.3,25.4,38.4,18.1,38.4z M38,24h-4v4h-2v-4h-4v-2h4v-4h2v4h4V24z"/>
	</g>
</g>
<g id="Grid" display="none">
	<g display="inline">
		<line fill="none" stroke="#00E5FF" stroke-width="0.1" stroke-miterlimit="10" x1="42" y1="-3384" x2="42" y2="168"/>
	</g>
</g>
</svg>
