<?xml version="1.0" encoding="utf-8"?>
<!-- Generator: Adobe Illustrator 17.1.0, SVG Export Plug-In . SVG Version: 6.00 Build 0)  -->
<!DOCTYPE svg PUBLIC "-//W3C//DTD SVG 1.1//EN" "http://www.w3.org/Graphics/SVG/1.1/DTD/svg11.dtd">
<svg version="1.1" xmlns="http://www.w3.org/2000/svg" xmlns:xlink="http://www.w3.org/1999/xlink" x="0px" y="0px" width="48px"
	 height="48px" viewBox="0 0 48 48" enable-background="new 0 0 48 48" xml:space="preserve">
<g id="Header">
	<g>
		<rect x="-838" y="-824" fill="none" width="1400" height="3600"/>
	</g>
</g>
<g id="Label">
</g>
<g id="Icon">
	<g>
		<g>
			<path d="M40,4H8C5.8,4,4,5.8,4,8l0,32c0,2.2,1.8,4,4,4h32c2.2,0,4-1.8,4-4V8C44,5.8,42.2,4,40,4z M32,22h-6c0,0,0,7.6,0,7.8
				c0,1.5,0.3,2.2,2.2,2.2c1.8,0,3.8,0,3.8,0v6c0,0-2.1,0.2-4.2,0.2c-5.3,0-7.8-3.2-7.8-6.8c0-2.4,0-9.4,0-9.4h-4v-5.6
				c4.8-0.4,5.2-4.1,5.6-6.4H26v6h6V22z"/>
		</g>
		<g>
			<rect fill="none" width="48" height="48"/>
		</g>
	</g>
</g>
<g id="Grid" display="none">
	<g display="inline">
		<line fill="none" stroke="#00E5FF" stroke-width="0.1" stroke-miterlimit="10" x1="42" y1="-824" x2="42" y2="2728"/>
	</g>
</g>
</svg>
