<?xml version="1.0" encoding="utf-8"?>
<!-- Generator: Adobe Illustrator 17.1.0, SVG Export Plug-In . SVG Version: 6.00 Build 0)  -->
<!DOCTYPE svg PUBLIC "-//W3C//DTD SVG 1.1//EN" "http://www.w3.org/Graphics/SVG/1.1/DTD/svg11.dtd">
<svg version="1.1" xmlns="http://www.w3.org/2000/svg" xmlns:xlink="http://www.w3.org/1999/xlink" x="0px" y="0px" width="48px"
	 height="48px" viewBox="0 0 48 48" enable-background="new 0 0 48 48" xml:space="preserve">
<g id="Header">
	<g>
		<rect x="-838" y="-440" fill="none" width="1400" height="3600"/>
	</g>
</g>
<g id="Label">
</g>
<g id="Icon">
	<g>
		<g>
			<g>
				<path d="M40,4H8C5.8,4,4,5.8,4,8l0,32c0,2.2,1.8,4,4,4h32c2.2,0,4-1.8,4-4V8C44,5.8,42.2,4,40,4z M24,16c4.4,0,8,3.6,8,8
					s-3.6,8-8,8c-4.4,0-8-3.6-8-8S19.6,16,24,16z M9,40c-0.6,0-1-0.4-1-1V22h4.2c-0.1,0.7-0.2,1.3-0.2,2c0,6.6,5.4,12,12,12
					c6.6,0,12-5.4,12-12c0-0.7-0.1-1.3-0.2-2H40v17c0,0.6-0.4,1-1,1H9z M40,13c0,0.6-0.4,1-1,1h-4c-0.6,0-1-0.4-1-1V9
					c0-0.6,0.4-1,1-1h4c0.6,0,1,0.4,1,1V13z"/>
			</g>
		</g>
		<g>
			<rect fill="none" width="48" height="48"/>
		</g>
	</g>
</g>
<g id="Grid" display="none">
	<g display="inline">
		<line fill="none" stroke="#00E5FF" stroke-width="0.1" stroke-miterlimit="10" x1="42" y1="-440" x2="42" y2="3112"/>
	</g>
</g>
</svg>
