<?xml version="1.0" encoding="utf-8"?>
<!-- Generator: Adobe Illustrator 17.1.0, SVG Export Plug-In . SVG Version: 6.00 Build 0)  -->
<!DOCTYPE svg PUBLIC "-//W3C//DTD SVG 1.1//EN" "http://www.w3.org/Graphics/SVG/1.1/DTD/svg11.dtd">
<svg version="1.1" xmlns="http://www.w3.org/2000/svg" xmlns:xlink="http://www.w3.org/1999/xlink" x="0px" y="0px" width="18px"
	 height="18px" viewBox="0 0 18 18" enable-background="new 0 0 18 18" xml:space="preserve">
<g id="Header">
	<g>
		<rect x="-520" y="-3000" fill="none" width="1400" height="3600"/>
	</g>
</g>
<g id="Label">
</g>
<g id="Icon">
	<g>
		<path d="M9,10c-2.3,0-7,1.2-7,3.5V16h14v-2.5C16,11.2,11.3,10,9,10z M14.3,14.3H3.7v-0.8C3.8,13,6.3,11.7,9,11.7s5.2,1.3,5.3,1.8
			V14.3z M9,9c2.2,0,4-1.8,4-4c0-2.2-1.8-4-4-4C6.8,1,5,2.8,5,5C5,7.2,6.8,9,9,9z M9,2.7c1.3,0,2.3,1,2.3,2.3s-1,2.3-2.3,2.3
			c-1.3,0-2.3-1-2.3-2.3S7.7,2.7,9,2.7z"/>
	</g>
</g>
<g id="Grid" display="none">
	<g display="inline">
		<line fill="none" stroke="#00E5FF" stroke-width="0.1" stroke-miterlimit="10" x1="0" y1="-3000" x2="0" y2="552"/>
	</g>
</g>
</svg>
