<?xml version="1.0" encoding="utf-8"?>
<!-- Generator: Adobe Illustrator 17.1.0, SVG Export Plug-In . SVG Version: 6.00 Build 0)  -->
<!DOCTYPE svg PUBLIC "-//W3C//DTD SVG 1.1//EN" "http://www.w3.org/Graphics/SVG/1.1/DTD/svg11.dtd">
<svg version="1.1" xmlns="http://www.w3.org/2000/svg" xmlns:xlink="http://www.w3.org/1999/xlink" x="0px" y="0px" width="18px"
	 height="18px" viewBox="0 0 18 18" enable-background="new 0 0 18 18" xml:space="preserve">
<g id="Header">
	<g>
		<rect x="-520" y="-2360" fill="none" width="1400" height="3600"/>
	</g>
</g>
<g id="Label">
</g>
<g id="Icon">
	<g>
		<path d="M5.5,10H2v5c0,0.6,0.4,1,1,1h5v-3.5l-3.5,1L5.5,10z M2,3v5h3.5l-1-3.5l3.5,1V2H3C2.4,2,2,2.4,2,3z M15,2h-5v3.5l3.5-1
			l-1,3.5H16V3C16,2.4,15.6,2,15,2z M13.5,13.5l-3.5-1V16h5c0.6,0,1-0.4,1-1v-5h-3.5L13.5,13.5z"/>
		<g>
			<rect fill="none" width="18" height="18"/>
		</g>
	</g>
</g>
<g id="Grid" display="none">
	<g display="inline">
		<line fill="none" stroke="#00E5FF" stroke-width="0.1" stroke-miterlimit="10" x1="0" y1="-2360" x2="0" y2="1192"/>
	</g>
</g>
</svg>
