<?xml version="1.0" encoding="utf-8"?>
<!-- Generator: Adobe Illustrator 17.1.0, SVG Export Plug-In . SVG Version: 6.00 Build 0)  -->
<!DOCTYPE svg PUBLIC "-//W3C//DTD SVG 1.1//EN" "http://www.w3.org/Graphics/SVG/1.1/DTD/svg11.dtd">
<svg version="1.1" xmlns="http://www.w3.org/2000/svg" xmlns:xlink="http://www.w3.org/1999/xlink" x="0px" y="0px" width="48px"
	 height="48px" viewBox="0 0 48 48" enable-background="new 0 0 48 48" xml:space="preserve">
<g id="Header">
	<g>
		<rect x="-838" y="-3128" fill="none" width="1400" height="3600"/>
	</g>
</g>
<g id="Label">
</g>
<g id="Icon">
	<g>
		<g>
			<path d="M40,4H8C5.8,4,4,5.8,4,8l0,32c0,2.2,1.8,4,4,4h32c2.2,0,4-1.8,4-4V8C44,5.8,42.2,4,40,4z M32,18v2c0,1.1,0.9,2,2,2
				c1.1,0,2,0.9,2,2v6c0,3.3-2.7,6-6,6H18c-3.3,0-6-2.7-6-6V16c0-3.3,2.7-6,6-6h8c3.3,0,6,2.7,6,6V18z M19.9,20h5.2c1.1,0,2-0.9,2-2
				c0-1.1-0.9-2-2-2h-5.2c-1.1,0-2,0.9-2,2C17.9,19.1,18.8,20,19.9,20z M28,26h-8.1c-1.1,0-2,0.9-2,2c0,1.1,0.9,2,2,2H28
				c1.1,0,2-0.9,2-2C30,26.9,29.1,26,28,26z"/>
		</g>
		<g>
			<rect fill="none" width="48" height="48"/>
		</g>
	</g>
</g>
<g id="Grid" display="none">
	<g display="inline">
		<line fill="none" stroke="#00E5FF" stroke-width="0.1" stroke-miterlimit="10" x1="42" y1="-3128" x2="42" y2="424"/>
	</g>
</g>
</svg>
