<?xml version="1.0" encoding="utf-8"?>
<!-- Generator: Adobe Illustrator 18.0.0, SVG Export Plug-In . SVG Version: 6.00 Build 0)  -->
<!DOCTYPE svg PUBLIC "-//W3C//DTD SVG 1.1//EN" "http://www.w3.org/Graphics/SVG/1.1/DTD/svg11.dtd">
<svg version="1.1" xmlns="http://www.w3.org/2000/svg" xmlns:xlink="http://www.w3.org/1999/xlink" x="0px" y="0px" width="48px"
	 height="48px" viewBox="0 0 48 48" enable-background="new 0 0 48 48" xml:space="preserve">
<g id="Header">
	<g>
		<rect x="-838" y="-2104" fill="none" width="1400" height="3600"/>
	</g>
</g>
<g id="Label">
</g>
<g id="Icon">
	<g>
		<rect fill="none" width="48" height="48"/>
		<path d="M33,26c-2.4,0-6.1,0.7-9,2c-2.9-1.3-6.6-2-9-2c-4.3,0-13,2.2-13,6.5V38h44v-5.5C46,28.2,37.3,26,33,26z M25,35H5v-2.5
			c0-1.1,5.1-3.5,10-3.5s10,2.4,10,3.5V35z M43,35H28v-2.5c0-0.9-0.4-1.7-1-2.4c1.8-0.6,3.9-1.1,6-1.1c4.9,0,10,2.4,10,3.5V35z
			 M15,24c3.9,0,7-3.1,7-7c0-3.9-3.1-7-7-7c-3.9,0-7,3.1-7,7C8,20.9,11.1,24,15,24z M15,13c2.2,0,4,1.8,4,4s-1.8,4-4,4s-4-1.8-4-4
			S12.8,13,15,13z M33,24c3.9,0,7-3.1,7-7c0-3.9-3.1-7-7-7c-3.9,0-7,3.1-7,7C26,20.9,29.1,24,33,24z M33,13c2.2,0,4,1.8,4,4
			s-1.8,4-4,4s-4-1.8-4-4S30.8,13,33,13z"/>
	</g>
</g>
<g id="Grid" display="none">
	<g display="inline">
		<line fill="none" stroke="#00E5FF" stroke-width="0.1" stroke-miterlimit="10" x1="42" y1="-2104" x2="42" y2="1448"/>
	</g>
</g>
</svg>
