<?xml version="1.0" encoding="utf-8"?>
<!-- Generator: Adobe Illustrator 18.0.0, SVG Export Plug-In . SVG Version: 6.00 Build 0)  -->
<!DOCTYPE svg PUBLIC "-//W3C//DTD SVG 1.1//EN" "http://www.w3.org/Graphics/SVG/1.1/DTD/svg11.dtd">
<svg version="1.1" xmlns="http://www.w3.org/2000/svg" xmlns:xlink="http://www.w3.org/1999/xlink" x="0px" y="0px" width="48px"
	 height="48px" viewBox="0 0 48 48" enable-background="new 0 0 48 48" xml:space="preserve">
<g id="Header" display="none">
	<g display="inline">
		<rect x="-838" y="-1080" fill="none" width="1400" height="3600"/>
	</g>
</g>
<g id="Label">
</g>
<g id="Icon">
	<g>
		<rect fill="none" width="48" height="48"/>
		<path d="M36,32.17c-1.52,0-2.89,0.59-3.93,1.54L17.82,25.4C17.93,24.95,18,24.48,18,24s-0.07-0.95-0.18-1.4l14.1-8.23
			c1.07,1,2.5,1.62,4.08,1.62c3.31,0,6-2.69,6-6s-2.69-6-6-6c-3.31,0-6,2.69-6,6c0,0.48,0.07,0.95,0.18,1.4l-14.1,8.23
			c-1.07-1-2.5-1.62-4.08-1.62c-3.31,0-6,2.69-6,6s2.69,6,6,6c1.58,0,3.01-0.62,4.08-1.62l14.25,8.31c-0.1,0.42-0.16,0.86-0.16,1.31
			c0,3.22,2.61,5.83,5.83,5.83c3.22,0,5.83-2.61,5.83-5.83S39.22,32.17,36,32.17z"/>
	</g>
</g>
<g id="Grid" display="none">
	<g display="inline">
		<line fill="none" stroke="#00E5FF" stroke-width="0.1" stroke-miterlimit="10" x1="42" y1="-1080" x2="42" y2="2472"/>
	</g>
</g>
</svg>
