<?xml version="1.0" encoding="utf-8"?>
<!-- Generator: Adobe Illustrator 17.1.0, SVG Export Plug-In . SVG Version: 6.00 Build 0)  -->
<!DOCTYPE svg PUBLIC "-//W3C//DTD SVG 1.1//EN" "http://www.w3.org/Graphics/SVG/1.1/DTD/svg11.dtd">
<svg version="1.1" xmlns="http://www.w3.org/2000/svg" xmlns:xlink="http://www.w3.org/1999/xlink" x="0px" y="0px" width="18px"
	 height="18px" viewBox="0 0 18 18" enable-background="new 0 0 18 18" xml:space="preserve">
<g id="Header">
	<g>
		<rect x="-520" y="-1848" fill="none" width="1400" height="3600"/>
	</g>
</g>
<g id="Label">
</g>
<g id="Icon">
	<g>
		<path d="M10.2,1.5c0,0,0.5,2,0.5,3.6c0,1.5-1,2.8-2.6,2.8c-1.5,0-2.7-1.3-2.7-2.8l0-0.3C3.9,6.6,3,9,3,11.5c0,3.3,2.7,6,6,6
			c3.3,0,6-2.7,6-6C15,7.5,13.1,3.8,10.2,1.5z M8.9,15c-1.3,0-2.4-1.1-2.4-2.4c0-1.2,0.8-2.1,2.1-2.3c1.3-0.3,2.7-0.9,3.5-1.9
			c0.3,1,0.4,2,0.4,3C12.5,13.4,10.9,15,8.9,15z"/>
		<g>
			<rect y="0.5" fill="none" width="18" height="18"/>
		</g>
	</g>
</g>
<g id="Grid" display="none">
	<g display="inline">
		<line fill="none" stroke="#00E5FF" stroke-width="0.1" stroke-miterlimit="10" x1="0" y1="-1848" x2="0" y2="1704"/>
	</g>
</g>
</svg>
