<?xml version="1.0" encoding="utf-8"?>
<!-- Generator: Adobe Illustrator 17.1.0, SVG Export Plug-In . SVG Version: 6.00 Build 0)  -->
<!DOCTYPE svg PUBLIC "-//W3C//DTD SVG 1.1//EN" "http://www.w3.org/Graphics/SVG/1.1/DTD/svg11.dtd">
<svg version="1.1" xmlns="http://www.w3.org/2000/svg" xmlns:xlink="http://www.w3.org/1999/xlink" x="0px" y="0px" width="48px"
	 height="48px" viewBox="0 0 48 48" enable-background="new 0 0 48 48" xml:space="preserve">
<g id="Header">
	<g>
		<rect x="-838" y="-1848" fill="none" width="1400" height="3600"/>
	</g>
</g>
<g id="Label">
</g>
<g id="Icon">
	<g>
		<path d="M27,1.3c0,0,1.5,5.3,1.5,9.6c0,4.1-2.7,7.5-6.8,7.5c-4.1,0-7.3-3.3-7.3-7.5l0.1-0.7C10.4,15,8,21.2,8,28
			c0,8.8,7.2,16,16,16c8.8,0,16-7.2,16-16C40,17.2,34.8,7.6,27,1.3z M23.4,38c-3.6,0-6.4-2.8-6.4-6.3c0-3.2,2.1-5.5,5.6-6.2
			c3.5-0.7,7.2-2.4,9.2-5.2c0.8,2.6,1.2,5.3,1.2,8.1C33,33.7,28.7,38,23.4,38z"/>
		<g>
			<rect fill="none" width="48" height="48"/>
		</g>
	</g>
</g>
<g id="Grid" display="none">
	<g display="inline">
		<line fill="none" stroke="#00E5FF" stroke-width="0.1" stroke-miterlimit="10" x1="42" y1="-1848" x2="42" y2="1704"/>
	</g>
</g>
</svg>
