<svg width="512" height="512" viewBox="0 0 512 512" xmlns="http://www.w3.org/2000/svg" xmlns:sketch="http://www.bohemiancoding.com/sketch/ns"><title>search</title><path d="M280.978 320.447l107.668 75.39c10.867 7.609 25.841 4.974 33.449-5.891 7.606-10.863 4.971-25.831-5.905-33.446l-105.456-73.841c8.658-16.94 13.542-36.132 13.542-56.465 0-68.59-55.578-124.194-124.138-124.194-68.559 0-124.138 55.603-124.138 124.194 0 68.59 55.578 124.194 124.138 124.194 30.877 0 59.12-11.278 80.84-29.94zm-80.84-18.081c42.05 0 76.138-34.103 76.138-76.172 0-42.069-34.088-76.172-76.138-76.172-42.05 0-76.138 34.103-76.138 76.172 0 42.069 34.088 76.172 76.138 76.172z" sketch:type="MSShapeGroup" stroke-opacity=".296" stroke="#000" fill="#fff"/></svg>