<?xml version="1.0" encoding="UTF-8" standalone="no"?>
<svg width="331px" height="298px" viewBox="0 0 331 298" version="1.1" xmlns="http://www.w3.org/2000/svg" xmlns:xlink="http://www.w3.org/1999/xlink" xmlns:sketch="http://www.bohemiancoding.com/sketch/ns">
    <!-- Generator: Sketch 3.3.1 (12002) - http://www.bohemiancoding.com/sketch -->
    <title>styles</title>
    <desc>Created with Sketch.</desc>
    <defs></defs>
    <g id="Page-1" stroke="none" stroke-width="1" fill="none" fill-rule="evenodd" sketch:type="MSPage">
        <g id="styles" sketch:type="MSLayerGroup" transform="translate(0.000000, -1.000000)">
            <g id="Line-3-+-Shape" transform="translate(0.000000, 62.000000)" fill="#EA5B61" sketch:type="MSShapeGroup">
                <path d="M207.249961,233.725588 L207.205676,233.638168 L207.37247,233.719233 L207.249961,233.725588 Z M206.957444,233.148153 L127.5,76.297592 L124.5,76.297592 L203.225801,231.703875 L82.5410156,173.048835 L3.32910156,17.1943359 L0.329101562,17.1943359 L80.3291016,175.085808 L206.803667,236.779663 L330.712891,159.526792 L250.712891,0.219169188 L247.712891,0.219169188 L327.330078,158.061531 L206.957444,233.148153 Z" id="Shape"></path>
            </g>
            <path d="M126.542005,139.839072 L251.125977,62.1313477 L125.935438,1 L0.125976552,79.1210952 L126.542005,139.839072 Z M126.124,136.410152 L244.875835,62.1757813 L126.124,4.65283203 L6.46650378,78.9510133 L126.124,136.410152 Z" id="Path" fill="#FFFFFF" sketch:type="MSShapeGroup"></path>
        </g>
    </g>
</svg>