<?xml version="1.0" encoding="utf-8"?>
<!-- Generator: Adobe Illustrator 17.1.0, SVG Export Plug-In . SVG Version: 6.00 Build 0)  -->
<!DOCTYPE svg PUBLIC "-//W3C//DTD SVG 1.1//EN" "http://www.w3.org/Graphics/SVG/1.1/DTD/svg11.dtd">
<svg version="1.1" xmlns="http://www.w3.org/2000/svg" xmlns:xlink="http://www.w3.org/1999/xlink" x="0px" y="0px" width="48px"
	 height="48px" viewBox="0 0 48 48" enable-background="new 0 0 48 48" xml:space="preserve">
<g id="Header">
	<g>
		<rect x="-838" y="-568" fill="none" width="1400" height="3600"/>
	</g>
</g>
<g id="Label">
</g>
<g id="Icon">
	<g>
		<g>
			<path d="M43.4,22.6l-18-18l0,0c-0.8-0.8-2-0.8-2.8,0l-18,18c-0.8,0.8-0.8,2,0,2.8l18,18c0,0,0,0,0,0c0.8,0.8,2,0.8,2.8,0l18-18
				C44.2,24.6,44.2,23.4,43.4,22.6z M28,29v-5h-8v6h-4v-8c0-1.1,0.9-2,2-2h10v-5l7,7L28,29z"/>
		</g>
		<rect fill="none" width="48" height="48"/>
	</g>
</g>
<g id="Grid" display="none">
	<g display="inline">
		<line fill="none" stroke="#00E5FF" stroke-width="0.1" stroke-miterlimit="10" x1="42" y1="-568" x2="42" y2="2984"/>
	</g>
</g>
</svg>
