<?xml version="1.0" encoding="utf-8"?>
<!-- Generator: Adobe Illustrator 17.1.0, SVG Export Plug-In . SVG Version: 6.00 Build 0)  -->
<!DOCTYPE svg PUBLIC "-//W3C//DTD SVG 1.1//EN" "http://www.w3.org/Graphics/SVG/1.1/DTD/svg11.dtd">
<svg version="1.1" xmlns="http://www.w3.org/2000/svg" xmlns:xlink="http://www.w3.org/1999/xlink" x="0px" y="0px" width="48px"
	 height="48px" viewBox="0 0 48 48" enable-background="new 0 0 48 48" xml:space="preserve">
<g id="Header">
	<g>
		<rect x="-838" y="-3256" fill="none" width="1400" height="3600"/>
	</g>
</g>
<g id="Label">
</g>
<g id="Icon">
	<g>
		<rect fill="none" width="48" height="48"/>
		<path d="M40,42c-2.8,0-5.6-0.9-8-2.6c-4.9,3.4-11.1,3.4-16,0c-2.4,1.7-5.2,2.6-8,2.6H4v4h4c2.8,0,5.5-0.7,8-2c5,2.6,11,2.6,16,0
			c2.5,1.3,5.2,2,8,2h4v-4H40z M7.9,38H8c3.2,0,6-1.8,8-4c2,2.2,4.8,4,8,4c3.2,0,6-1.8,8-4c2,2.2,4.8,4,8,4h0.1l3.8-13.4
			c0.2-0.5,0.1-1.1-0.1-1.6c-0.2-0.5-0.7-0.8-1.2-1L40,21.2V12c0-2.2-1.8-4-4-4h-6V2H18v6h-6c-2.2,0-4,1.8-4,4v9.2l-2.6,0.8
			c-0.5,0.2-1,0.5-1.2,1c-0.2,0.5-0.3,1-0.1,1.6L7.9,38z M12,12h24v7.9L24,16l-12,3.9V12z"/>
	</g>
</g>
<g id="Grid" display="none">
	<g display="inline">
		<line fill="none" stroke="#00E5FF" stroke-width="0.1" stroke-miterlimit="10" x1="42" y1="-3256" x2="42" y2="296"/>
	</g>
</g>
</svg>
