<?xml version="1.0" encoding="utf-8"?>
<!-- Generator: Adobe Illustrator 17.1.0, SVG Export Plug-In . SVG Version: 6.00 Build 0)  -->
<!DOCTYPE svg PUBLIC "-//W3C//DTD SVG 1.1//EN" "http://www.w3.org/Graphics/SVG/1.1/DTD/svg11.dtd">
<svg version="1.1" xmlns="http://www.w3.org/2000/svg" xmlns:xlink="http://www.w3.org/1999/xlink" x="0px" y="0px" width="48px"
	 height="48px" viewBox="0 0 48 48" enable-background="new 0 0 48 48" xml:space="preserve">
<g id="Header">
	<g>
		<rect x="-838" y="-696" fill="none" width="1400" height="3600"/>
	</g>
</g>
<g id="Label">
</g>
<g id="Icon">
	<g>
		<rect fill="none" width="48" height="48"/>
		<path d="M32,9.6c2,0,3.6-1.6,3.6-3.6S34,2.4,32,2.4c-2,0-3.6,1.6-3.6,3.6S30,9.6,32,9.6z M38,24c-5.5,0-10,4.5-10,10
			c0,5.5,4.5,10,10,10c5.5,0,10-4.5,10-10C48,28.5,43.5,24,38,24z M38,41c-3.9,0-7-3.1-7-7s3.1-7,7-7c3.9,0,7,3.1,7,7S41.9,41,38,41
			z M29.6,20H38v-3.6h-6.4l-3.9-6.5c-0.6-1-1.7-1.7-2.9-1.7c-0.9,0-1.8,0.4-2.4,1L15,16.6c-0.6,0.6-1,1.5-1,2.4
			c0,1.3,0.7,2.3,1.7,2.9l6.7,4.1v10H26V23l-4.5-3.3l4.6-4.7L29.6,20z M10,24C4.5,24,0,28.5,0,34c0,5.5,4.5,10,10,10
			c5.5,0,10-4.5,10-10C20,28.5,15.5,24,10,24z M10,41c-3.9,0-7-3.1-7-7s3.1-7,7-7c3.9,0,7,3.1,7,7S13.9,41,10,41z"/>
	</g>
</g>
<g id="Grid" display="none">
	<g display="inline">
		<line fill="none" stroke="#00E5FF" stroke-width="0.1" stroke-miterlimit="10" x1="42" y1="-696" x2="42" y2="2856"/>
	</g>
</g>
</svg>
