<?xml version="1.0" encoding="utf-8"?>
<!-- Generator: Adobe Illustrator 17.1.0, SVG Export Plug-In . SVG Version: 6.00 Build 0)  -->
<!DOCTYPE svg PUBLIC "-//W3C//DTD SVG 1.1//EN" "http://www.w3.org/Graphics/SVG/1.1/DTD/svg11.dtd">
<svg version="1.1" xmlns="http://www.w3.org/2000/svg" xmlns:xlink="http://www.w3.org/1999/xlink" x="0px" y="0px" width="48px"
	 height="48px" viewBox="0 0 48 48" enable-background="new 0 0 48 48" xml:space="preserve">
<g id="Header">
	<g>
		<rect x="-838" y="-1592" fill="none" width="1400" height="3600"/>
	</g>
</g>
<g id="Label">
</g>
<g id="Icon">
	<g>
		<g>
			<path d="M24,4C13,4,4,13,4,24s9,20,20,20c11,0,20-9,20-20S35,4,24,4z M24,40.4c-2.2,0-4.4-0.5-6.3-1.3c-1.2-3-1.2-5.3,2.2-4.1
				c0,0,7.8,3,16.1,0.2C33,38.4,28.7,40.4,24,40.4z M38.2,32.2c-1.9,0.7-4.2,2-7.9,2c-3.8,0-7.1-1.5-11.2-2.8c-3.7-1.2-5.1-3-7.7-3
				c-1.3,0-2,1.3-2.3,2.4c-1-2.1-1.5-4.4-1.5-6.8c0-1.6,0.2-3.2,0.7-4.6c2.5-3.2,6.4-5.1,11.9-0.9c0,0,12.5,9.3,19.6,9.9
				C39.4,29.8,38.9,31,38.2,32.2z M24.8,15.1c-5.6-5.3-10.2-3.8-12.2-2.9c1.5-1.4,3.3-2.6,5.2-3.4c5.6-0.2,11.8,0.9,15.3,5.8
				c0,0,4.8,8.4,6.6,4.7c0.4,1.5,0.7,3.1,0.7,4.7c0,0.6,0,1.2-0.1,1.8C36.2,25.3,30.7,20.7,24.8,15.1z"/>
		</g>
		<rect fill="none" width="48" height="48"/>
	</g>
</g>
<g id="Grid" display="none">
	<g display="inline">
		<line fill="none" stroke="#00E5FF" stroke-width="0.1" stroke-miterlimit="10" x1="42" y1="-1592" x2="42" y2="1960"/>
	</g>
</g>
</svg>
