<?xml version="1.0" encoding="utf-8"?>
<!-- Generator: Adobe Illustrator 17.1.0, SVG Export Plug-In . SVG Version: 6.00 Build 0)  -->
<!DOCTYPE svg PUBLIC "-//W3C//DTD SVG 1.1//EN" "http://www.w3.org/Graphics/SVG/1.1/DTD/svg11.dtd">
<svg version="1.1" xmlns="http://www.w3.org/2000/svg" xmlns:xlink="http://www.w3.org/1999/xlink" x="0px" y="0px" width="48px"
	 height="48px" viewBox="0 0 48 48" enable-background="new 0 0 48 48" xml:space="preserve">
<g id="Header">
	<g>
		<rect x="-838" y="-1720" fill="none" width="1400" height="3600"/>
	</g>
</g>
<g id="Label">
</g>
<g id="Icon">
	<g>
		<rect fill="none" width="48" height="48"/>
		<path d="M24,14.4c-4.2,0-7.6,3.4-7.6,7.6c0,6,7.6,13,7.6,13s7.6-7,7.6-13C31.6,17.8,28.2,14.4,24,14.4z M24,25c-1.7,0-3-1.3-3-3
			c0-1.7,1.3-3,3-3c1.7,0,3,1.3,3,3C27,23.7,25.7,25,24,25z M24,4C13,4,4,13,4,24s9,20,20,20c11,0,20-9,20-20S35,4,24,4z M24,40
			c-8.8,0-16-7.2-16-16S15.2,8,24,8c8.8,0,16,7.2,16,16S32.8,40,24,40z"/>
	</g>
</g>
<g id="Grid" display="none">
	<g display="inline">
		<line fill="none" stroke="#00E5FF" stroke-width="0.1" stroke-miterlimit="10" x1="42" y1="-1720" x2="42" y2="1832"/>
	</g>
</g>
</svg>
