<?xml version="1.0" encoding="utf-8"?>
<!-- Generator: Adobe Illustrator 17.1.0, SVG Export Plug-In . SVG Version: 6.00 Build 0)  -->
<!DOCTYPE svg PUBLIC "-//W3C//DTD SVG 1.1//EN" "http://www.w3.org/Graphics/SVG/1.1/DTD/svg11.dtd">
<svg version="1.1" xmlns="http://www.w3.org/2000/svg" xmlns:xlink="http://www.w3.org/1999/xlink" x="0px" y="0px" width="48px"
	 height="48px" viewBox="0 0 48 48" enable-background="new 0 0 48 48" xml:space="preserve">
<g id="Header">
	<g>
		<rect x="-838" y="-3128" fill="none" width="1400" height="3600"/>
	</g>
</g>
<g id="Label">
</g>
<g id="Icon">
	<g>
		<rect fill="none" width="48" height="48"/>
		<path d="M13.2,21.6c2.9,5.7,7.5,10.3,13.2,13.2l4.4-4.4c0.5-0.5,1.3-0.7,2-0.5c2.2,0.7,4.7,1.1,7.1,1.1c1.1,0,2,0.9,2,2v7
			c0,1.1-0.9,2-2,2C21.2,42,6,26.8,6,8c0-1.1,0.9-2,2-2h7c1.1,0,2,0.9,2,2c0,2.5,0.4,4.9,1.1,7.1c0.2,0.7,0.1,1.5-0.5,2L13.2,21.6z"
			/>
	</g>
</g>
<g id="Grid" display="none">
	<g display="inline">
		<line fill="none" stroke="#00E5FF" stroke-width="0.1" stroke-miterlimit="10" x1="42" y1="-3128" x2="42" y2="424"/>
	</g>
</g>
</svg>
