<?xml version="1.0" encoding="utf-8"?>
<!-- Generator: Adobe Illustrator 17.1.0, SVG Export Plug-In . SVG Version: 6.00 Build 0)  -->
<!DOCTYPE svg PUBLIC "-//W3C//DTD SVG 1.1//EN" "http://www.w3.org/Graphics/SVG/1.1/DTD/svg11.dtd">
<svg version="1.1" xmlns="http://www.w3.org/2000/svg" xmlns:xlink="http://www.w3.org/1999/xlink" x="0px" y="0px" width="48px"
	 height="48px" viewBox="0 0 48 48" enable-background="new 0 0 48 48" xml:space="preserve">
<g id="Header">
	<g>
		<rect x="-838" y="-696" fill="none" width="1400" height="3600"/>
	</g>
</g>
<g id="Label">
</g>
<g id="Icon">
	<g>
		<rect fill="none" width="48" height="48"/>
		<g>
			<path d="M40,24c0-2.2,1.8-4,4-4v-8c0-2.2-1.8-4-4-4H8c-2.2,0-4,1.8-4,4l0,8c2.2,0,4,1.8,4,4c0,2.2-1.8,4-4,4l0,8c0,2.2,1.8,4,4,4
				h32c2.2,0,4-1.8,4-4v-8C41.8,28,40,26.2,40,24z M31.2,33.6L24,29l-7.2,4.6l2.2-8.2L12.4,20l8.5-0.5l3.1-7.9l3.1,7.9l8.5,0.5
				L29,25.4L31.2,33.6z"/>
		</g>
	</g>
</g>
<g id="Grid" display="none">
	<g display="inline">
		<line fill="none" stroke="#00E5FF" stroke-width="0.1" stroke-miterlimit="10" x1="42" y1="-696" x2="42" y2="2856"/>
	</g>
</g>
</svg>
