<?xml version="1.0" encoding="utf-8"?>
<!-- Generator: Adobe Illustrator 18.0.0, SVG Export Plug-In . SVG Version: 6.00 Build 0)  -->
<!DOCTYPE svg PUBLIC "-//W3C//DTD SVG 1.1//EN" "http://www.w3.org/Graphics/SVG/1.1/DTD/svg11.dtd">
<svg version="1.1" xmlns="http://www.w3.org/2000/svg" xmlns:xlink="http://www.w3.org/1999/xlink" x="0px" y="0px" width="48px"
	 height="48px" viewBox="0 0 48 48" enable-background="new 0 0 48 48" xml:space="preserve">
<g id="Header">
	<g>
		<rect x="-838" y="-1464" fill="none" width="1400" height="3600"/>
	</g>
</g>
<g id="Label">
	<g>
		<rect fill="none" width="48" height="48"/>
		<path d="M39.6,30l2.4-1.8l-2.9-2.9l-2.4,1.8L39.6,30z M38.7,20.5L42,18L24,4l-5.8,4.5l15.7,15.8L38.7,20.5z M6.5,2L4,4.5l8.4,8.4
			L6,18l3.3,2.5L24,32l4.2-3.3l2.9,2.9L24,37.1L9.2,25.6L6,28.1l18,14l9.9-7.7l7.6,7.6l2.5-2.5L6.5,2z"/>
	</g>
</g>
<g id="Icon">
</g>
<g id="Grid" display="none">
	<g display="inline">
		<line fill="none" stroke="#00E5FF" stroke-width="0.1" stroke-miterlimit="10" x1="42" y1="-1464" x2="42" y2="2088"/>
	</g>
</g>
</svg>
