<?xml version="1.0" encoding="utf-8"?>
<!-- Generator: Adobe Illustrator 17.1.0, SVG Export Plug-In . SVG Version: 6.00 Build 0)  -->
<!DOCTYPE svg PUBLIC "-//W3C//DTD SVG 1.1//EN" "http://www.w3.org/Graphics/SVG/1.1/DTD/svg11.dtd">
<svg version="1.1" xmlns="http://www.w3.org/2000/svg" xmlns:xlink="http://www.w3.org/1999/xlink" x="0px" y="0px" width="48px"
	 height="48px" viewBox="0 0 48 48" enable-background="new 0 0 48 48" xml:space="preserve">
<g id="Header">
	<g>
		<rect x="-838" y="-2744" fill="none" width="1400" height="3600"/>
	</g>
</g>
<g id="Label">
</g>
<g id="Icon">
	<g>
		<g>
			<g>
				<rect fill="none" width="48" height="48"/>
			</g>
		</g>
		<g>
			<path d="M42.8,23.2l-18-18C24.1,4.4,23.1,4,22,4H8C5.8,4,4,5.8,4,8v14c0,1.1,0.4,2.1,1.2,2.8l18,18c0.7,0.7,1.7,1.2,2.8,1.2
				c1.1,0,2.1-0.4,2.8-1.2l14-14c0.7-0.7,1.2-1.7,1.2-2.8C44,24.9,43.5,23.9,42.8,23.2z M11,14c-1.7,0-3-1.3-3-3s1.3-3,3-3
				c1.7,0,3,1.3,3,3S12.7,14,11,14z"/>
		</g>
	</g>
</g>
<g id="Grid" display="none">
	<g display="inline">
		<line fill="none" stroke="#00E5FF" stroke-width="0.1" stroke-miterlimit="10" x1="42" y1="-2744" x2="42" y2="808"/>
	</g>
</g>
</svg>
