<?xml version="1.0" encoding="utf-8"?>
<!-- Generator: Adobe Illustrator 17.1.0, SVG Export Plug-In . SVG Version: 6.00 Build 0)  -->
<!DOCTYPE svg PUBLIC "-//W3C//DTD SVG 1.1//EN" "http://www.w3.org/Graphics/SVG/1.1/DTD/svg11.dtd">
<svg version="1.1" xmlns="http://www.w3.org/2000/svg" xmlns:xlink="http://www.w3.org/1999/xlink" x="0px" y="0px" width="48px"
	 height="48px" viewBox="0 0 48 48" enable-background="new 0 0 48 48" xml:space="preserve">
<g id="Header">
	<g>
		<rect x="-838" y="-1464" fill="none" width="1400" height="3600"/>
	</g>
</g>
<g id="Label">
</g>
<g id="Icon">
	<g>
		<rect fill="none" width="48" height="48"/>
		<path d="M24,44c9.9,0,18-8.1,18-18C32.1,26,24,34.1,24,44z M11.2,20.5c0,2.8,2.2,5,5,5c1.1,0,2-0.3,2.8-0.9c0,0.1,0,0.3,0,0.4
			c0,2.8,2.2,5,5,5s5-2.2,5-5c0-0.1,0-0.3,0-0.4c0.8,0.6,1.8,0.9,2.8,0.9c2.8,0,5-2.2,5-5c0-2-1.2-3.7-2.9-4.5
			c1.7-0.8,2.9-2.5,2.9-4.5c0-2.8-2.2-5-5-5c-1.1,0-2,0.3-2.8,0.9c0-0.1,0-0.3,0-0.4c0-2.8-2.2-5-5-5s-5,2.2-5,5c0,0.1,0,0.3,0,0.4
			c-0.8-0.6-1.8-0.9-2.8-0.9c-2.8,0-5,2.2-5,5c0,2,1.2,3.7,2.9,4.5C12.4,16.8,11.2,18.5,11.2,20.5z M24,11c2.8,0,5,2.2,5,5
			s-2.2,5-5,5s-5-2.2-5-5S21.2,11,24,11z M6,26c0,9.9,8.1,18,18,18C24,34.1,15.9,26,6,26z"/>
	</g>
</g>
<g id="Grid" display="none">
	<g display="inline">
		<line fill="none" stroke="#00E5FF" stroke-width="0.1" stroke-miterlimit="10" x1="42" y1="-1464" x2="42" y2="2088"/>
	</g>
</g>
</svg>
