<?xml version="1.0" encoding="utf-8"?>
<!-- Generator: Adobe Illustrator 17.1.0, SVG Export Plug-In . SVG Version: 6.00 Build 0)  -->
<!DOCTYPE svg PUBLIC "-//W3C//DTD SVG 1.1//EN" "http://www.w3.org/Graphics/SVG/1.1/DTD/svg11.dtd">
<svg version="1.1" xmlns="http://www.w3.org/2000/svg" xmlns:xlink="http://www.w3.org/1999/xlink" x="0px" y="0px" width="48px"
	 height="48px" viewBox="0 0 48 48" enable-background="new 0 0 48 48" xml:space="preserve">
<g id="Header">
	<g>
		<rect x="-838" y="-1592" fill="none" width="1400" height="3600"/>
	</g>
</g>
<g id="Label">
</g>
<g id="Icon">
	<g>
		<rect fill="none" width="48" height="48"/>
		<path d="M39.5,14.5L39.5,14.5L32.1,7L30,9.1l4.2,4.2C32.3,14.1,31,15.9,31,18c0,2.8,2.2,5,5,5c0.7,0,1.4-0.2,2-0.4V37
			c0,1.1-0.9,2-2,2s-2-0.9-2-2v-9c0-2.2-1.8-4-4-4h-2V10c0-2.2-1.8-4-4-4H12c-2.2,0-4,1.8-4,4v32h20V27h3v10c0,2.8,2.2,5,5,5
			s5-2.2,5-5V18C41,16.6,40.4,15.4,39.5,14.5z M24,20H12V10h12V20z M36,20c-1.1,0-2-0.9-2-2s0.9-2,2-2s2,0.9,2,2S37.1,20,36,20z"/>
	</g>
</g>
<g id="Grid" display="none">
	<g display="inline">
		<line fill="none" stroke="#00E5FF" stroke-width="0.1" stroke-miterlimit="10" x1="42" y1="-1592" x2="42" y2="1960"/>
	</g>
</g>
</svg>
