<?xml version="1.0" encoding="utf-8"?>
<!-- Generator: Adobe Illustrator 17.1.0, SVG Export Plug-In . SVG Version: 6.00 Build 0)  -->
<!DOCTYPE svg PUBLIC "-//W3C//DTD SVG 1.1//EN" "http://www.w3.org/Graphics/SVG/1.1/DTD/svg11.dtd">
<svg version="1.1" xmlns="http://www.w3.org/2000/svg" xmlns:xlink="http://www.w3.org/1999/xlink" x="0px" y="0px" width="48px"
	 height="48px" viewBox="0 0 48 48" enable-background="new 0 0 48 48" xml:space="preserve">
<g id="Header">
	<g>
		<rect x="-838" y="-568" fill="none" width="1400" height="3600"/>
	</g>
</g>
<g id="Label">
</g>
<g id="Icon">
	<g>
		<rect fill="none" width="48" height="48"/>
		<g>
			<path d="M16.2,26.7l5.7-5.7L7.8,7c-3.1,3.1-3.1,8.2,0,11.3L16.2,26.7z"/>
			<path d="M29.8,23.1c3.1,1.4,7.4,0.4,10.5-2.8c3.8-3.8,4.6-9.3,1.6-12.2C39,5.1,33.5,5.9,29.7,9.7c-3.2,3.2-4.2,7.5-2.8,10.5
				C22.5,24.7,7.4,39.8,7.4,39.8l2.8,2.8L24,28.8l13.8,13.8l2.8-2.8L26.8,26L29.8,23.1z"/>
		</g>
	</g>
</g>
<g id="Grid" display="none">
	<g display="inline">
		<line fill="none" stroke="#00E5FF" stroke-width="0.1" stroke-miterlimit="10" x1="42" y1="-568" x2="42" y2="2984"/>
	</g>
</g>
</svg>
