<?xml version="1.0" encoding="utf-8"?>
<!-- Generator: Adobe Illustrator 17.1.0, SVG Export Plug-In . SVG Version: 6.00 Build 0)  -->
<!DOCTYPE svg PUBLIC "-//W3C//DTD SVG 1.1//EN" "http://www.w3.org/Graphics/SVG/1.1/DTD/svg11.dtd">
<svg version="1.1" xmlns="http://www.w3.org/2000/svg" xmlns:xlink="http://www.w3.org/1999/xlink" x="0px" y="0px" width="48px"
	 height="48px" viewBox="0 0 48 48" enable-background="new 0 0 48 48" xml:space="preserve">
<g id="Header">
	<g>
		<rect x="-838" y="-824" fill="none" width="1400" height="3600"/>
	</g>
</g>
<g id="Label">
</g>
<g id="Icon">
	<g>
		<rect fill="none" width="48" height="48"/>
		<path d="M40,16h-6V8H6c-2.2,0-4,1.8-4,4v22h4c0,3.3,2.7,6,6,6s6-2.7,6-6h12c0,3.3,2.7,6,6,6s6-2.7,6-6h4V24L40,16z M12,37
			c-1.7,0-3-1.3-3-3s1.3-3,3-3s3,1.3,3,3S13.7,37,12,37z M39,19l3.9,5H34v-5H39z M36,37c-1.7,0-3-1.3-3-3s1.3-3,3-3s3,1.3,3,3
			S37.7,37,36,37z"/>
	</g>
</g>
<g id="Grid" display="none">
	<g display="inline">
		<line fill="none" stroke="#00E5FF" stroke-width="0.1" stroke-miterlimit="10" x1="42" y1="-824" x2="42" y2="2728"/>
	</g>
</g>
</svg>
