<?xml version="1.0" encoding="utf-8"?>
<!-- Generator: Adobe Illustrator 17.1.0, SVG Export Plug-In . SVG Version: 6.00 Build 0)  -->
<!DOCTYPE svg PUBLIC "-//W3C//DTD SVG 1.1//EN" "http://www.w3.org/Graphics/SVG/1.1/DTD/svg11.dtd">
<svg version="1.1" xmlns="http://www.w3.org/2000/svg" xmlns:xlink="http://www.w3.org/1999/xlink" x="0px" y="0px" width="48px"
	 height="48px" viewBox="0 0 48 48" enable-background="new 0 0 48 48" xml:space="preserve">
<g id="Header">
	<g>
		<rect x="-838" y="-2488" fill="none" width="1400" height="3600"/>
	</g>
</g>
<g id="Label">
</g>
<g id="Icon">
	<g>
		<rect fill="none" width="48" height="48"/>
		<path d="M38,12h-4c0-5.5-4.5-10-10-10S14,6.5,14,12h-4c-2.2,0-4,1.8-4,4l0,24c0,2.2,1.8,4,4,4h28c2.2,0,4-1.8,4-4V16
			C42,13.8,40.2,12,38,12z M24,6c3.3,0,6,2.7,6,6H18C18,8.7,20.7,6,24,6z M24,26c-5.5,0-10-4.5-10-10h4c0,3.3,2.7,6,6,6s6-2.7,6-6h4
			C34,21.5,29.5,26,24,26z"/>
	</g>
</g>
<g id="Grid" display="none">
	<g display="inline">
		<line fill="none" stroke="#00E5FF" stroke-width="0.1" stroke-miterlimit="10" x1="42" y1="-2488" x2="42" y2="1064"/>
	</g>
</g>
</svg>
