<?xml version="1.0" encoding="utf-8"?>
<!-- Generator: Adobe Illustrator 17.1.0, SVG Export Plug-In . SVG Version: 6.00 Build 0)  -->
<!DOCTYPE svg PUBLIC "-//W3C//DTD SVG 1.1//EN" "http://www.w3.org/Graphics/SVG/1.1/DTD/svg11.dtd">
<svg version="1.1" xmlns="http://www.w3.org/2000/svg" xmlns:xlink="http://www.w3.org/1999/xlink" x="0px" y="0px" width="48px"
	 height="48px" viewBox="0 0 48 48" enable-background="new 0 0 48 48" xml:space="preserve">
<g id="Header">
	<g>
		<rect x="-838" y="-1848" fill="none" width="1400" height="3600"/>
	</g>
</g>
<g id="Label">
</g>
<g id="Icon">
	<g>
		<g>
			<path d="M14,36c-2.2,0-4,1.8-4,4s1.8,4,4,4s4-1.8,4-4S16.2,36,14,36z M2,4v4h4l7.2,15.2l-2.7,4.9C10.2,28.6,10,29.3,10,30
				c0,2.2,1.8,4,4,4h24v-4H14.8c-0.3,0-0.5-0.2-0.5-0.5c0-0.1,0-0.2,0.1-0.2l1.8-3.3h14.9c1.5,0,2.8-0.8,3.5-2.1l7.2-13
				c0.2-0.3,0.2-0.6,0.2-1c0-1.1-0.9-2-2-2H10.4L8.5,4H2z M34,36c-2.2,0-4,1.8-4,4s1.8,4,4,4s4-1.8,4-4S36.2,36,34,36z"/>
		</g>
		<rect fill="none" width="48" height="48"/>
	</g>
</g>
<g id="Grid" display="none">
	<g display="inline">
		<line fill="none" stroke="#00E5FF" stroke-width="0.1" stroke-miterlimit="10" x1="42" y1="-1848" x2="42" y2="1704"/>
	</g>
</g>
</svg>
