<?xml version="1.0" encoding="utf-8"?>
<!-- Generator: Adobe Illustrator 17.1.0, SVG Export Plug-In . SVG Version: 6.00 Build 0)  -->
<!DOCTYPE svg PUBLIC "-//W3C//DTD SVG 1.1//EN" "http://www.w3.org/Graphics/SVG/1.1/DTD/svg11.dtd">
<svg version="1.1" xmlns="http://www.w3.org/2000/svg" xmlns:xlink="http://www.w3.org/1999/xlink" x="0px" y="0px" width="48px"
	 height="48px" viewBox="0 0 48 48" enable-background="new 0 0 48 48" xml:space="preserve">
<g id="Header">
	<g>
		<rect x="-838" y="-1336" fill="none" width="1400" height="3600"/>
	</g>
</g>
<g id="Label">
</g>
<g id="Icon">
	<g>
		<rect fill="none" width="48" height="48"/>
		<path d="M6,4l4,36.5c0.2,2,1.9,3.5,4,3.5h20c2.1,0,3.7-1.5,4-3.5L42,4H6z M24,38c-3.3,0-6-2.7-6-6c0-4,6-10.8,6-10.8S30,28,30,32
			C30,35.3,27.3,38,24,38z M36.7,16H11.3l-0.9-8h27.1L36.7,16z"/>
	</g>
</g>
<g id="Grid" display="none">
	<g display="inline">
		<line fill="none" stroke="#00E5FF" stroke-width="0.1" stroke-miterlimit="10" x1="42" y1="-1336" x2="42" y2="2216"/>
	</g>
</g>
</svg>
