<?xml version="1.0" encoding="utf-8"?>
<!-- Generator: Adobe Illustrator 17.1.0, SVG Export Plug-In . SVG Version: 6.00 Build 0)  -->
<!DOCTYPE svg PUBLIC "-//W3C//DTD SVG 1.1//EN" "http://www.w3.org/Graphics/SVG/1.1/DTD/svg11.dtd">
<svg version="1.1" xmlns="http://www.w3.org/2000/svg" xmlns:xlink="http://www.w3.org/1999/xlink" x="0px" y="0px" width="48px"
	 height="48px" viewBox="0 0 48 48" enable-background="new 0 0 48 48" xml:space="preserve">
<g id="Header">
	<g>
		<rect x="-838" y="-440" fill="none" width="1400" height="3600"/>
	</g>
</g>
<g id="Label">
</g>
<g id="Icon">
	<g>
		<g>
			<path d="M38,16H10c-3.3,0-6,2.7-6,6v12h8v8h24v-8h8V22C44,18.7,41.3,16,38,16z M32,38H16V28h16V38z M38,24c-1.1,0-2-0.9-2-2
				s0.9-2,2-2s2,0.9,2,2S39.1,24,38,24z M36,6H12v8h24V6z"/>
		</g>
		<rect fill="none" width="48" height="48"/>
	</g>
</g>
<g id="Grid" display="none">
	<g display="inline">
		<line fill="none" stroke="#00E5FF" stroke-width="0.1" stroke-miterlimit="10" x1="42" y1="-440" x2="42" y2="3112"/>
	</g>
</g>
</svg>
