<?xml version="1.0" encoding="utf-8"?>
<!-- Generator: Adobe Illustrator 17.1.0, SVG Export Plug-In . SVG Version: 6.00 Build 0)  -->
<!DOCTYPE svg PUBLIC "-//W3C//DTD SVG 1.1//EN" "http://www.w3.org/Graphics/SVG/1.1/DTD/svg11.dtd">
<svg version="1.1" xmlns="http://www.w3.org/2000/svg" xmlns:xlink="http://www.w3.org/1999/xlink" x="0px" y="0px" width="48px"
	 height="48px" viewBox="0 0 48 48" enable-background="new 0 0 48 48" xml:space="preserve">
<g id="Header">
	<g>
		<rect x="-838" y="-1080" fill="none" width="1400" height="3600"/>
	</g>
</g>
<g id="Label">
</g>
<g id="Icon">
	<g>
		<rect fill="none" width="48" height="48"/>
		<path d="M34,10c1.7,0,3-1.3,3-3c0-2-3-5.4-3-5.4S31,5,31,7C31,8.7,32.3,10,34,10z M24,10c1.7,0,3-1.3,3-3c0-2-3-5.4-3-5.4
			S21,5,21,7C21,8.7,22.3,10,24,10z M14,10c1.7,0,3-1.3,3-3c0-2-3-5.4-3-5.4S11,5,11,7C11,8.7,12.3,10,14,10z M37.8,16
			c-0.4-1.2-1.5-2-2.8-2H13c-1.3,0-2.4,0.8-2.8,2L6,28v16c0,1.1,0.9,2,2,2h2c1.1,0,2-0.9,2-2v-2h24v2c0,1.1,0.9,2,2,2h2
			c1.1,0,2-0.9,2-2V28L37.8,16z M13,36c-1.7,0-3-1.3-3-3c0-1.7,1.3-3,3-3c1.7,0,3,1.3,3,3C16,34.7,14.7,36,13,36z M35,36
			c-1.7,0-3-1.3-3-3c0-1.7,1.3-3,3-3c1.7,0,3,1.3,3,3C38,34.7,36.7,36,35,36z M10,26l3-9h22l3,9H10z"/>
	</g>
</g>
<g id="Grid" display="none">
	<g display="inline">
		<line fill="none" stroke="#00E5FF" stroke-width="0.1" stroke-miterlimit="10" x1="42" y1="-1080" x2="42" y2="2472"/>
	</g>
</g>
</svg>
