<?xml version="1.0" encoding="utf-8"?>
<!-- Generator: Adobe Illustrator 17.1.0, SVG Export Plug-In . SVG Version: 6.00 Build 0)  -->
<!DOCTYPE svg PUBLIC "-//W3C//DTD SVG 1.1//EN" "http://www.w3.org/Graphics/SVG/1.1/DTD/svg11.dtd">
<svg version="1.1" xmlns="http://www.w3.org/2000/svg" xmlns:xlink="http://www.w3.org/1999/xlink" x="0px" y="0px" width="48px"
	 height="48px" viewBox="0 0 48 48" enable-background="new 0 0 48 48" xml:space="preserve">
<g id="Header">
	<g>
		<rect x="-838" y="-2360" fill="none" width="1400" height="3600"/>
	</g>
</g>
<g id="Label">
</g>
<g id="Icon">
	<g>
		<g>
			<rect fill="none" width="48" height="48"/>
		</g>
		<path d="M24,16c-4.4,0-8,3.6-8,8c0,4.4,3.6,8,8,8s8-3.6,8-8C32,19.6,28.4,16,24,16z M41.9,22C41,13.7,34.3,7,26,6.1V2h-4v4.1
			C13.7,7,7,13.7,6.1,22H2v4h4.1C7,34.3,13.7,41,22,41.9V46h4v-4.1C34.3,41,41,34.3,41.9,26H46v-4H41.9z M24,38c-7.7,0-14-6.3-14-14
			c0-7.7,6.3-14,14-14s14,6.3,14,14C38,31.7,31.7,38,24,38z"/>
	</g>
</g>
<g id="Grid" display="none">
	<g display="inline">
		<line fill="none" stroke="#00E5FF" stroke-width="0.1" stroke-miterlimit="10" x1="42" y1="-2360" x2="42" y2="1192"/>
	</g>
</g>
</svg>
