<?xml version="1.0" encoding="utf-8"?>
<!-- Generator: Adobe Illustrator 17.1.0, SVG Export Plug-In . SVG Version: 6.00 Build 0)  -->
<!DOCTYPE svg PUBLIC "-//W3C//DTD SVG 1.1//EN" "http://www.w3.org/Graphics/SVG/1.1/DTD/svg11.dtd">
<svg version="1.1" xmlns="http://www.w3.org/2000/svg" xmlns:xlink="http://www.w3.org/1999/xlink" x="0px" y="0px" width="48px"
	 height="48px" viewBox="0 0 48 48" enable-background="new 0 0 48 48" xml:space="preserve">
<g id="Header">
	<g>
		<rect x="-838" y="-1976" fill="none" width="1400" height="3600"/>
	</g>
</g>
<g id="Label">
</g>
<g id="Icon">
	<g>
		<g>
			<path d="M41,6c-0.1,0-0.2,0-0.3,0.1L30,10.2L18,6L6.7,9.8C6.3,9.9,6,10.3,6,10.8V41c0,0.6,0.4,1,1,1c0.1,0,0.2,0,0.3-0.1L18,37.8
				L30,42l11.3-3.8c0.4-0.1,0.7-0.5,0.7-1V7C42,6.4,41.6,6,41,6z M30,38l-12-4.2V10l12,4.2V38z"/>
		</g>
		<rect fill="none" width="48" height="48"/>
	</g>
</g>
<g id="Grid" display="none">
	<g display="inline">
		<line fill="none" stroke="#00E5FF" stroke-width="0.1" stroke-miterlimit="10" x1="42" y1="-1976" x2="42" y2="1576"/>
	</g>
</g>
</svg>
