<?xml version="1.0" encoding="utf-8"?>
<!-- Generator: Adobe Illustrator 17.1.0, SVG Export Plug-In . SVG Version: 6.00 Build 0)  -->
<!DOCTYPE svg PUBLIC "-//W3C//DTD SVG 1.1//EN" "http://www.w3.org/Graphics/SVG/1.1/DTD/svg11.dtd">
<svg version="1.1" xmlns="http://www.w3.org/2000/svg" xmlns:xlink="http://www.w3.org/1999/xlink" x="0px" y="0px" width="48px"
	 height="48px" viewBox="0 0 48 48" enable-background="new 0 0 48 48" xml:space="preserve">
<g id="Header">
	<g>
		<rect x="-838" y="-2616" fill="none" width="1400" height="3600"/>
	</g>
</g>
<g id="Label">
</g>
<g id="Icon">
	<g>
		<rect fill="none" width="48" height="48"/>
		<g>
			<path fill="none" d="M30.7,12.8l-3.5-3.5c-0.4-0.4-1-0.4-1.4,0L12,23.1V28h4.9l13.8-13.8C31.1,13.9,31.1,13.2,30.7,12.8z"/>
			<path d="M40,4H8C5.8,4,4,5.8,4,8l0,36l8-8h28c2.2,0,4-1.8,4-4V8C44,5.8,42.2,4,40,4z M12,28v-4.9L25.8,9.3c0.4-0.4,1-0.4,1.4,0
				l3.5,3.5c0.4,0.4,0.4,1,0,1.4L16.9,28H12z M36,28H21l4-4h11V28z"/>
		</g>
	</g>
</g>
<g id="Grid" display="none">
	<g display="inline">
		<line fill="none" stroke="#00E5FF" stroke-width="0.1" stroke-miterlimit="10" x1="42" y1="-2616" x2="42" y2="936"/>
	</g>
</g>
</svg>
