<?xml version="1.0" encoding="utf-8"?>
<!-- Generator: Adobe Illustrator 17.1.0, SVG Export Plug-In . SVG Version: 6.00 Build 0)  -->
<!DOCTYPE svg PUBLIC "-//W3C//DTD SVG 1.1//EN" "http://www.w3.org/Graphics/SVG/1.1/DTD/svg11.dtd">
<svg version="1.1" xmlns="http://www.w3.org/2000/svg" xmlns:xlink="http://www.w3.org/1999/xlink" x="0px" y="0px" width="48px"
	 height="48px" viewBox="0 0 48 48" enable-background="new 0 0 48 48" xml:space="preserve">
<g id="Header">
	<g>
		<rect x="-838" y="-2744" fill="none" width="1400" height="3600"/>
	</g>
</g>
<g id="Label">
</g>
<g id="Icon">
	<g>
		<path d="M40,20h-6v-2.3c3.4-0.9,6-4,6-7.7h-6V8c0-1.1-0.9-2-2-2H16c-1.1,0-2,0.9-2,2v2H8c0,3.7,2.6,6.8,6,7.7V20H8
			c0,3.7,2.6,6.8,6,7.7V30H8c0,3.7,2.6,6.8,6,7.7V40c0,1.1,0.9,2,2,2h16c1.1,0,2-0.9,2-2v-2.3c3.4-0.9,6-4,6-7.7h-6v-2.3
			C37.4,26.8,40,23.7,40,20z M24,38c-2.2,0-4-1.8-4-4s1.8-4,4-4c2.2,0,4,1.8,4,4S26.2,38,24,38z M24,28c-2.2,0-4-1.8-4-4s1.8-4,4-4
			c2.2,0,4,1.8,4,4S26.2,28,24,28z M24,18c-2.2,0-4-1.8-4-4c0-2.2,1.8-4,4-4c2.2,0,4,1.8,4,4C28,16.2,26.2,18,24,18z"/>
		<rect fill="none" width="48" height="48"/>
	</g>
</g>
<g id="Grid" display="none">
	<g display="inline">
		<line fill="none" stroke="#00E5FF" stroke-width="0.1" stroke-miterlimit="10" x1="42" y1="-2744" x2="42" y2="808"/>
	</g>
</g>
</svg>
