<?xml version="1.0" encoding="utf-8"?>
<!-- Generator: Adobe Illustrator 17.1.0, SVG Export Plug-In . SVG Version: 6.00 Build 0)  -->
<!DOCTYPE svg PUBLIC "-//W3C//DTD SVG 1.1//EN" "http://www.w3.org/Graphics/SVG/1.1/DTD/svg11.dtd">
<svg version="1.1" xmlns="http://www.w3.org/2000/svg" xmlns:xlink="http://www.w3.org/1999/xlink" x="0px" y="0px" width="48px"
	 height="48px" viewBox="0 0 48 48" enable-background="new 0 0 48 48" xml:space="preserve">
<g id="Header">
	<g>
		<rect x="-838" y="-696" fill="none" width="1400" height="3600"/>
	</g>
</g>
<g id="Label">
</g>
<g id="Icon">
	<g>
		<g opacity="0.1">
			<rect fill="none" width="48" height="48"/>
		</g>
		<path d="M24,4C13,4,4,13,4,24s9,20,20,20c11,0,20-9,20-20S35,4,24,4z M24,8c5.9,0,11.1,3.2,13.8,8H24c-3.9,0-7.1,2.8-7.8,6.4
			l-4.8-8.3C14.3,10.4,18.9,8,24,8z M30,24c0,3.3-2.7,6-6,6c-3.3,0-6-2.7-6-6c0-3.3,2.7-6,6-6C27.3,18,30,20.7,30,24z M8,24
			c0-2.9,0.8-5.6,2.2-8l6.9,12l0,0c1.4,2.4,3.9,4,6.9,4c0.9,0,1.8-0.2,2.6-0.5l-4.8,8.3C14,38.8,8,32.1,8,24z M24,40l6.9-12l0,0
			c0.7-1.2,1.1-2.5,1.1-4c0-2.4-1.1-4.5-2.8-6h9.6c0.8,1.9,1.2,3.9,1.2,6C40,32.8,32.8,40,24,40z"/>
	</g>
</g>
<g id="Grid" display="none">
	<g display="inline">
		<line fill="none" stroke="#00E5FF" stroke-width="0.1" stroke-miterlimit="10" x1="42" y1="-696" x2="42" y2="2856"/>
	</g>
</g>
</svg>
