<?xml version="1.0" encoding="utf-8"?>
<!-- Generator: Adobe Illustrator 17.1.0, SVG Export Plug-In . SVG Version: 6.00 Build 0)  -->
<!DOCTYPE svg PUBLIC "-//W3C//DTD SVG 1.1//EN" "http://www.w3.org/Graphics/SVG/1.1/DTD/svg11.dtd">
<svg version="1.1" xmlns="http://www.w3.org/2000/svg" xmlns:xlink="http://www.w3.org/1999/xlink" x="0px" y="0px" width="48px"
	 height="48px" viewBox="0 0 48 48" enable-background="new 0 0 48 48" xml:space="preserve">
<g id="Header">
	<g>
		<rect x="-838" y="-2872" fill="none" width="1400" height="3600"/>
	</g>
</g>
<g id="Label">
</g>
<g id="Icon">
	<g>
		<rect y="-1" fill="none" width="48" height="48"/>
		<path d="M31,21c1.7,0,3-1.3,3-3s-1.3-3-3-3c-1.7,0-3,1.3-3,3S29.3,21,31,21z M17,21c1.7,0,3-1.3,3-3s-1.3-3-3-3s-3,1.3-3,3
			S15.3,21,17,21z M24,35c5.2,0,9.7-3.3,11.3-8H12.7C14.3,31.7,18.8,35,24,35z M24,3C12.9,3,4,12,4,23s8.9,20,20,20
			c11.1,0,20-9,20-20S35,3,24,3z M24,39c-8.8,0-16-7.2-16-16S15.2,7,24,7c8.8,0,16,7.2,16,16S32.8,39,24,39z"/>
	</g>
</g>
<g id="Grid" display="none">
	<g display="inline">
		<line fill="none" stroke="#00E5FF" stroke-width="0.1" stroke-miterlimit="10" x1="42" y1="-2872" x2="42" y2="680"/>
	</g>
</g>
</svg>
