<?xml version="1.0" encoding="utf-8"?>
<!-- Generator: Adobe Illustrator 17.1.0, SVG Export Plug-In . SVG Version: 6.00 Build 0)  -->
<!DOCTYPE svg PUBLIC "-//W3C//DTD SVG 1.1//EN" "http://www.w3.org/Graphics/SVG/1.1/DTD/svg11.dtd">
<svg version="1.1" xmlns="http://www.w3.org/2000/svg" xmlns:xlink="http://www.w3.org/1999/xlink" x="0px" y="0px" width="48px"
	 height="48px" viewBox="0 0 48 48" enable-background="new 0 0 48 48" xml:space="preserve">
<g id="Header">
	<g>
		<rect x="-838" y="-1720" fill="none" width="1400" height="3600"/>
	</g>
</g>
<g id="Label">
</g>
<g id="Icon">
	<g>
		<g>
			<rect fill="none" width="48" height="48"/>
		</g>
		<path d="M40,36c2.2,0,4-1.8,4-4l0-22c0-2.2-1.8-4-4-4H8c-2.2,0-4,1.8-4,4v22c0,2.2,1.8,4,4,4H0c0,2.2,1.8,4,4,4h40
			c2.2,0,4-1.8,4-4H40z M8,10h32v22H8V10z M24,38c-1.1,0-2-0.9-2-2s0.9-2,2-2c1.1,0,2,0.9,2,2S25.1,38,24,38z"/>
	</g>
</g>
<g id="Grid" display="none">
	<g display="inline">
		<line fill="none" stroke="#00E5FF" stroke-width="0.1" stroke-miterlimit="10" x1="42" y1="-1720" x2="42" y2="1832"/>
	</g>
</g>
</svg>
