<?xml version="1.0" encoding="utf-8"?>
<!-- Generator: Adobe Illustrator 18.0.0, SVG Export Plug-In . SVG Version: 6.00 Build 0)  -->
<!DOCTYPE svg PUBLIC "-//W3C//DTD SVG 1.1//EN" "http://www.w3.org/Graphics/SVG/1.1/DTD/svg11.dtd">
<svg version="1.1" xmlns="http://www.w3.org/2000/svg" xmlns:xlink="http://www.w3.org/1999/xlink" x="0px" y="0px" width="48px"
	 height="48px" viewBox="0 0 48 48" enable-background="new 0 0 48 48" xml:space="preserve">
<g id="Header">
	<g>
		<rect x="-838" y="-2744" fill="none" width="1400" height="3600"/>
	</g>
</g>
<g id="Label">
</g>
<g id="Icon">
	<g>
		<g>
			<rect fill="none" width="48" height="48"/>
		</g>
		<rect fill="none" width="48" height="48"/>
		<path d="M44,12V8H13.6l4,4H44z M3.8,3.3L1.3,5.8l3.6,3.6C4.4,10.2,4,11,4,12v22H0v6h35.5l4.7,4.7l2.5-2.5L7.8,7.2L3.8,3.3z
			 M8,12.5L29.5,34H8V12.5z M46,16H34c-1.1,0-2,0.9-2,2v8.4l4,4V20h8v14h-4.4l6,6H46c1.1,0,2-0.9,2-2V18C48,16.9,47.1,16,46,16z"/>
	</g>
</g>
<g id="Grid" display="none">
	<g display="inline">
		<line fill="none" stroke="#00E5FF" stroke-width="0.1" stroke-miterlimit="10" x1="42" y1="-2744" x2="42" y2="808"/>
	</g>
</g>
</svg>
