<?xml version="1.0" encoding="utf-8"?>
<!-- Generator: Adobe Illustrator 17.1.0, SVG Export Plug-In . SVG Version: 6.00 Build 0)  -->
<!DOCTYPE svg PUBLIC "-//W3C//DTD SVG 1.1//EN" "http://www.w3.org/Graphics/SVG/1.1/DTD/svg11.dtd">
<svg version="1.1" xmlns="http://www.w3.org/2000/svg" xmlns:xlink="http://www.w3.org/1999/xlink" x="0px" y="0px" width="18px"
	 height="18px" viewBox="0 0 18 18" enable-background="new 0 0 18 18" xml:space="preserve">
<g id="Header">
	<g>
		<rect x="-520" y="-568" fill="none" width="1400" height="3600"/>
	</g>
</g>
<g id="Label">
	<g>
		<path d="M9.6,8.1C8,7.6,6.9,7.4,6.9,6.2c0-0.8,0.7-1.6,2.1-1.6c1.6,0,2.1,0.9,2.1,1.9H13c0-1.8-1.2-3.1-3-3.4V1H8v2.1
			C6.4,3.4,5,4.5,5,6.2C5,8.5,6.8,9,9,9.8c1.9,0.6,2.2,1,2.2,2.1c0,0.9-0.7,1.6-2.2,1.6c-1.2,0-2.2-0.8-2.2-2.1h-2
			c0,1.9,1.4,3.2,3.2,3.6V17h2v-2.1c2-0.3,3.2-1.5,3.2-3.1C13.2,10,12.3,9,9.6,8.1z"/>
		<rect fill="none" width="18" height="18"/>
	</g>
</g>
<g id="Icon">
</g>
<g id="Grid" display="none">
	<g display="inline">
		<line fill="none" stroke="#00E5FF" stroke-width="0.1" stroke-miterlimit="10" x1="0" y1="-568" x2="0" y2="2984"/>
	</g>
</g>
</svg>
