<?xml version="1.0" encoding="utf-8"?>
<!-- Generator: Adobe Illustrator 17.1.0, SVG Export Plug-In . SVG Version: 6.00 Build 0)  -->
<!DOCTYPE svg PUBLIC "-//W3C//DTD SVG 1.1//EN" "http://www.w3.org/Graphics/SVG/1.1/DTD/svg11.dtd">
<svg version="1.1" xmlns="http://www.w3.org/2000/svg" xmlns:xlink="http://www.w3.org/1999/xlink" x="0px" y="0px" width="18px"
	 height="18px" viewBox="0 0 18 18" enable-background="new 0 0 18 18" xml:space="preserve">
<g id="Header">
	<g>
		<rect x="-520" y="-1720" fill="none" width="1400" height="3600"/>
	</g>
</g>
<g id="Label">
</g>
<g id="Icon">
	<g>
		<path d="M13,14c0,2.2-1.8,4-4,4s-4-1.8-4-4V3c0-1.7,1.3-3,3-3s3,1.3,3,3v9c0,1.1-0.9,2-2,2s-2-0.9-2-2V4h1v8c0,0.6,0.4,1,1,1
			s1-0.4,1-1V3c0-1.1-0.9-2-2-2S6,1.9,6,3v11c0,1.7,1.3,3,3,3s3-1.3,3-3V4h1V14z"/>
		<rect fill="none" width="18" height="18"/>
	</g>
</g>
<g id="Grid" display="none">
	<g display="inline">
		<line fill="none" stroke="#00E5FF" stroke-width="0.1" stroke-miterlimit="10" x1="0" y1="-1720" x2="0" y2="1832"/>
	</g>
</g>
</svg>
