<?xml version="1.0" encoding="utf-8"?>
<!-- Generator: Adobe Illustrator 17.1.0, SVG Export Plug-In . SVG Version: 6.00 Build 0)  -->
<!DOCTYPE svg PUBLIC "-//W3C//DTD SVG 1.1//EN" "http://www.w3.org/Graphics/SVG/1.1/DTD/svg11.dtd">
<svg version="1.1" xmlns="http://www.w3.org/2000/svg" xmlns:xlink="http://www.w3.org/1999/xlink" x="0px" y="0px" width="48px"
	 height="48px" viewBox="0 0 48 48" enable-background="new 0 0 48 48" xml:space="preserve">
<g id="Header">
	<g>
		<rect x="-838" y="-568" fill="none" width="1400" height="3600"/>
	</g>
</g>
<g id="Label">
	<g>
		<path d="M23.6,21.8c-4.5-1.2-6-2.4-6-4.3c0-2.2,2-3.7,5.4-3.7c3.6,0,4.9,1.7,5,4.2h4.4c-0.1-3.4-2.2-6.6-6.4-7.6V6h-6v4.3
			c-3.9,0.8-7,3.4-7,7.2c0,4.6,3.8,6.9,9.4,8.3c5,1.2,6,3,6,4.8c0,1.4-1,3.6-5.4,3.6c-4.1,0-5.7-1.8-6-4.2h-4.4
			c0.2,4.4,3.5,6.8,7.4,7.7V42h6v-4.3c3.9-0.7,7-3,7-7.1C33,24.9,28.1,23,23.6,21.8z"/>
		<rect fill="none" width="48" height="48"/>
	</g>
</g>
<g id="Icon">
</g>
<g id="Grid" display="none">
	<g display="inline">
		<line fill="none" stroke="#00E5FF" stroke-width="0.1" stroke-miterlimit="10" x1="42" y1="-568" x2="42" y2="2984"/>
	</g>
</g>
</svg>
