<?xml version="1.0" encoding="utf-8"?>
<!-- Generator: Adobe Illustrator 17.1.0, SVG Export Plug-In . SVG Version: 6.00 Build 0)  -->
<!DOCTYPE svg PUBLIC "-//W3C//DTD SVG 1.1//EN" "http://www.w3.org/Graphics/SVG/1.1/DTD/svg11.dtd">
<svg version="1.1" xmlns="http://www.w3.org/2000/svg" xmlns:xlink="http://www.w3.org/1999/xlink" x="0px" y="0px" width="18px"
	 height="18px" viewBox="0 0 18 18" enable-background="new 0 0 18 18" xml:space="preserve">
<g id="Header">
	<g>
		<rect x="-520" y="-568" fill="none" width="1400" height="3600"/>
	</g>
</g>
<g id="Label">
	<g>
		<rect fill="none" width="18" height="18"/>
		<path d="M7,2H5v2h2V2z M10,8H8v2h2V8z M10,11H8v2h2V11z M13,8h-2v2h2V8z M7,8H5v2h2V8z M13,2h-2v2h2V2z M10,5H8v2h2V5z M10,2H8v2
			h2V2z M4,11H2v2h2V11z M14,13h2v-2h-2V13z M14,7h2V5h-2V7z M14,10h2V8h-2V10z M14,2v2h2V2H14z M4,2H2v2h2V2z M2,16h14v-2H2V16z
			 M4,5H2v2h2V5z M4,8H2v2h2V8z"/>
	</g>
</g>
<g id="Icon">
</g>
<g id="Grid" display="none">
	<g display="inline">
		<line fill="none" stroke="#00E5FF" stroke-width="0.1" stroke-miterlimit="10" x1="0" y1="-568" x2="0" y2="2984"/>
	</g>
</g>
</svg>
