<?xml version="1.0" encoding="utf-8"?>
<!-- Generator: Adobe Illustrator 17.1.0, SVG Export Plug-In . SVG Version: 6.00 Build 0)  -->
<!DOCTYPE svg PUBLIC "-//W3C//DTD SVG 1.1//EN" "http://www.w3.org/Graphics/SVG/1.1/DTD/svg11.dtd">
<svg version="1.1" xmlns="http://www.w3.org/2000/svg" xmlns:xlink="http://www.w3.org/1999/xlink" x="0px" y="0px" width="48px"
	 height="48px" viewBox="0 0 48 48" enable-background="new 0 0 48 48" xml:space="preserve">
<g id="Header">
	<g>
		<rect x="-838" y="-696" fill="none" width="1400" height="3600"/>
	</g>
</g>
<g id="Label">
	<g>
		<path d="M14,10h4V6h-4V10z M14,26h4v-4h-4V26z M14,42h4v-4h-4V42z M22,34h4v-4h-4V34z M22,42h4v-4h-4V42z M6,42h4v-4H6V42z M6,34
			h4v-4H6V34z M6,26h4v-4H6V26z M6,18h4v-4H6V18z M6,10h4V6H6V10z M22,26h4v-4h-4V26z M38,34h4v-4h-4V34z M38,26h4v-4h-4V26z M38,42
			h4v-4h-4V42z M38,18h4v-4h-4V18z M22,18h4v-4h-4V18z M38,6v4h4V6H38z M22,10h4V6h-4V10z M30,42h4v-4h-4V42z M30,26h4v-4h-4V26z
			 M30,10h4V6h-4V10z"/>
		<rect fill="none" width="48" height="48"/>
	</g>
</g>
<g id="Icon">
</g>
<g id="Grid" display="none">
	<g display="inline">
		<line fill="none" stroke="#00E5FF" stroke-width="0.1" stroke-miterlimit="10" x1="42" y1="-696" x2="42" y2="2856"/>
	</g>
</g>
</svg>
