<?xml version="1.0" encoding="utf-8"?>
<!-- Generator: Adobe Illustrator 17.1.0, SVG Export Plug-In . SVG Version: 6.00 Build 0)  -->
<!DOCTYPE svg PUBLIC "-//W3C//DTD SVG 1.1//EN" "http://www.w3.org/Graphics/SVG/1.1/DTD/svg11.dtd">
<svg version="1.1" xmlns="http://www.w3.org/2000/svg" xmlns:xlink="http://www.w3.org/1999/xlink" x="0px" y="0px" width="48px"
	 height="48px" viewBox="0 0 48 48" enable-background="new 0 0 48 48" xml:space="preserve">
<g id="Header">
	<g>
		<rect x="-838" y="-952" fill="none" width="1400" height="3600"/>
	</g>
</g>
<g id="Label">
	<g>
		<path d="M6,42h4v-4H6V42z M14,42h4v-4h-4V42z M10,14H6v4h4V14z M6,34h4v-4H6V34z M18,6h-4v4h4V6z M10,6H6v4h4V6z M34,6h-4v4h4V6z
			 M38,18h4v-4h-4V18z M38,6v4h4V6H38z M30,42h4v-4h-4V42z M26,6h-4v16H6v4h16v16h4V26h16v-4H26V6z M38,42h4v-4h-4V42z M38,34h4v-4
			h-4V34z"/>
		<rect fill="none" width="48" height="48"/>
	</g>
</g>
<g id="Icon">
</g>
<g id="Grid" display="none">
	<g display="inline">
		<line fill="none" stroke="#00E5FF" stroke-width="0.1" stroke-miterlimit="10" x1="42" y1="-952" x2="42" y2="2600"/>
	</g>
</g>
</svg>
