<?xml version="1.0" encoding="utf-8"?>
<!-- Generator: Adobe Illustrator 17.1.0, SVG Export Plug-In . SVG Version: 6.00 Build 0)  -->
<!DOCTYPE svg PUBLIC "-//W3C//DTD SVG 1.1//EN" "http://www.w3.org/Graphics/SVG/1.1/DTD/svg11.dtd">
<svg version="1.1" xmlns="http://www.w3.org/2000/svg" xmlns:xlink="http://www.w3.org/1999/xlink" x="0px" y="0px" width="48px"
	 height="48px" viewBox="0 0 48 48" enable-background="new 0 0 48 48" xml:space="preserve">
<g id="Header">
	<g>
		<rect x="-838" y="-1976" fill="none" width="1400" height="3600"/>
	</g>
</g>
<g id="Label">
	<g>
		<path d="M31.2,21.6c1.9-1.3,3.3-3.5,3.3-5.6c0-4.5-3.5-8-8-8H14v28h14.1c4.2,0,7.4-3.4,7.4-7.6C35.5,25.4,33.8,22.8,31.2,21.6z
			 M20,13h6c1.7,0,3,1.3,3,3s-1.3,3-3,3h-6V13z M27,31h-7v-6h7c1.7,0,3,1.3,3,3S28.7,31,27,31z"/>
		<rect fill="none" width="48" height="48"/>
	</g>
</g>
<g id="Icon">
</g>
<g id="Grid" display="none">
	<g display="inline">
		<line fill="none" stroke="#00E5FF" stroke-width="0.1" stroke-miterlimit="10" x1="42" y1="-1976" x2="42" y2="1576"/>
	</g>
</g>
</svg>
