<?xml version="1.0" encoding="utf-8"?>
<!-- Generator: Adobe Illustrator 17.1.0, SVG Export Plug-In . SVG Version: 6.00 Build 0)  -->
<!DOCTYPE svg PUBLIC "-//W3C//DTD SVG 1.1//EN" "http://www.w3.org/Graphics/SVG/1.1/DTD/svg11.dtd">
<svg version="1.1" xmlns="http://www.w3.org/2000/svg" xmlns:xlink="http://www.w3.org/1999/xlink" x="0px" y="0px" width="48px"
	 height="48px" viewBox="0 0 48 48" enable-background="new 0 0 48 48" xml:space="preserve">
<g id="Header">
	<g>
		<rect x="-838" y="-2488" fill="none" width="1400" height="3600"/>
	</g>
</g>
<g id="Label">
	<g>
		<rect fill="none" width="48" height="48"/>
		<rect fill="none" width="48" height="48"/>
		<rect fill="none" width="48" height="48"/>
		<path d="M36,28c0-8-12-21.6-12-21.6s-2.7,3-5.5,7l17.2,17.2C35.9,29.8,36,28.9,36,28z M34.2,34.2L25,25L10.5,10.5L8,13.1l6.6,6.6
			C13.1,22.6,12,25.6,12,28c0,6.6,5.4,12,12,12c3,0,5.8-1.1,7.9-3l5.3,5.3l2.5-2.5L34.2,34.2z"/>
	</g>
</g>
<g id="Icon">
</g>
<g id="Grid" display="none">
	<g display="inline">
		<line fill="none" stroke="#00E5FF" stroke-width="0.1" stroke-miterlimit="10" x1="42" y1="-2488" x2="42" y2="1064"/>
	</g>
</g>
</svg>
