<?xml version="1.0" encoding="utf-8"?>
<!-- Generator: Adobe Illustrator 17.1.0, SVG Export Plug-In . SVG Version: 6.00 Build 0)  -->
<!DOCTYPE svg PUBLIC "-//W3C//DTD SVG 1.1//EN" "http://www.w3.org/Graphics/SVG/1.1/DTD/svg11.dtd">
<svg version="1.1" xmlns="http://www.w3.org/2000/svg" xmlns:xlink="http://www.w3.org/1999/xlink" x="0px" y="0px" width="48px"
	 height="48px" viewBox="0 0 48 48" enable-background="new 0 0 48 48" xml:space="preserve">
<g id="Header">
	<g>
		<rect x="-838" y="-2360" fill="none" width="1400" height="3600"/>
	</g>
</g>
<g id="Label">
	<g>
		<rect fill="none" width="48" height="48"/>
		<path d="M33.1,17.9L15.2,0l-2.8,2.8l4.8,4.8L6.9,17.9c-1.2,1.2-1.2,3.1,0,4.2l11,11c0.6,0.6,1.4,0.9,2.1,0.9s1.5-0.3,2.1-0.9
			l11-11C34.3,21,34.3,19.1,33.1,17.9z M10.4,20l9.6-9.6l9.6,9.6H10.4z M38,23c0,0-4,4.3-4,7c0,2.2,1.8,4,4,4s4-1.8,4-4
			C42,27.3,38,23,38,23z"/>
		<rect y="40" fill="#A3A3A3" width="48" height="8"/>
	</g>
</g>
<g id="Icon">
</g>
<g id="Grid" display="none">
	<g display="inline">
		<line fill="none" stroke="#00E5FF" stroke-width="0.1" stroke-miterlimit="10" x1="42" y1="-2360" x2="42" y2="1192"/>
	</g>
</g>
</svg>
