<?xml version="1.0" encoding="utf-8"?>
<!-- Generator: Adobe Illustrator 17.1.0, SVG Export Plug-In . SVG Version: 6.00 Build 0)  -->
<!DOCTYPE svg PUBLIC "-//W3C//DTD SVG 1.1//EN" "http://www.w3.org/Graphics/SVG/1.1/DTD/svg11.dtd">
<svg version="1.1" xmlns="http://www.w3.org/2000/svg" xmlns:xlink="http://www.w3.org/1999/xlink" x="0px" y="0px" width="18px"
	 height="18px" viewBox="0 0 18 18" enable-background="new 0 0 18 18" xml:space="preserve">
<g id="Header">
	<g>
		<rect x="-520" y="-2360" fill="none" width="1400" height="3600"/>
	</g>
</g>
<g id="Label">
	<g>
		<rect y="15" fill="#A3A3A3" width="18" height="3"/>
		<path d="M14.5,8.9c0,0-1.5,1.6-1.5,2.6c0,0.8,0.7,1.5,1.5,1.5s1.5-0.7,1.5-1.5C16,10.5,14.5,8.9,14.5,8.9z M12.7,6.8L5.9,0
			L4.9,1.1l1.6,1.6L2.3,6.8c-0.4,0.4-0.4,1,0,1.4l4.5,4.5C7,12.9,7.2,13,7.5,13s0.5-0.1,0.7-0.3l4.5-4.5C13.1,7.8,13.1,7.2,12.7,6.8
			z M4.2,7l3.3-3.3L10.8,7H4.2z"/>
		<rect fill="none" width="18" height="18"/>
	</g>
</g>
<g id="Icon">
</g>
<g id="Grid" display="none">
	<g display="inline">
		<line fill="none" stroke="#00E5FF" stroke-width="0.1" stroke-miterlimit="10" x1="0" y1="-2360" x2="0" y2="1192"/>
	</g>
</g>
</svg>
