<?xml version="1.0" encoding="utf-8"?>
<!-- Generator: Adobe Illustrator 17.1.0, SVG Export Plug-In . SVG Version: 6.00 Build 0)  -->
<!DOCTYPE svg PUBLIC "-//W3C//DTD SVG 1.1//EN" "http://www.w3.org/Graphics/SVG/1.1/DTD/svg11.dtd">
<svg version="1.1" xmlns="http://www.w3.org/2000/svg" xmlns:xlink="http://www.w3.org/1999/xlink" x="0px" y="0px" width="18px"
	 height="18px" viewBox="0 0 18 18" enable-background="new 0 0 18 18" xml:space="preserve">
<g id="Header">
	<g>
		<rect x="-520" y="-2488" fill="none" width="1400" height="3600"/>
	</g>
</g>
<g id="Label">
	<g>
		<rect fill="none" width="18" height="18"/>
		<rect fill="none" width="18" height="18"/>
		<rect fill="none" width="18" height="18"/>
		<path d="M14,11c0-3.3-5-9-5-9S8.1,3,7.2,4.3l6.8,6.8C14,11.1,14,11.1,14,11z M3.5,3.3L2.3,4.5l2.9,2.9C4.5,8.7,4,10,4,11
			c0,2.8,2.2,5,5,5c1.3,0,2.5-0.5,3.4-1.3l2.3,2.3l1.3-1.3L3.5,3.3z"/>
	</g>
</g>
<g id="Icon">
</g>
<g id="Grid" display="none">
	<g display="inline">
		<line fill="none" stroke="#00E5FF" stroke-width="0.1" stroke-miterlimit="10" x1="0" y1="-2488" x2="0" y2="1064"/>
	</g>
</g>
</svg>
