<?xml version="1.0" encoding="utf-8"?>
<!-- Generator: Adobe Illustrator 17.1.0, SVG Export Plug-In . SVG Version: 6.00 Build 0)  -->
<!DOCTYPE svg PUBLIC "-//W3C//DTD SVG 1.1//EN" "http://www.w3.org/Graphics/SVG/1.1/DTD/svg11.dtd">
<svg version="1.1" xmlns="http://www.w3.org/2000/svg" xmlns:xlink="http://www.w3.org/1999/xlink" x="0px" y="0px" width="18px"
	 height="18px" viewBox="0 0 18 18" enable-background="new 0 0 18 18" xml:space="preserve">
<g id="Header">
	<g>
		<rect x="-520" y="-1976" fill="none" width="1400" height="3600"/>
	</g>
</g>
<g id="Label">
	<g>
		<path d="M11.6,7.8C12.5,7.2,13,6.4,13,5.5C13,3.6,11.4,2,9.5,2H4v12h6.2c1.8,0,3.2-1.5,3.2-3.2C13.5,9.5,12.7,8.3,11.6,7.8z
			 M6.5,4h2.8c0.8,0,1.5,0.7,1.5,1.5S10.1,7,9.2,7H6.5V4z M9.8,12H6.5V9h3.2c0.8,0,1.5,0.7,1.5,1.5S10.6,12,9.8,12z"/>
		<rect fill="none" width="18" height="18"/>
	</g>
</g>
<g id="Icon">
</g>
<g id="Grid" display="none">
	<g display="inline">
		<line fill="none" stroke="#00E5FF" stroke-width="0.1" stroke-miterlimit="10" x1="0" y1="-1976" x2="0" y2="1576"/>
	</g>
</g>
</svg>
