<?xml version="1.0" encoding="utf-8"?>
<!-- Generator: Adobe Illustrator 18.0.0, SVG Export Plug-In . SVG Version: 6.00 Build 0)  -->
<!DOCTYPE svg PUBLIC "-//W3C//DTD SVG 1.1//EN" "http://www.w3.org/Graphics/SVG/1.1/DTD/svg11.dtd">
<svg version="1.1" xmlns="http://www.w3.org/2000/svg" xmlns:xlink="http://www.w3.org/1999/xlink" x="0px" y="0px" width="48px"
	 height="48px" viewBox="0 0 48 48" enable-background="new 0 0 48 48" xml:space="preserve">
<g id="Header">
	<g>
		<rect x="-838" y="-1848" fill="none" width="1400" height="3600"/>
	</g>
</g>
<g id="Label">
</g>
<g id="Icon">
	<g>
		<rect fill="none" width="48" height="48"/>
		<path d="M7.8,24c0-3.4,2.8-6.2,6.2-6.2h8V14h-8C8.5,14,4,18.5,4,24s4.5,10,10,10h8v-3.8h-8C10.6,30.2,7.8,27.4,7.8,24z M16,26h16
			v-4H16V26z M34,14h-8v3.8h8c3.4,0,6.2,2.8,6.2,6.2s-2.8,6.2-6.2,6.2h-8V34h8c5.5,0,10-4.5,10-10S39.5,14,34,14z"/>
	</g>
</g>
<g id="Grid" display="none">
	<g display="inline">
		<line fill="none" stroke="#00E5FF" stroke-width="0.1" stroke-miterlimit="10" x1="42" y1="-1848" x2="42" y2="1704"/>
	</g>
</g>
</svg>
