<?xml version="1.0" encoding="utf-8"?>
<!-- Generator: Adobe Illustrator 18.0.0, SVG Export Plug-In . SVG Version: 6.00 Build 0)  -->
<!DOCTYPE svg PUBLIC "-//W3C//DTD SVG 1.1//EN" "http://www.w3.org/Graphics/SVG/1.1/DTD/svg11.dtd">
<svg version="1.1" xmlns="http://www.w3.org/2000/svg" xmlns:xlink="http://www.w3.org/1999/xlink" x="0px" y="0px" width="18px"
	 height="18px" viewBox="0 0 18 18" enable-background="new 0 0 18 18" xml:space="preserve">
<g id="Header">
	<g>
		<rect x="-520" y="-1848" fill="none" width="1400" height="3600"/>
	</g>
</g>
<g id="Label">
</g>
<g id="Icon">
	<rect fill="none" width="18" height="18"/>
	<path d="M1.9,9c0-1.2,0.9-2.1,2.1-2.1h4V5H4C1.8,5,0,6.8,0,9s1.8,4,4,4h4v-1.9H4C2.8,11.1,1.9,10.2,1.9,9z M14,5h-4v1.9h4
		c1.2,0,2.1,0.9,2.1,2.1c0,1.2-0.9,2.1-2.1,2.1h-4V13h4c2.2,0,4-1.8,4-4S16.2,5,14,5z M6,10h6V8H6V10z"/>
</g>
<g id="Grid" display="none">
	<g display="inline">
		<line fill="none" stroke="#00E5FF" stroke-width="0.1" stroke-miterlimit="10" x1="0" y1="-1848" x2="0" y2="1704"/>
	</g>
</g>
</svg>
