<?xml version="1.0" encoding="utf-8"?>
<!-- Generator: Adobe Illustrator 17.1.0, SVG Export Plug-In . SVG Version: 6.00 Build 0)  -->
<!DOCTYPE svg PUBLIC "-//W3C//DTD SVG 1.1//EN" "http://www.w3.org/Graphics/SVG/1.1/DTD/svg11.dtd">
<svg version="1.1" xmlns="http://www.w3.org/2000/svg" xmlns:xlink="http://www.w3.org/1999/xlink" x="0px" y="0px" width="18px"
	 height="18px" viewBox="0 0 18 18" enable-background="new 0 0 18 18" xml:space="preserve">
<g id="Header">
	<g>
		<rect x="-520" y="-440" fill="none" width="1400" height="3600"/>
	</g>
</g>
<g id="Label">
</g>
<g id="Icon">
	<g>
		<rect fill="none" width="18" height="18"/>
		<g>
			<path d="M4,12c0,2.8,2.2,5,5,5c2.8,0,5-2.2,5-5V9H4V12z M11.9,3.1l1.5-1.5L12.9,1l-1.6,1.6C10.5,2.3,9.8,2.1,9,2.1
				c-0.8,0-1.5,0.2-2.2,0.5L5.1,1L4.6,1.6l1.5,1.5C4.8,4,4,5.5,4,7.1V8h10V7.1C14,5.5,13.2,4,11.9,3.1z M7,6H6V5h1V6z M12,6h-1V5h1
				V6z"/>
		</g>
	</g>
</g>
<g id="Grid" display="none">
	<g display="inline">
		<line fill="none" stroke="#00E5FF" stroke-width="0.1" stroke-miterlimit="10" x1="0" y1="-440" x2="0" y2="3112"/>
	</g>
</g>
</svg>
