<?xml version="1.0" encoding="utf-8"?>
<!-- Generator: Adobe Illustrator 17.1.0, SVG Export Plug-In . SVG Version: 6.00 Build 0)  -->
<!DOCTYPE svg PUBLIC "-//W3C//DTD SVG 1.1//EN" "http://www.w3.org/Graphics/SVG/1.1/DTD/svg11.dtd">
<svg version="1.1" xmlns="http://www.w3.org/2000/svg" xmlns:xlink="http://www.w3.org/1999/xlink" x="0px" y="0px" width="48px"
	 height="48px" viewBox="0 0 48 48" enable-background="new 0 0 48 48" xml:space="preserve">
<g id="Header">
	<g>
		<rect x="-838" y="-1976" fill="none" width="1400" height="3600"/>
	</g>
</g>
<g id="Label">
</g>
<g id="Icon">
	<g>
		<rect fill="none" width="48" height="48"/>
		<path d="M44,6H14c-1.4,0-2.5,0.7-3.2,1.8L0,24l10.8,16.2c0.7,1.1,1.9,1.8,3.3,1.8H44c2.2,0,4-1.8,4-4V10C48,7.8,46.2,6,44,6z
			 M18,27c-1.7,0-3-1.3-3-3s1.3-3,3-3c1.7,0,3,1.3,3,3S19.7,27,18,27z M28,27c-1.7,0-3-1.3-3-3s1.3-3,3-3c1.7,0,3,1.3,3,3
			S29.7,27,28,27z M38,27c-1.7,0-3-1.3-3-3s1.3-3,3-3c1.7,0,3,1.3,3,3S39.7,27,38,27z"/>
	</g>
</g>
<g id="Grid" display="none">
	<g display="inline">
		<line fill="none" stroke="#00E5FF" stroke-width="0.1" stroke-miterlimit="10" x1="42" y1="-1976" x2="42" y2="1576"/>
	</g>
</g>
</svg>
