<?xml version="1.0" encoding="utf-8"?>
<!-- Generator: Adobe Illustrator 18.0.0, SVG Export Plug-In . SVG Version: 6.00 Build 0)  -->
<!DOCTYPE svg PUBLIC "-//W3C//DTD SVG 1.1//EN" "http://www.w3.org/Graphics/SVG/1.1/DTD/svg11.dtd">
<svg version="1.1" xmlns="http://www.w3.org/2000/svg" xmlns:xlink="http://www.w3.org/1999/xlink" x="0px" y="0px" width="48px"
	 height="48px" viewBox="0 0 48 48" enable-background="new 0 0 48 48" xml:space="preserve">
<g id="Header">
	<g>
		<rect x="-838" y="-2744" fill="none" width="1400" height="3600"/>
	</g>
</g>
<g id="Label">
</g>
<g id="Icon">
	<g>
		<g>
			<g>
				<g>
					<rect fill="none" width="48" height="48"/>
				</g>
			</g>
			<g>
				<g>
					<rect fill="none" width="48" height="48"/>
				</g>
			</g>
		</g>
		<g>
			<path d="M39,20c0.3,0,0.7,0.1,1,0.1V2L2,40h26v-6c0-1.8,0.8-3.4,2-4.5V29C30,24,34,20,39,20z M44,32v-3c0-2.8-2.2-5-5-5
				s-5,2.2-5,5v3c-1.1,0-2,0.9-2,2v8c0,1.1,0.9,2,2,2h10c1.1,0,2-0.9,2-2v-8C46,32.9,45.1,32,44,32z M42,32h-6v-3c0-1.7,1.3-3,3-3
				s3,1.3,3,3V32z"/>
		</g>
	</g>
</g>
<g id="Grid" display="none">
	<g display="inline">
		<line fill="none" stroke="#00E5FF" stroke-width="0.1" stroke-miterlimit="10" x1="42" y1="-2744" x2="42" y2="808"/>
	</g>
</g>
</svg>
