<?xml version="1.0" encoding="utf-8"?>
<!-- Generator: Adobe Illustrator 17.1.0, SVG Export Plug-In . SVG Version: 6.00 Build 0)  -->
<!DOCTYPE svg PUBLIC "-//W3C//DTD SVG 1.1//EN" "http://www.w3.org/Graphics/SVG/1.1/DTD/svg11.dtd">
<svg version="1.1" xmlns="http://www.w3.org/2000/svg" xmlns:xlink="http://www.w3.org/1999/xlink" x="0px" y="0px" width="48px"
	 height="48px" viewBox="0 0 48 48" enable-background="new 0 0 48 48" xml:space="preserve">
<g id="Header">
	<g>
		<rect x="-838" y="-2616" fill="none" width="1400" height="3600"/>
	</g>
</g>
<g id="Label">
</g>
<g id="Icon">
	<g>
		<rect fill="none" width="48" height="48"/>
		<g>
			<path d="M13,11l11,11L38,8l-2-2L24,18l-9-9h7V6H10v12h3V11z M47.4,33.3C41.3,27.6,33.1,24,24,24c-9.1,0-17.3,3.6-23.4,9.3
				C0.2,33.7,0,34.2,0,34.8s0.2,1.1,0.6,1.4l5,5c0.4,0.4,0.9,0.6,1.4,0.6c0.5,0,1-0.2,1.4-0.6c1.6-1.5,3.4-2.7,5.3-3.7
				c0.7-0.3,1.1-1,1.1-1.8v-6.2c2.9-0.9,6-1.4,9.2-1.4c3.2,0,6.3,0.5,9.2,1.4v6.2c0,0.8,0.5,1.5,1.1,1.8c2,1,3.7,2.2,5.3,3.7
				c0.4,0.4,0.9,0.6,1.4,0.6c0.6,0,1.1-0.2,1.4-0.6l5-5c0.4-0.4,0.6-0.9,0.6-1.4S47.8,33.7,47.4,33.3z"/>
		</g>
	</g>
</g>
<g id="Grid" display="none">
	<g display="inline">
		<line fill="none" stroke="#00E5FF" stroke-width="0.1" stroke-miterlimit="10" x1="42" y1="-2616" x2="42" y2="936"/>
	</g>
</g>
</svg>
