<?xml version="1.0" encoding="utf-8"?>
<!-- Generator: Adobe Illustrator 17.1.0, SVG Export Plug-In . SVG Version: 6.00 Build 0)  -->
<!DOCTYPE svg PUBLIC "-//W3C//DTD SVG 1.1//EN" "http://www.w3.org/Graphics/SVG/1.1/DTD/svg11.dtd">
<svg version="1.1" xmlns="http://www.w3.org/2000/svg" xmlns:xlink="http://www.w3.org/1999/xlink" x="0px" y="0px" width="48px"
	 height="48px" viewBox="0 0 48 48" enable-background="new 0 0 48 48" xml:space="preserve">
<g id="Header">
	<g>
		<rect x="-838" y="-2744" fill="none" width="1400" height="3600"/>
	</g>
</g>
<g id="Label">
</g>
<g id="Icon">
	<g>
		<rect fill="none" width="48" height="48"/>
		<path d="M34,6h-4v14h4V6z M40,31c-2.5,0-4.9-0.4-7.1-1.1c-0.7-0.2-1.5-0.1-2,0.5l-4.4,4.4c-5.7-2.9-10.3-7.5-13.2-13.2l4.4-4.4
			c0.5-0.5,0.7-1.3,0.5-2C17.4,12.9,17,10.5,17,8c0-1.1-0.9-2-2-2H8C6.9,6,6,6.9,6,8c0,18.8,15.2,34,34,34c1.1,0,2-0.9,2-2v-7
			C42,31.9,41.1,31,40,31z M38,6v14h4V6H38z"/>
	</g>
</g>
<g id="Grid" display="none">
	<g display="inline">
		<line fill="none" stroke="#00E5FF" stroke-width="0.1" stroke-miterlimit="10" x1="42" y1="-2744" x2="42" y2="808"/>
	</g>
</g>
</svg>
