<?xml version="1.0" encoding="utf-8"?>
<!-- Generator: Adobe Illustrator 17.1.0, SVG Export Plug-In . SVG Version: 6.00 Build 0)  -->
<!DOCTYPE svg PUBLIC "-//W3C//DTD SVG 1.1//EN" "http://www.w3.org/Graphics/SVG/1.1/DTD/svg11.dtd">
<svg version="1.1" xmlns="http://www.w3.org/2000/svg" xmlns:xlink="http://www.w3.org/1999/xlink" x="0px" y="0px" width="48px"
	 height="48px" viewBox="0 0 48 48" enable-background="new 0 0 48 48" xml:space="preserve">
<g id="Header">
	<g>
		<rect x="-838" y="-1848" fill="none" width="1400" height="3600"/>
	</g>
</g>
<g id="Label">
</g>
<g id="Icon">
	<g>
		<rect fill="none" width="48" height="48"/>
		<rect fill="none" width="48" height="48"/>
		<path d="M20,12.7V8.5c-1.6,0.4-3.1,1.1-4.5,1.9l2.9,2.9C19,13.1,19.5,12.9,20,12.7z M5.7,10.8l4.7,4.7C8.9,18,8,20.9,8,24
			c0,4.4,1.8,8.4,4.7,11.3L8,40h12V28l-4.5,4.5C13.4,30.3,12,27.3,12,24c0-2,0.5-3.9,1.4-5.5l16.2,16.2c-0.5,0.3-1,0.5-1.5,0.7v4.2
			c1.6-0.4,3.1-1.1,4.5-1.9l4.7,4.7l2.5-2.5L8.3,8.3L5.7,10.8z M40,8H28v12l4.5-4.5c2.2,2.2,3.5,5.2,3.5,8.5c0,2-0.5,3.9-1.4,5.5
			l2.9,2.9C39.1,30,40,27.1,40,24c0-4.4-1.8-8.4-4.7-11.3L40,8z"/>
	</g>
</g>
<g id="Grid" display="none">
	<g display="inline">
		<line fill="none" stroke="#00E5FF" stroke-width="0.1" stroke-miterlimit="10" x1="42" y1="-1848" x2="42" y2="1704"/>
	</g>
</g>
</svg>
