<?xml version="1.0" encoding="utf-8"?>
<!-- Generator: Adobe Illustrator 17.1.0, SVG Export Plug-In . SVG Version: 6.00 Build 0)  -->
<!DOCTYPE svg PUBLIC "-//W3C//DTD SVG 1.1//EN" "http://www.w3.org/Graphics/SVG/1.1/DTD/svg11.dtd">
<svg version="1.1" xmlns="http://www.w3.org/2000/svg" xmlns:xlink="http://www.w3.org/1999/xlink" x="0px" y="0px" width="48px"
	 height="48px" viewBox="0 0 48 48" enable-background="new 0 0 48 48" xml:space="preserve">
<g id="Header">
	<g>
		<rect x="-838" y="-2104" fill="none" width="1400" height="3600"/>
	</g>
</g>
<g id="Label">
</g>
<g id="Icon">
	<g>
		<rect fill="none" width="48" height="48"/>
		<path d="M6,24c0,4.4,1.8,8.4,4.7,11.3L6,40h12V28l-4.5,4.5C11.4,30.3,10,27.3,10,24c0-5.2,3.3-9.7,8-11.3V8.5
			C11.1,10.3,6,16.5,6,24z M22,34h4v-4h-4V34z M42,8H30v12l4.5-4.5c2.2,2.2,3.5,5.2,3.5,8.5c0,5.2-3.3,9.7-8,11.3v4.2
			c6.9-1.8,12-8,12-15.5c0-4.4-1.8-8.4-4.7-11.3L42,8z M22,26h4V14h-4V26z"/>
	</g>
</g>
<g id="Grid" display="none">
	<g display="inline">
		<line fill="none" stroke="#00E5FF" stroke-width="0.1" stroke-miterlimit="10" x1="42" y1="-2104" x2="42" y2="1448"/>
	</g>
</g>
</svg>
