<?xml version="1.0" encoding="utf-8"?>
<!-- Generator: Adobe Illustrator 17.1.0, SVG Export Plug-In . SVG Version: 6.00 Build 0)  -->
<!DOCTYPE svg PUBLIC "-//W3C//DTD SVG 1.1//EN" "http://www.w3.org/Graphics/SVG/1.1/DTD/svg11.dtd">
<svg version="1.1" xmlns="http://www.w3.org/2000/svg" xmlns:xlink="http://www.w3.org/1999/xlink" x="0px" y="0px" width="48px"
	 height="48px" viewBox="0 0 48 48" enable-background="new 0 0 48 48" xml:space="preserve">
<g id="Header">
	<g>
		<rect x="-838" y="-568" fill="none" width="1400" height="3600"/>
	</g>
</g>
<g id="Label">
</g>
<g id="Icon">
	<path d="M24,8V2l-8,8l8,8v-6c6.6,0,12,5.4,12,12c0,2-0.5,3.9-1.4,5.6l2.9,2.9c1.6-2.5,2.5-5.4,2.5-8.5C40,15.2,32.8,8,24,8z M24,36
		c-6.6,0-12-5.4-12-12c0-2,0.5-3.9,1.4-5.6l-2.9-2.9C8.9,17.9,8,20.9,8,24c0,8.8,7.2,16,16,16v6l8-8l-8-8V36z"/>
	<rect fill="none" width="48" height="48"/>
</g>
<g id="Grid" display="none">
	<g display="inline">
		<line fill="none" stroke="#00E5FF" stroke-width="0.1" stroke-miterlimit="10" x1="42" y1="-568" x2="42" y2="2984"/>
	</g>
</g>
</svg>
