<?xml version="1.0" encoding="utf-8"?>
<!-- Generator: Adobe Illustrator 17.1.0, SVG Export Plug-In . SVG Version: 6.00 Build 0)  -->
<!DOCTYPE svg PUBLIC "-//W3C//DTD SVG 1.1//EN" "http://www.w3.org/Graphics/SVG/1.1/DTD/svg11.dtd">
<svg version="1.1" xmlns="http://www.w3.org/2000/svg" xmlns:xlink="http://www.w3.org/1999/xlink" x="0px" y="0px" width="48px"
	 height="48px" viewBox="0 0 48 48" enable-background="new 0 0 48 48" xml:space="preserve">
<g id="Header">
	<g>
		<rect x="-838" y="-1720" fill="none" width="1400" height="3600"/>
	</g>
</g>
<g id="Label">
</g>
<g id="Icon">
	<g>
		<g>
			<rect fill="none" width="48" height="48"/>
		</g>
	</g>
	<path d="M4,32v4c5.5,0,10,4.5,10,10h4C18,38.3,11.7,32,4,32z M4,40v6h6C10,42.7,7.3,40,4,40z M4,24v4c9.9,0,18,8.1,18,18h4
		C26,33.8,16.2,24,4,24z M34,2L14,2c-2.2,0-4,1.8-4,4v14.7c1.4,0.3,2.7,0.7,4,1.3V10h20v26h-6.1c1,2.5,1.7,5.2,1.9,8H34
		c2.2,0,4-1.8,4-4V6C38,3.8,36.2,2,34,2z"/>
</g>
<g id="Grid" display="none">
	<g display="inline">
		<line fill="none" stroke="#00E5FF" stroke-width="0.1" stroke-miterlimit="10" x1="42" y1="-1720" x2="42" y2="1832"/>
	</g>
</g>
</svg>
