<?xml version="1.0" encoding="utf-8"?>
<!-- Generator: Adobe Illustrator 17.1.0, SVG Export Plug-In . SVG Version: 6.00 Build 0)  -->
<!DOCTYPE svg PUBLIC "-//W3C//DTD SVG 1.1//EN" "http://www.w3.org/Graphics/SVG/1.1/DTD/svg11.dtd">
<svg version="1.1" xmlns="http://www.w3.org/2000/svg" xmlns:xlink="http://www.w3.org/1999/xlink" x="0px" y="0px" width="48px"
	 height="48px" viewBox="0 0 48 48" enable-background="new 0 0 48 48" xml:space="preserve">
<g id="Header">
	<g>
		<rect x="-838" y="-824" fill="none" width="1400" height="3600"/>
	</g>
</g>
<g id="Label">
</g>
<g id="Icon">
	<g>
		<path d="M37.8,10c-0.4-1.2-1.5-2-2.8-2H13c-1.3,0-2.4,0.8-2.8,2L6,22v16c0,1.1,0.9,2,2,2h2c1.1,0,2-0.9,2-2v-2h24v2
			c0,1.1,0.9,2,2,2h2c1.1,0,2-0.9,2-2V22L37.8,10z M13,30c-1.7,0-3-1.3-3-3s1.3-3,3-3c1.7,0,3,1.3,3,3S14.7,30,13,30z M35,30
			c-1.7,0-3-1.3-3-3s1.3-3,3-3c1.7,0,3,1.3,3,3S36.7,30,35,30z M10,20l3-9h22l3,9H10z"/>
		<rect fill="none" width="48" height="48"/>
	</g>
</g>
<g id="Grid" display="none">
	<g display="inline">
		<line fill="none" stroke="#00E5FF" stroke-width="0.1" stroke-miterlimit="10" x1="42" y1="-824" x2="42" y2="2728"/>
	</g>
</g>
</svg>
