<?xml version="1.0" encoding="utf-8"?>
<!-- Generator: Adobe Illustrator 17.1.0, SVG Export Plug-In . SVG Version: 6.00 Build 0)  -->
<!DOCTYPE svg PUBLIC "-//W3C//DTD SVG 1.1//EN" "http://www.w3.org/Graphics/SVG/1.1/DTD/svg11.dtd">
<svg version="1.1" xmlns="http://www.w3.org/2000/svg" xmlns:xlink="http://www.w3.org/1999/xlink" x="0px" y="0px" width="48px"
	 height="48px" viewBox="0 0 48 48" enable-background="new 0 0 48 48" xml:space="preserve">
<g id="Header">
	<g>
		<rect x="-838" y="-1592" fill="none" width="1400" height="3600"/>
	</g>
</g>
<g id="Label">
</g>
<g id="Icon">
	<g>
		<path d="M44,8V7c0-2.8-2.2-5-5-5c-2.8,0-5,2.2-5,5v1c-1.1,0-2,0.9-2,2v8c0,1.1,0.9,2,2,2h10c1.1,0,2-0.9,2-2v-8
			C46,8.9,45.1,8,44,8z M42.4,8h-6.8V7c0-1.9,1.5-3.4,3.4-3.4c1.9,0,3.4,1.5,3.4,3.4V8z M37.8,24c0.1,0.7,0.2,1.3,0.2,2
			c0,4.2-1.6,7.9-4.2,10.8c-0.5-1.6-2-2.8-3.8-2.8h-2v-6c0-1.1-0.9-2-2-2H14v-4h4c1.1,0,2-0.9,2-2v-4h4c2.2,0,4-1.8,4-4V6.9
			C26.1,6.3,24.1,6,22,6C11,6,2,15,2,26c0,11,9,20,20,20c11,0,20-9,20-20c0-0.7,0-1.3-0.1-2H37.8z M20,41.9c-7.9-1-14-7.7-14-15.9
			c0-1.2,0.2-2.4,0.4-3.6L16,32v2c0,2.2,1.8,4,4,4V41.9z"/>
		<g>
			<g>
				<rect fill="none" width="48" height="48"/>
			</g>
		</g>
	</g>
</g>
<g id="Grid" display="none">
	<g display="inline">
		<line fill="none" stroke="#00E5FF" stroke-width="0.1" stroke-miterlimit="10" x1="42" y1="-1592" x2="42" y2="1960"/>
	</g>
</g>
</svg>
