<?xml version="1.0" encoding="utf-8"?>
<!-- Generator: Adobe Illustrator 17.1.0, SVG Export Plug-In . SVG Version: 6.00 Build 0)  -->
<!DOCTYPE svg PUBLIC "-//W3C//DTD SVG 1.1//EN" "http://www.w3.org/Graphics/SVG/1.1/DTD/svg11.dtd">
<svg version="1.1" xmlns="http://www.w3.org/2000/svg" xmlns:xlink="http://www.w3.org/1999/xlink" x="0px" y="0px" width="18px"
	 height="18px" viewBox="0 0 18 18" enable-background="new 0 0 18 18" xml:space="preserve">
<g id="Header">
	<g>
		<rect x="-520" y="-1080" fill="none" width="1400" height="3600"/>
	</g>
</g>
<g id="Label">
</g>
<g id="Icon">
	<g>
		<g>
			<path d="M0,11h1V7H0V11z M2,13h1V5H2V13z M17,7v4h1V7H17z M15,13h1V5h-1V13z M12.5,2h-7C4.7,2,4,2.7,4,3.5v11
				C4,15.3,4.7,16,5.5,16h7c0.8,0,1.5-0.7,1.5-1.5v-11C14,2.7,13.3,2,12.5,2z M12.5,14.5h-7v-11h7V14.5z"/>
		</g>
		<rect fill="none" width="18" height="18"/>
	</g>
</g>
<g id="Grid" display="none">
	<g display="inline">
		<line fill="none" stroke="#00E5FF" stroke-width="0.1" stroke-miterlimit="10" x1="0" y1="-1080" x2="0" y2="2472"/>
	</g>
</g>
</svg>
