<?xml version="1.0" encoding="utf-8"?>
<!-- Generator: Adobe Illustrator 17.1.0, SVG Export Plug-In . SVG Version: 6.00 Build 0)  -->
<!DOCTYPE svg PUBLIC "-//W3C//DTD SVG 1.1//EN" "http://www.w3.org/Graphics/SVG/1.1/DTD/svg11.dtd">
<svg version="1.1" xmlns="http://www.w3.org/2000/svg" xmlns:xlink="http://www.w3.org/1999/xlink" x="0px" y="0px" width="18px"
	 height="18px" viewBox="0 0 18 18" enable-background="new 0 0 18 18" xml:space="preserve">
<g id="Header">
	<g>
		<rect x="-520" y="-440" fill="none" width="1400" height="3600"/>
	</g>
</g>
<g id="Label">
</g>
<g id="Icon">
	<g>
		<path d="M15,5H4C1.8,5,0,6.8,0,9s1.8,4,4,4h10v-1H4c-1.7,0-3-1.3-3-3s1.3-3,3-3h11c1.1,0,2,0.9,2,2s-0.9,2-2,2H6c-0.6,0-1-0.4-1-1
			s0.4-1,1-1h8V7H6C4.9,7,4,7.9,4,9s0.9,2,2,2h9c1.7,0,3-1.3,3-3S16.7,5,15,5z"/>
		<g>
			<rect fill="none" width="18" height="18"/>
		</g>
	</g>
</g>
<g id="Grid" display="none">
	<g display="inline">
		<line fill="none" stroke="#00E5FF" stroke-width="0.1" stroke-miterlimit="10" x1="0" y1="-440" x2="0" y2="3112"/>
	</g>
</g>
</svg>
