<?xml version="1.0" encoding="utf-8"?>
<!-- Generator: Adobe Illustrator 17.1.0, SVG Export Plug-In . SVG Version: 6.00 Build 0)  -->
<!DOCTYPE svg PUBLIC "-//W3C//DTD SVG 1.1//EN" "http://www.w3.org/Graphics/SVG/1.1/DTD/svg11.dtd">
<svg version="1.1" xmlns="http://www.w3.org/2000/svg" xmlns:xlink="http://www.w3.org/1999/xlink" x="0px" y="0px" width="18px"
	 height="18px" viewBox="0 0 18 18" enable-background="new 0 0 18 18" xml:space="preserve">
<g id="Header">
	<g>
		<rect x="-520" y="-952" fill="none" width="1400" height="3600"/>
	</g>
</g>
<g id="Label">
</g>
<g id="Icon">
	<g>
		<g>
			<path d="M9,1C4.6,1,1,4.6,1,9c0,4.4,3.6,8,8,8c4.4,0,8-3.6,8-8C17,4.6,13.4,1,9,1z M12.5,12H6c-1.4,0-2.5-1.1-2.5-2.5
				C3.5,8.1,4.6,7,6,7h0.2C6.6,5.8,7.7,5,9,5c1.7,0,3,1.3,3,3h0.5c1.1,0,2,0.9,2,2C14.5,11.1,13.6,12,12.5,12z"/>
		</g>
		<g>
			<rect fill="none" width="18" height="18"/>
		</g>
	</g>
</g>
<g id="Grid" display="none">
	<g display="inline">
		<line fill="none" stroke="#00E5FF" stroke-width="0.1" stroke-miterlimit="10" x1="0" y1="-952" x2="0" y2="2600"/>
	</g>
</g>
</svg>
