<?xml version="1.0" encoding="utf-8"?>
<!-- Generator: Adobe Illustrator 17.1.0, SVG Export Plug-In . SVG Version: 6.00 Build 0)  -->
<!DOCTYPE svg PUBLIC "-//W3C//DTD SVG 1.1//EN" "http://www.w3.org/Graphics/SVG/1.1/DTD/svg11.dtd">
<svg version="1.1" xmlns="http://www.w3.org/2000/svg" xmlns:xlink="http://www.w3.org/1999/xlink" x="0px" y="0px" width="48px"
	 height="48px" viewBox="0 0 48 48" enable-background="new 0 0 48 48" xml:space="preserve">
<g id="Header">
	<g>
		<rect x="-838" y="-952" fill="none" width="1400" height="3600"/>
	</g>
</g>
<g id="Label">
</g>
<g id="Icon">
	<g>
		<rect fill="none" width="48" height="48"/>
		<path d="M38.7,20.1C37.3,13.2,31.3,8,24,8c-3,0-5.7,0.9-8,2.3l2.9,2.9c1.5-0.8,3.3-1.3,5.1-1.3c6.1,0,11,4.9,11,11v1h3
			c3.3,0,6,2.7,6,6c0,2.3-1.3,4.2-3.1,5.2l2.9,2.9c2.5-1.8,4.2-4.8,4.2-8.1C48,24.7,43.9,20.4,38.7,20.1z M6,10.5l5.5,5.5
			C5.1,16.3,0,21.5,0,28c0,6.6,5.4,12,12,12h23.5l4,4l2.5-2.5L8.5,8L6,10.5z M15.5,20l16,16H12c-4.4,0-8-3.6-8-8c0-4.4,3.6-8,8-8
			H15.5z"/>
	</g>
</g>
<g id="Grid" display="none">
	<g display="inline">
		<line fill="none" stroke="#00E5FF" stroke-width="0.1" stroke-miterlimit="10" x1="42" y1="-952" x2="42" y2="2600"/>
	</g>
</g>
</svg>
