<?xml version="1.0" encoding="utf-8"?>
<!-- Generator: Adobe Illustrator 18.0.0, SVG Export Plug-In . SVG Version: 6.00 Build 0)  -->
<!DOCTYPE svg PUBLIC "-//W3C//DTD SVG 1.1//EN" "http://www.w3.org/Graphics/SVG/1.1/DTD/svg11.dtd">
<svg version="1.1" xmlns="http://www.w3.org/2000/svg" xmlns:xlink="http://www.w3.org/1999/xlink" x="0px" y="0px" width="48px"
	 height="48px" viewBox="0 0 48 48" enable-background="new 0 0 48 48" xml:space="preserve">
<g id="Header">
	<g>
		<rect x="-838" y="-2232" fill="none" width="1400" height="3600"/>
	</g>
</g>
<g id="Label">
</g>
<g id="Icon">
	<g>
		<rect y="-2" fill="none" width="48" height="48"/>
		<path d="M24,15c-1.7,0-3,1.3-3,3s1.3,3,3,3c1.7,0,3-1.3,3-3S25.7,15,24,15z M38,4H10C7.8,4,6,5.8,6,8v28c0,2.2,1.8,4,4,4h28
			c2.2,0,4-1.8,4-4V8C42,5.8,40.2,4,38,4z M25,36h-2c-1.9-8.2-8-11.7-8-18c0-5,4-9,9-9c5,0,9,4,9,9C33,24.3,26.9,27.8,25,36z"/>
	</g>
</g>
<g id="Grid" display="none">
	<g display="inline">
		<line fill="none" stroke="#00E5FF" stroke-width="0.1" stroke-miterlimit="10" x1="42" y1="-2232" x2="42" y2="1320"/>
	</g>
</g>
</svg>
